<?xml version="1.0" standalone="no"?>
<!DOCTYPE svg PUBLIC "-//W3C//DTD SVG 20010904//EN"
 "http://www.w3.org/TR/2001/REC-SVG-20010904/DTD/svg10.dtd">
<svg version="1.0" xmlns="http://www.w3.org/2000/svg"
 width="280.000000pt" height="202.000000pt" viewBox="0 0 280.000000 202.000000"
 preserveAspectRatio="xMidYMid meet">

<g transform="translate(0.000000,202.000000) scale(0.100000,-0.100000)"
fill="#000000" stroke="none">
<path d="M1002 1737 l-162 -162 0 -230 0 -230 163 -163 162 -162 235 0 235 0
162 162 163 163 0 230 0 230 -163 163 -162 162 -235 0 -235 0 -163 -163z m750
-44 l148 -148 0 -200 0 -200 -147 -147 -148 -148 -205 0 -205 0 -148 148 -147
147 0 200 0 200 147 147 148 148 205 0 205 0 147 -147z"/>
<path d="M1062 1677 l-142 -142 0 -190 0 -190 143 -143 142 -142 195 0 195 0
143 143 142 142 0 190 0 190 -143 143 -142 142 -195 0 -195 0 -143 -143z m488
-107 l0 -60 -80 0 -80 0 0 -200 0 -200 -70 0 -70 0 0 200 0 200 -80 0 -80 0 0
60 0 60 230 0 230 0 0 -60z m160 -125 l0 -185 -70 0 -70 0 0 185 0 185 70 0
70 0 0 -185z m-160 -85 l0 -130 80 0 80 0 0 -60 0 -60 -150 0 -150 0 0 183 c0
101 3 187 7 190 3 4 35 7 70 7 l63 0 0 -130z m-320 -355 c0 -25 -4 -45 -10
-45 -5 0 -10 14 -10 30 0 17 -5 30 -12 30 -9 0 19 28 30 30 1 0 2 -20 2 -45z
m119 31 c18 -22 10 -70 -13 -74 -10 -2 -23 2 -30 8 -8 9 -6 11 11 6 12 -4 24
-2 28 4 3 6 -3 10 -15 10 -23 0 -35 22 -26 45 7 19 30 19 45 1z m131 3 c0 -6
-7 -9 -15 -6 -8 4 -17 2 -20 -3 -4 -6 0 -10 8 -10 21 0 38 -25 31 -44 -6 -17
-54 -23 -54 -7 0 5 9 7 21 4 17 -5 20 -2 17 13 -2 11 -11 18 -21 16 -17 -3
-25 27 -10 41 11 11 43 8 43 -4z m126 -1 c5 -8 2 -9 -9 -5 -9 3 -19 2 -22 -3
-3 -5 4 -12 15 -15 31 -10 23 -50 -10 -50 -20 0 -26 6 -28 28 -5 44 34 77 54
45z"/>
<path d="M1317 1025 c-8 -18 11 -31 25 -17 11 11 3 32 -12 32 -4 0 -10 -7 -13
-15z"/>
<path d="M1570 984 c0 -17 22 -14 28 4 2 7 -3 12 -12 12 -9 0 -16 -7 -16 -16z"/>
<path d="M37 473 c-4 -3 -7 -13 -7 -20 0 -12 3 -11 16 2 29 29 39 12 39 -68 0
-71 2 -77 20 -77 19 0 20 5 17 75 -4 64 -2 76 13 82 12 4 23 0 31 -12 13 -18
14 -18 14 3 0 20 -5 22 -68 22 -38 0 -72 -3 -75 -7z"/>
<path d="M310 465 c0 -8 7 -15 15 -15 8 0 15 7 15 15 0 8 -7 15 -15 15 -8 0
-15 -7 -15 -15z"/>
<path d="M635 469 c-10 -15 1 -23 20 -15 9 3 13 10 10 16 -8 13 -22 13 -30 -1z"/>
<path d="M775 395 l0 -85 63 0 c57 0 62 2 62 22 0 20 -1 20 -19 4 -11 -10 -30
-16 -43 -14 -22 3 -23 7 -23 81 0 70 -2 77 -20 77 -18 0 -20 -7 -20 -85z"/>
<path d="M1895 395 c0 -81 1 -85 23 -85 21 0 22 4 22 85 0 81 -1 85 -22 85
-22 0 -23 -4 -23 -85z"/>
<path d="M2310 465 c0 -8 7 -15 15 -15 8 0 15 7 15 15 0 8 -7 15 -15 15 -8 0
-15 -7 -15 -15z"/>
<path d="M2239 444 c-21 -25 -12 -127 11 -132 12 -2 14 7 11 44 -2 32 1 49 10
55 9 6 10 9 2 9 -6 0 -13 10 -15 21 -3 21 -3 21 -19 3z"/>
<path d="M2390 437 c-11 -16 -14 -37 -10 -72 4 -44 8 -50 30 -53 20 -3 23 -1
13 9 -7 7 -13 30 -13 51 0 29 4 38 17 38 15 0 15 1 1 13 -9 6 -17 17 -19 24
-2 6 -10 2 -19 -10z"/>
<path d="M2619 444 c-21 -25 -12 -127 11 -132 12 -2 14 7 11 44 -2 32 1 49 10
55 9 6 10 9 2 9 -6 0 -13 10 -15 21 -3 21 -3 21 -19 3z"/>
<path d="M228 423 c22 -9 13 -38 -18 -55 -35 -20 -42 -58 -11 -58 23 0 37 16
19 22 -13 5 -4 38 11 38 5 0 11 -12 13 -27 2 -16 10 -29 19 -31 14 -3 16 4 12
45 -6 54 -18 73 -42 72 -10 0 -11 -2 -3 -6z"/>
<path d="M443 412 c21 -23 22 -66 1 -86 -13 -14 -13 -16 0 -16 42 0 62 72 28
103 -26 24 -50 23 -29 -1z"/>
<path d="M530 410 c-24 -24 -25 -48 -4 -78 17 -25 46 -29 63 -8 10 12 9 13 -8
9 -12 -3 -22 2 -28 14 -15 28 -10 68 7 68 9 0 15 -9 14 -22 -1 -22 19 -32 30
-15 8 13 -23 52 -40 52 -8 0 -23 -9 -34 -20z"/>
<path d="M981 414 c11 -14 8 -20 -24 -47 -45 -39 -38 -56 23 -54 l45 2 -4 45
c-3 49 -15 70 -38 70 -13 0 -13 -3 -2 -16z m9 -58 c0 -18 -17 -29 -30 -21 -8
5 -7 11 1 21 15 18 29 18 29 0z"/>
<path d="M1088 423 c-27 -4 -28 -7 -28 -59 0 -45 3 -54 18 -54 14 0 17 9 17
47 0 36 4 48 15 48 11 0 15 -12 14 -47 0 -40 3 -48 18 -48 15 0 18 8 18 48 0
47 -13 74 -34 71 -6 -1 -23 -4 -38 -6z"/>
<path d="M1208 419 c-21 -11 -23 -40 -6 -57 7 -7 8 -15 1 -24 -13 -17 -11 -70
3 -75 7 -2 11 4 10 14 -1 21 31 29 54 13 13 -9 13 -11 0 -20 -8 -5 -10 -10 -4
-10 18 0 37 28 30 45 -3 9 -18 15 -40 15 -34 0 -52 11 -39 24 4 3 7 21 7 39 1
21 6 32 16 32 11 0 15 -10 14 -32 -1 -18 2 -33 6 -33 15 0 32 30 26 45 -3 8 0
15 6 15 6 0 8 3 5 7 -12 11 -71 13 -89 2z"/>
<path d="M1508 418 c19 -19 14 -32 -18 -50 -35 -20 -42 -58 -11 -58 23 0 37
16 19 22 -14 5 -4 38 12 38 5 0 10 -14 10 -31 0 -23 4 -30 17 -27 14 3 17 12
14 48 -3 49 -15 70 -39 70 -12 0 -13 -3 -4 -12z"/>
<path d="M1595 414 c-18 -19 -19 -36 -3 -52 19 -19 26 -14 24 21 -1 22 3 32
14 32 10 0 15 -10 15 -32 0 -18 3 -33 6 -33 14 0 31 31 25 45 -3 8 -1 15 4 15
6 0 10 4 10 8 0 15 -79 11 -95 -4z"/>
<path d="M1727 412 c-20 -22 -22 -73 -5 -90 16 -16 53 -15 66 1 8 10 5 13 -16
12 -25 0 -27 3 -27 39 0 25 5 41 14 44 10 3 13 -2 9 -22 -4 -20 -1 -26 13 -26
23 0 25 23 3 44 -20 21 -37 20 -57 -2z"/>
<path d="M2018 423 c-27 -4 -28 -7 -28 -59 0 -45 3 -54 18 -54 14 0 17 9 17
47 0 28 5 48 13 50 8 3 12 -10 12 -46 0 -43 3 -51 19 -51 16 0 18 6 14 48 -3
26 -6 53 -8 60 -4 12 -8 12 -57 5z"/>
<path d="M2132 418 c-18 -18 -15 -29 15 -60 29 -30 24 -50 -7 -30 -16 10 -20
10 -20 -1 0 -22 58 -20 70 3 10 18 6 25 -21 51 -33 31 -32 52 1 31 11 -7 20
-8 20 -3 0 8 -23 21 -39 21 -4 0 -12 -5 -19 -12z"/>
<path d="M2697 412 c-20 -22 -22 -73 -5 -90 16 -16 53 -15 67 2 9 11 7 12 -12
9 -15 -3 -26 1 -29 9 -10 25 -3 71 11 76 10 3 13 -2 9 -22 -4 -20 -1 -26 13
-26 23 0 25 23 3 44 -20 21 -37 20 -57 -2z"/>
<path d="M185 410 c-8 -13 4 -32 16 -25 12 8 12 35 0 35 -6 0 -13 -4 -16 -10z"/>
<path d="M310 365 c0 -49 2 -55 21 -55 15 0 19 4 15 16 -3 9 -6 33 -6 55 0 28
-4 39 -15 39 -12 0 -15 -13 -15 -55z"/>
<path d="M380 340 c0 -70 2 -80 18 -80 15 0 17 11 17 80 0 70 -2 80 -17 80
-16 0 -18 -10 -18 -80z"/>
<path d="M635 365 c0 -46 3 -55 18 -55 14 0 17 9 17 55 0 46 -3 55 -17 55 -15
0 -18 -9 -18 -55z"/>
<path d="M934 407 c-8 -21 2 -35 16 -21 5 5 6 15 0 24 -8 12 -10 12 -16 -3z"/>
<path d="M1330 368 c4 -41 9 -54 24 -56 14 -3 17 0 12 13 -3 9 -6 34 -6 56 0
31 -4 39 -18 39 -15 0 -17 -7 -12 -52z"/>
<path d="M1390 375 c0 -25 0 -48 0 -52 -1 -5 7 -9 17 -11 16 -2 18 4 15 53 -3
39 -8 55 -18 55 -10 0 -14 -13 -14 -45z"/>
<path d="M1465 410 c-4 -6 -3 -16 3 -22 13 -13 23 4 13 21 -7 10 -10 10 -16 1z"/>
<path d="M2310 365 c0 -46 3 -55 18 -55 14 0 17 8 14 55 -3 39 -8 55 -18 55
-10 0 -14 -14 -14 -55z"/>
<path d="M2470 368 l5 -53 43 -2 42 -1 0 54 c0 41 -4 54 -15 54 -11 0 -15 -12
-15 -44 0 -30 -5 -46 -15 -50 -12 -4 -15 4 -15 44 0 41 -3 50 -18 50 -15 0
-17 -7 -12 -52z"/>
<path d="M1588 333 c-3 -4 -4 -21 -4 -38 1 -22 6 -31 21 -33 15 -2 17 -1 6 6
-31 22 17 43 49 22 13 -9 13 -11 0 -20 -8 -5 -10 -10 -4 -10 18 0 37 28 30 45
-3 9 -18 15 -39 15 -18 0 -38 5 -44 11 -6 6 -13 7 -15 2z"/>
<path d="M486 174 c-4 -19 -10 -43 -13 -52 -3 -9 -3 -14 0 -11 11 10 36 99 27
99 -4 0 -11 -16 -14 -36z"/>
<path d="M2171 194 c0 -11 3 -14 6 -6 3 7 2 16 -1 19 -3 4 -6 -2 -5 -13z"/>
<path d="M1316 159 c-4 -23 -5 -44 -2 -46 2 -2 7 14 11 37 4 23 5 43 2 46 -2
3 -7 -14 -11 -37z"/>
<path d="M1417 183 c-4 -3 -7 -16 -6 -27 0 -19 1 -19 10 3 10 24 8 36 -4 24z"/>
<path d="M2255 180 c-3 -5 -1 -10 4 -10 6 0 11 5 11 10 0 6 -2 10 -4 10 -3 0
-8 -4 -11 -10z"/>
<path d="M1596 148 c-9 -43 -2 -45 11 -3 6 19 8 35 3 35 -4 0 -10 -14 -14 -32z"/>
<path d="M1930 165 c0 -8 2 -15 4 -15 2 0 6 7 10 15 3 8 1 15 -4 15 -6 0 -10
-7 -10 -15z"/>
<path d="M606 144 c-4 -14 -5 -28 -3 -31 3 -2 8 8 11 23 4 14 5 28 3 31 -3 2
-8 -8 -11 -23z"/>
<path d="M646 144 c-4 -14 -5 -29 -2 -31 3 -3 8 7 12 21 3 15 4 29 1 32 -2 3
-8 -7 -11 -22z"/>
<path d="M770 155 c0 -8 2 -15 4 -15 2 0 6 7 10 15 3 8 1 15 -4 15 -6 0 -10
-7 -10 -15z"/>
<path d="M856 155 c-3 -9 -6 -24 -5 -33 0 -9 5 -4 10 12 9 32 6 48 -5 21z"/>
<path d="M975 159 c-4 -6 -5 -12 -2 -15 2 -3 7 2 10 11 7 17 1 20 -8 4z"/>
<path d="M1017 151 c-4 -17 -3 -21 5 -13 5 5 8 16 6 23 -3 8 -7 3 -11 -10z"/>
<path d="M1686 155 c-3 -9 -6 -24 -5 -33 0 -9 5 -4 10 12 9 32 6 48 -5 21z"/>
<path d="M1771 154 c0 -11 3 -14 6 -6 3 7 2 16 -1 19 -3 4 -6 -2 -5 -13z"/>
<path d="M2051 158 c0 -9 -4 -25 -7 -35 -5 -17 -5 -17 6 0 6 10 9 25 7 35 -4
15 -5 15 -6 0z"/>
<path d="M1057 153 c-9 -9 -9 -43 1 -43 4 0 7 11 7 25 0 14 0 25 -1 25 0 0 -4
-3 -7 -7z"/>
<path d="M1444 145 c-3 -8 -4 -20 -2 -27 3 -7 7 -1 10 15 6 29 1 36 -8 12z"/>
<path d="M1491 133 c-10 -26 -10 -27 4 -9 8 11 15 23 15 28 0 15 -7 8 -19 -19z"/>
<path d="M1964 145 c-3 -8 -4 -20 -2 -27 3 -7 7 -1 10 15 6 29 1 36 -8 12z"/>
<path d="M883 135 c-3 -9 -3 -18 -1 -21 3 -3 8 4 11 16 6 23 -1 27 -10 5z"/>
<path d="M1527 131 c-4 -17 -3 -21 5 -13 5 5 8 16 6 23 -3 8 -7 3 -11 -10z"/>
<path d="M1725 139 c-4 -6 -5 -12 -2 -15 2 -3 7 2 10 11 7 17 1 20 -8 4z"/>
<path d="M1802 130 c0 -14 2 -19 5 -12 2 6 2 18 0 25 -3 6 -5 1 -5 -13z"/>
<path d="M2007 131 c-4 -17 -3 -21 5 -13 5 5 8 16 6 23 -3 8 -7 3 -11 -10z"/>
<path d="M2202 130 c0 -14 2 -19 5 -12 2 6 2 18 0 25 -3 6 -5 1 -5 -13z"/>
<path d="M2284 139 c-3 -6 -2 -15 3 -20 5 -5 9 -1 9 11 0 23 -2 24 -12 9z"/>
<path d="M811 124 c0 -11 3 -14 6 -6 3 7 2 16 -1 19 -3 4 -6 -2 -5 -13z"/>
<path d="M931 124 c0 -11 3 -14 6 -6 3 7 2 16 -1 19 -3 4 -6 -2 -5 -13z"/>
<path d="M1641 124 c0 -11 3 -14 6 -6 3 7 2 16 -1 19 -3 4 -6 -2 -5 -13z"/>
<path d="M2151 124 c0 -11 3 -14 6 -6 3 7 2 16 -1 19 -3 4 -6 -2 -5 -13z"/>
<path d="M550 120 c0 -5 5 -10 11 -10 5 0 7 5 4 10 -3 6 -8 10 -11 10 -2 0 -4
-4 -4 -10z"/>
<path d="M735 110 c3 -4 14 -10 25 -13 11 -3 18 -2 15 3 -3 4 -14 10 -25 13
-11 3 -18 2 -15 -3z"/>
<path d="M987 109 c7 -7 15 -10 18 -7 3 3 -2 9 -12 12 -14 6 -15 5 -6 -5z"/>
</g>
</svg>
