<svg width="438" height="84" viewBox="0 0 438 84" fill="none" xmlns="http://www.w3.org/2000/svg">
<path d="M39.0892 54.3087H100.615V83.1838H0V54.3087H28.2835L67.2248 33.4445H0V4.56934H100.615V33.4445L39.0892 54.3087Z" fill="#141216"/>
<path d="M66.89 4.56934H0V33.4445H66.89V4.56934Z" fill="#6300FF"/>
<path d="M100.608 54.3098H39.4008V83.1849H100.608V54.3098Z" fill="#FF4400"/>
<path d="M130.908 75.2981V64.0486L151.351 40.5763C154.707 36.7383 157.19 34.0212 158.802 32.4097C157.12 32.5109 154.917 32.581 152.177 32.6121L132.916 32.7133V20.7476H178.016V30.9695L157.159 55.01L149.818 62.9742C153.827 62.7329 156.303 62.6161 157.268 62.6161H179.611V75.3059H130.923L130.908 75.2981Z" fill="#141216"/>
<path d="M214.59 57.9371L228.969 60.3504C227.116 65.621 224.205 69.6381 220.211 72.3941C216.225 75.15 211.227 76.528 205.24 76.528C195.758 76.528 188.736 73.4295 184.181 67.2325C180.585 62.2656 178.786 55.9986 178.786 48.4314C178.786 39.3928 181.145 32.3083 185.871 27.1935C190.596 22.0786 196.567 19.5173 203.8 19.5173C211.912 19.5173 218.319 22.1954 223.014 27.5594C227.708 32.9156 229.95 41.1289 229.74 52.1916H193.578C193.679 56.4734 194.847 59.8055 197.074 62.18C199.3 64.5622 202.072 65.7533 205.396 65.7533C207.654 65.7533 209.553 65.1383 211.095 63.9005C212.636 62.6704 213.796 60.6852 214.59 57.9448V57.9371ZM215.415 43.3477C215.314 39.1671 214.232 35.9907 212.177 33.8187C210.121 31.6466 207.622 30.5567 204.68 30.5567C201.527 30.5567 198.926 31.7011 196.871 33.9977C194.816 36.2943 193.804 39.4084 193.843 43.3477H215.415Z" fill="#141216"/>
<path d="M245.98 37.392L232.885 35.0254C234.356 29.7548 236.894 25.8467 240.483 23.3165C244.08 20.7863 249.421 19.5173 256.505 19.5173C262.943 19.5173 267.739 20.2803 270.884 21.8062C274.037 23.3321 276.248 25.2628 277.533 27.6139C278.817 29.9572 279.456 34.2624 279.456 40.5295L279.3 57.3765C279.3 62.1722 279.534 65.7066 279.993 67.9799C280.452 70.2609 281.316 72.6977 282.585 75.2979H268.307C267.934 74.3404 267.467 72.9157 266.922 71.0317C266.68 70.1753 266.509 69.6148 266.408 69.3345C263.94 71.7323 261.309 73.5307 258.498 74.7296C255.688 75.9285 252.69 76.528 249.506 76.528C243.893 76.528 239.463 75.0021 236.233 71.9581C232.994 68.9141 231.382 65.0605 231.382 60.4049C231.382 57.322 232.122 54.5739 233.593 52.1605C235.065 49.7471 237.128 47.8942 239.783 46.6174C242.437 45.3329 246.26 44.2118 251.266 43.2543C258.008 41.9853 262.686 40.8097 265.287 39.712V38.2718C265.287 35.5002 264.602 33.5228 263.231 32.3395C261.861 31.1561 259.277 30.5645 255.477 30.5645C252.908 30.5645 250.908 31.0705 249.467 32.0826C248.027 33.0946 246.867 34.8619 245.972 37.3998L245.98 37.392ZM265.294 49.1009C263.442 49.7159 260.514 50.4555 256.513 51.3119C252.511 52.1683 249.888 53.0091 248.658 53.8265C246.774 55.1578 245.832 56.8549 245.832 58.9102C245.832 60.9655 246.587 62.6782 248.089 64.1496C249.6 65.621 251.515 66.3606 253.843 66.3606C256.443 66.3606 258.926 65.5042 261.293 63.7915C263.037 62.4914 264.189 60.8954 264.734 59.0114C265.108 57.7814 265.302 55.438 265.302 51.9736V49.0931L265.294 49.1009Z" fill="#141216"/>
<path d="M286.766 75.298V0H301.2V27.1157C305.653 22.0475 310.924 19.5174 317.019 19.5174C323.66 19.5174 329.156 21.923 333.508 26.7342C337.86 31.5454 340.032 38.4509 340.032 47.4583C340.032 56.4657 337.813 63.9472 333.384 68.9764C328.946 74.0056 323.567 76.528 317.23 76.528C314.115 76.528 311.04 75.7495 308.012 74.1925C304.983 72.6355 302.368 70.331 300.18 67.2871V75.298H286.774H286.766ZM301.099 46.8432C301.099 52.4953 301.986 56.6681 303.769 59.3773C306.268 63.2154 309.592 65.1306 313.734 65.1306C316.918 65.1306 319.635 63.7682 321.877 61.0434C324.119 58.3186 325.24 54.0289 325.24 48.1745C325.24 41.9464 324.112 37.4466 321.854 34.6906C319.596 31.9347 316.7 30.5567 313.173 30.5567C309.647 30.5567 306.836 31.9035 304.548 34.5894C302.251 37.2753 301.106 41.3625 301.106 46.8432H301.099Z" fill="#141216"/>
<path d="M381.231 75.2981V67.1315C379.246 70.0431 376.638 72.3398 373.399 74.0136C370.16 75.6952 366.75 76.5282 363.154 76.5282C359.557 76.5282 356.202 75.7263 353.29 74.1148C350.378 72.5032 348.276 70.2455 346.968 67.3339C345.668 64.4223 345.014 60.3973 345.014 55.2669V20.7476H359.448V45.8157C359.448 53.4841 359.713 58.1863 360.242 59.9147C360.771 61.643 361.737 63.0131 363.146 64.0252C364.547 65.0373 366.33 65.5433 368.487 65.5433C370.954 65.5433 373.158 64.866 375.112 63.5114C377.066 62.1568 378.397 60.483 379.121 58.4822C379.837 56.4814 380.203 51.5768 380.203 43.7683V20.7476H394.637V75.2981H381.231Z" fill="#141216"/>
<path d="M417.089 75.2979H402.655V20.7474H416.061V28.5014C418.358 24.8346 420.421 22.4212 422.251 21.2612C424.08 20.0934 426.159 19.5173 428.494 19.5173C431.78 19.5173 434.948 20.4282 438 22.2421L433.531 34.8229C431.102 33.2503 428.837 32.4563 426.75 32.4563C424.664 32.4563 423.021 33.0168 421.612 34.1223C420.211 35.2356 419.105 37.2441 418.296 40.1558C417.494 43.0674 417.089 49.1632 417.089 58.4431V75.2902V75.2979Z" fill="#141216"/>
</svg>
