<svg width="24" height="24" viewBox="0 0 24 24" fill="none" xmlns="http://www.w3.org/2000/svg">
<circle cx="12" cy="12" r="11.5" fill="white" stroke="#0E5A7E"/>
<path fill-rule="evenodd" clip-rule="evenodd" d="M10.1123 23.344V15.0283H7.26367V11.7579H10.1123V9.73236C10.1124 9.72049 10.1125 9.70841 10.1126 9.69613C10.1197 8.77808 10.1358 6.70556 11.8945 5.64436C13.2457 4.82676 15.4662 4.94461 16.7517 5.15085V8.0677C16.6284 8.0677 16.4879 8.06439 16.3364 8.06083C15.5274 8.04181 14.4006 8.01532 13.8593 8.44335C13.403 8.79633 13.4495 10.5463 13.4724 11.4085C13.4763 11.5539 13.4795 11.674 13.4795 11.7579H16.6787L16.2477 15.0283H13.4356V23.4103C13.4149 23.4129 13.3941 23.4155 13.3733 23.418H10.6272C10.4544 23.3971 10.2827 23.3725 10.1123 23.344Z" fill="#0E5A7E"/>
</svg>
