<svg width="24" height="24" viewBox="0 0 24 24" fill="none" xmlns="http://www.w3.org/2000/svg">
<circle cx="12" cy="12" r="11.5" fill="white" stroke="#0E5A7E"/>
<path d="M12 8.8125C11.3696 8.8125 10.7533 8.99944 10.2291 9.34969C9.70494 9.69994 9.29639 10.1978 9.05513 10.7802C8.81388 11.3626 8.75076 12.0035 8.87375 12.6219C8.99674 13.2402 9.30032 13.8081 9.7461 14.2539C10.1919 14.6997 10.7598 15.0033 11.3781 15.1263C11.9965 15.2492 12.6374 15.1861 13.2198 14.9449C13.8022 14.7036 14.3001 14.2951 14.6503 13.7709C15.0006 13.2467 15.1875 12.6304 15.1875 12C15.1866 11.1549 14.8505 10.3446 14.2529 9.74707C13.6554 9.14949 12.8451 8.81338 12 8.8125ZM12 14.125C11.5797 14.125 11.1689 14.0004 10.8194 13.7669C10.47 13.5334 10.1976 13.2015 10.0368 12.8132C9.87592 12.4249 9.83384 11.9976 9.91583 11.5854C9.99782 11.1732 10.2002 10.7946 10.4974 10.4974C10.7946 10.2002 11.1732 9.99782 11.5854 9.91583C11.9976 9.83384 12.4249 9.87592 12.8132 10.0368C13.2015 10.1976 13.5334 10.47 13.7669 10.8194C14.0004 11.1689 14.125 11.5797 14.125 12C14.125 12.5636 13.9011 13.1041 13.5026 13.5026C13.1041 13.9011 12.5636 14.125 12 14.125ZM15.1875 5.09375H8.8125C7.82655 5.0948 6.88128 5.48694 6.18411 6.18411C5.48694 6.88128 5.0948 7.82655 5.09375 8.8125V15.1875C5.0948 16.1735 5.48694 17.1187 6.18411 17.8159C6.88128 18.5131 7.82655 18.9052 8.8125 18.9062H15.1875C16.1735 18.9052 17.1187 18.5131 17.8159 17.8159C18.5131 17.1187 18.9052 16.1735 18.9062 15.1875V8.8125C18.9052 7.82655 18.5131 6.88128 17.8159 6.18411C17.1187 5.48694 16.1735 5.0948 15.1875 5.09375ZM17.8438 15.1875C17.8438 15.892 17.5639 16.5676 17.0658 17.0658C16.5676 17.5639 15.892 17.8438 15.1875 17.8438H8.8125C8.10802 17.8438 7.43239 17.5639 6.93425 17.0658C6.4361 16.5676 6.15625 15.892 6.15625 15.1875V8.8125C6.15625 8.10802 6.4361 7.43239 6.93425 6.93425C7.43239 6.4361 8.10802 6.15625 8.8125 6.15625H15.1875C15.892 6.15625 16.5676 6.4361 17.0658 6.93425C17.5639 7.43239 17.8438 8.10802 17.8438 8.8125V15.1875ZM16.25 8.54688C16.25 8.70448 16.2033 8.85855 16.1157 8.98959C16.0281 9.12064 15.9037 9.22278 15.7581 9.28309C15.6125 9.34341 15.4522 9.35919 15.2977 9.32844C15.1431 9.29769 15.0011 9.2218 14.8896 9.11035C14.7782 8.99891 14.7023 8.85692 14.6716 8.70234C14.6408 8.54776 14.6566 8.38753 14.7169 8.24192C14.7772 8.09631 14.8794 7.97186 15.0104 7.8843C15.1415 7.79674 15.2955 7.75 15.4531 7.75C15.6645 7.75 15.8672 7.83396 16.0166 7.9834C16.166 8.13284 16.25 8.33553 16.25 8.54688Z" fill="#0E5A7E"/>
</svg>
