<svg width="24" height="24" viewBox="0 0 24 24" fill="none" xmlns="http://www.w3.org/2000/svg">
<circle cx="12" cy="12" r="11.5" fill="white" stroke="#0E5A7E"/>
<path d="M11.17 16.4382L11.1696 16.4382C7.54796 16.2638 5.5 13.6385 5.5 11.2454C5.5 8.43394 8.31425 6 12 6C15.6866 6 18.4992 8.43435 18.4934 11.2377V11.2388C18.4934 12.567 17.9025 13.6488 16.96 14.6491C16.0909 15.5715 14.9615 16.3859 13.7813 17.2369C13.6643 17.3213 13.5468 17.406 13.429 17.4912L13.4279 17.492C13.3582 17.5427 13.2791 17.6033 13.1927 17.6696C12.9398 17.8634 12.6243 18.1053 12.2987 18.2868C12.099 18.3982 11.9453 18.4566 11.8432 18.4738C11.8457 18.4533 11.849 18.4298 11.8534 18.4031C11.8663 18.3244 11.8848 18.2367 11.907 18.1337L11.9117 18.1117C11.9318 18.0184 11.9544 17.9137 11.9729 17.8105C12.0089 17.6099 12.0512 17.3131 11.973 17.0458C11.9291 16.896 11.8424 16.7361 11.6838 16.6148C11.5273 16.495 11.3451 16.4468 11.17 16.4382ZM11.8378 18.5723C11.8382 18.5747 11.8383 18.5761 11.8383 18.5761C11.8382 18.5762 11.838 18.5749 11.8378 18.5723ZM9.90986 13.503H10.0352H10.6592H10.6784H11.1592H11.1784H11.9671H12.4671V13.1039L12.5525 13.2524L12.6967 13.503H12.9859H13.7746H13.8333H14.2746H14.3333H16.5089H17.0089V13.003V12.2774V12.1382V11.7774V11.6382V10.9791V10.9732V10.4791V10.4732V9.78079V9.28079H16.5089H14.3333H14.2746H13.8333H13.7746H12.9859H12.4859V9.69146L12.3941 9.53166L12.2499 9.28079H11.9606H11.1784H11.1592H10.6784H10.6592H9.90986H9.40986V9.78079V11.7108H8.78639V9.78079V9.28079H8.28639H7.48451H6.98451V9.78079V13.003V13.503H7.48451H9.40986H9.53521H9.90986Z" fill="#0E5A7E" stroke="#0E5A7E"/>
</svg>
