<svg width="24" height="24" viewBox="0 0 24 24" fill="none" xmlns="http://www.w3.org/2000/svg">
<circle cx="12" cy="12" r="11.5" fill="#757575"/>
<circle cx="12" cy="12" r="11.5" fill="#A7A7A7"/>
<circle cx="12" cy="12" r="11.5" fill="#CDCDCD"/>
<circle cx="12" cy="12" r="11.5" fill="#E4E2E2"/>
<circle cx="12" cy="12" r="11.5" fill="#F6F6F6"/>
<circle cx="12" cy="12" r="11.5" fill="white"/>
<circle cx="12" cy="12" r="11.5" stroke="#0E5A7E"/>
<path d="M12.0417 7.00064C14.0828 7.00064 16.1245 6.99998 18.1656 7.00195C18.3343 7.00195 18.5045 7.01832 18.6726 7.03732C18.7726 7.04846 18.8972 7.06352 18.9333 7.16374C18.9734 7.27444 18.8516 7.33273 18.7829 7.39889C17.9022 8.24977 17.0195 9.09867 16.1381 9.94758C14.9675 11.0742 13.7976 12.2022 12.6263 13.3281C12.2064 13.7316 11.9097 13.7336 11.4966 13.336C9.45073 11.3677 7.40695 9.39933 5.36452 7.42902C5.27945 7.34715 5.11951 7.26985 5.15831 7.15129C5.21003 6.99409 5.40536 7.01767 5.54352 7.01112C5.87224 6.99474 6.20164 7.00129 6.53036 7.00129C8.36725 7.00064 10.2041 7.00064 12.0417 7.00064Z" fill="#0E5A7E"/>
<path d="M12.0037 17.4881C9.94019 17.4881 7.87735 17.4894 5.81383 17.4868C5.59128 17.4868 5.27072 17.5588 5.18497 17.3649C5.09173 17.1553 5.40548 17.0256 5.55521 16.8802C6.95993 15.5165 8.37826 14.1652 9.77957 12.7988C9.99191 12.5918 10.1199 12.5852 10.3206 12.8007C10.6078 13.1093 10.9236 13.3922 11.2326 13.6817C11.7356 14.1534 12.3549 14.1619 12.8646 13.6962C13.2015 13.3883 13.5296 13.0706 13.8501 12.747C13.9992 12.5964 14.1067 12.5839 14.2666 12.7385C15.7775 14.2005 17.2925 15.6586 18.8116 17.1134C19.0239 17.3171 18.9436 17.4069 18.6999 17.4448C18.5332 17.471 18.3624 17.4855 18.1936 17.4855C16.1301 17.4887 14.0672 17.4881 12.0037 17.4881Z" fill="#0E5A7E"/>
<path d="M4.50265 12.2387C4.50265 10.8959 4.50129 9.55378 4.50401 8.21098C4.50469 7.96207 4.45365 7.62474 4.69729 7.52517C4.92053 7.43347 5.06481 7.75574 5.22474 7.90771C6.64239 9.25967 8.04575 10.626 9.46681 11.9747C9.69548 12.1922 9.67506 12.3167 9.45864 12.5223C7.95932 13.9503 6.47157 15.3894 4.97837 16.8232C4.90283 16.8959 4.83886 17.0269 4.70955 16.9883C4.57479 16.9477 4.55778 16.8049 4.5394 16.6889C4.51558 16.5389 4.50469 16.3857 4.50401 16.2337C4.50129 14.902 4.50265 13.5704 4.50265 12.2387Z" fill="#0E5A7E"/>
<path d="M19.4955 12.2579C19.4955 13.621 19.4969 14.9847 19.4942 16.3478C19.4935 16.5509 19.5466 16.8247 19.3356 16.9085C19.1525 16.9812 19.0341 16.7238 18.9048 16.6C17.4899 15.2474 16.0872 13.8836 14.6675 12.5356C14.4388 12.3181 14.4211 12.1904 14.66 11.9637C16.1124 10.5856 17.5477 9.19104 18.9926 7.80501C19.0919 7.71004 19.1804 7.52205 19.3301 7.57379C19.5105 7.63536 19.4908 7.84563 19.4914 8.0048C19.4955 9.42292 19.4935 10.8404 19.4935 12.2585C19.4948 12.2579 19.4955 12.2579 19.4955 12.2579Z" fill="#0E5A7E"/>
</svg>
