<svg width="24" height="24" viewBox="0 0 24 24" fill="none" xmlns="http://www.w3.org/2000/svg">
<circle cx="12" cy="12" r="11.5" fill="white" stroke="#0E5A7E"/>
<path d="M5 13.813C5 12.3112 5 10.8095 5 9.30804C5.02794 9.05948 5.05013 8.80973 5.08493 8.56206C5.20958 7.67562 5.6364 7.06328 6.44348 6.78027C6.9955 6.58665 7.56396 6.50172 8.13599 6.50083C10.8282 6.49667 13.5201 6.50855 16.2122 6.52696C16.6996 6.53023 17.1801 6.62823 17.6409 6.81175C18.214 7.03952 18.6072 7.45884 18.797 8.09494C18.943 8.58404 18.9858 9.09095 18.9899 9.59787C19.0014 10.9458 19.0047 12.2943 18.9913 13.6422C18.9852 14.2486 18.917 14.8518 18.7252 15.43C18.5181 16.0545 18.1513 16.5195 17.5856 16.7901C16.9864 17.0763 16.3478 17.1524 15.706 17.1562C13.4099 17.1693 11.1139 17.1642 8.81759 17.1666C8.18804 17.1672 7.56205 17.1316 6.95112 16.9495C6.38869 16.782 5.89584 16.4952 5.55148 15.9627C5.28135 15.5452 5.15533 15.0691 5.08465 14.5735C5.04876 14.3214 5.02767 14.0666 5 13.813ZM10.3896 11.7642C10.3896 12.2976 10.3852 12.8306 10.3909 13.364C10.3956 13.8053 10.7282 14.0289 11.0854 13.8284C12.0421 13.2918 12.9968 12.751 13.9491 12.2052C14.0332 12.1571 14.114 12.0752 14.1633 11.9872C14.3066 11.7319 14.2066 11.45 13.9263 11.2921C12.9952 10.7664 12.0632 10.242 11.1312 9.71844C10.7172 9.48592 10.3904 9.7024 10.3896 10.209C10.3887 10.7272 10.3896 11.2457 10.3896 11.7642Z" fill="#0E5A7E"/>
</svg>
