<svg width="495" height="279" viewBox="0 0 495 279" fill="none" xmlns="http://www.w3.org/2000/svg">
<path d="M114.74 35.668H135.008V38.296H114.74V35.668ZM113.516 24.544H136.448V39.808H133.604V27.136H116.252V39.88H113.516V24.544ZM120.752 6.652L123.704 7.696C121.544 11.872 118.52 16.84 116.108 20.008L113.768 19C116.144 15.796 119.096 10.504 120.752 6.652ZM129.392 12.484L131.516 10.9C135.188 13.816 139.436 18.064 141.308 21.052L139.004 22.852C137.204 19.864 133.1 15.508 129.392 12.484ZM109.268 17.812C116.108 17.632 127.196 17.164 137.456 16.696L137.312 19.288C127.196 19.828 116.324 20.296 109.448 20.584L109.268 17.812ZM166.544 7.552H172.808V9.136H166.544V7.552ZM166.328 13.312H173.024V14.824H166.328V13.312ZM166.328 15.976H173.024V17.488H166.328V15.976ZM160.892 32.644H179.468V34.48H160.892V32.644ZM165.248 10.396H173.96V12.052H165.248V10.396ZM168.02 20.296V22.672H171.224V20.296H168.02ZM166.256 18.784H173.06V24.184H166.256V18.784ZM161.612 29.08H177.128V27.208H159.488V25.444H179.648V30.844H161.612V29.08ZM160.568 16.552H162.476V24.796H160.568V16.552ZM157.076 15.868C159.128 15.796 161.72 15.688 164.564 15.544L164.528 17.236C161.936 17.452 159.452 17.596 157.292 17.74L157.076 15.868ZM160.856 29.08H163.376C162.836 31.312 162.116 33.868 161.504 35.596L159.056 35.2C159.704 33.508 160.388 31.06 160.856 29.08ZM178.676 32.644H181.232C181.232 32.644 181.196 33.4 181.052 33.76C180.368 36.856 179.648 38.44 178.676 39.196C177.92 39.736 177.164 39.844 175.94 39.88C174.896 39.88 172.7 39.88 170.396 39.736C170.36 39.124 170.036 38.224 169.64 37.648C171.944 37.864 174.32 37.9 175.22 37.9C176.012 37.9 176.408 37.864 176.768 37.612C177.488 37.108 178.064 35.74 178.676 32.968V32.644ZM163.124 19.108L164.636 18.784C165.032 20.008 165.428 21.628 165.572 22.636L163.988 23.068C163.844 21.988 163.484 20.368 163.124 19.108ZM162.944 14.356L164.276 13.816C164.924 14.968 165.572 16.552 165.788 17.596L164.312 18.208C164.132 17.128 163.556 15.544 162.944 14.356ZM157.436 11.368L158.444 9.964C159.776 10.864 161.216 12.16 161.9 13.024L160.748 14.644C160.1 13.672 158.66 12.304 157.436 11.368ZM160.748 6.688L162.512 7.516C161.612 9.1 160.676 10.864 159.812 11.98L158.444 11.332C159.2 10.072 160.244 8.02 160.748 6.688ZM162.98 9.64L164.672 10.576C163.196 12.772 161.36 15.436 159.848 17.128L158.552 16.336C160.028 14.608 161.936 11.656 162.98 9.64ZM158.228 18.676L159.992 19.036C159.632 20.908 159.02 22.888 158.264 24.22C157.904 24.004 157.076 23.644 156.608 23.464C157.436 22.096 157.904 20.368 158.228 18.676ZM177.308 16.552H179.216V24.796H177.308V16.552ZM173.672 15.868C175.832 15.796 178.604 15.688 181.664 15.544L181.628 17.236C178.784 17.452 176.12 17.596 173.852 17.74L173.672 15.868ZM180.08 19.072L181.628 18.64C182.24 20.116 182.888 22.024 183.176 23.284L181.52 23.788C181.304 22.528 180.692 20.548 180.08 19.072ZM179.648 14.284L181.052 13.6C181.88 14.788 182.672 16.408 183.032 17.488L181.484 18.244C181.196 17.128 180.404 15.472 179.648 14.284ZM173.816 11.296L174.86 9.928C176.156 10.828 177.524 12.088 178.172 12.988L177.02 14.536C176.336 13.564 175.004 12.232 173.816 11.296ZM177.272 6.724L179 7.588C178.1 9.136 177.02 10.9 176.192 12.052L174.788 11.368C175.616 10.144 176.696 8.092 177.272 6.724ZM179.792 9.496L181.52 10.432C179.972 12.628 177.956 15.292 176.336 16.984L175.04 16.192C176.588 14.464 178.676 11.512 179.792 9.496ZM174.86 18.676L176.624 19.036C176.3 20.872 175.688 22.852 174.968 24.148C174.608 23.896 173.852 23.5 173.348 23.32C174.14 21.988 174.572 20.296 174.86 18.676ZM150.488 8.992L152.072 7.228C153.872 8.272 156.104 9.856 157.184 11.08L155.492 13.096C154.484 11.836 152.324 10.144 150.488 8.992ZM149.696 18.676L151.208 16.804C153.08 17.74 155.384 19.252 156.5 20.404L154.916 22.456C153.836 21.304 151.532 19.684 149.696 18.676ZM150.38 38.044C151.712 35.236 153.584 30.556 154.916 26.524L157.04 27.928C155.852 31.672 154.232 36.136 152.792 39.448L150.38 38.044ZM212.732 13.456H224.36V15.976H212.732V13.456ZM213.452 6.76L216.08 7.156C215.036 13.996 213.308 20.62 210.608 24.904C210.212 24.436 209.168 23.464 208.556 23.032C211.112 19.108 212.624 12.988 213.452 6.76ZM219.824 14.788L222.38 15.04C220.904 26.992 217.736 34.948 209.924 39.988C209.672 39.412 208.88 38.296 208.412 37.756C215.72 33.436 218.6 25.768 219.824 14.788ZM214.064 15.724C215.432 25.588 218.42 34.156 224.54 37.792C223.928 38.296 223.1 39.268 222.668 39.916C216.296 35.74 213.308 26.848 211.76 16.084L214.064 15.724ZM199.556 6.76H201.968V25.66H199.556V6.76ZM195.992 10.864V16.876H205.82V10.864H195.992ZM193.688 8.956H208.196V18.784H193.688V8.956ZM195.128 22.276V24.616H206.648V22.276H195.128ZM192.788 20.44H209.06V26.452H192.788V20.44ZM191.24 28.756C196.1 28.756 203.66 28.648 210.968 28.504L210.86 30.556C203.696 30.736 196.244 30.844 191.312 30.916L191.24 28.756ZM198.44 25.876L200.744 26.416C199.232 29.332 197.18 32.932 195.74 35.272L193.508 34.624C194.984 32.32 197.036 28.648 198.44 25.876ZM195.56 33.976L196.892 32.356C201.104 33.796 205.532 35.848 208.16 37.612L206.432 39.304C203.948 37.54 199.736 35.488 195.56 33.976ZM204.92 29.62L207.26 30.016C205.82 35.884 201.356 38.62 193.148 40.024C193.004 39.34 192.536 38.44 192.104 37.9C199.556 37 203.588 34.696 204.92 29.62ZM191.204 12.808H194.66V12.952H207.08V12.808H210.752V14.896H207.08V14.752H194.66V14.896H191.204V12.808ZM252.404 7.192H255.104V15.4H252.404V7.192ZM243.008 13.852H265.004V16.444H243.008V13.852ZM245.996 19.252L248.408 18.856C249.776 23.644 251.036 29.8 251.324 33.364L248.66 33.94C248.408 30.34 247.292 24.076 245.996 19.252ZM259.136 18.532L262.016 19.036C260.684 24.796 258.596 32.176 256.904 36.64L254.492 36.064C256.184 31.528 258.164 23.896 259.136 18.532ZM242.108 35.632H265.904V38.224H242.108V35.632ZM241.136 6.868L243.692 7.696C241.244 13.744 237.392 19.792 233.432 23.752C233.144 23.14 232.388 21.7 231.884 21.052C235.52 17.668 239.048 12.304 241.136 6.868ZM237.392 16.156L239.948 13.6L239.984 13.636V39.808H237.392V16.156ZM275.444 9.1L276.992 7.192C279.008 8.128 281.456 9.676 282.68 10.864L281.06 12.988C279.908 11.764 277.46 10.108 275.444 9.1ZM273.932 18.82L275.444 16.804C277.568 17.632 280.16 19.072 281.42 20.152L279.908 22.348C278.612 21.232 276.092 19.72 273.932 18.82ZM274.58 38.044C275.912 35.2 277.784 30.484 279.08 26.416L281.276 27.82C280.088 31.6 278.432 36.064 277.028 39.412L274.58 38.044ZM296.576 11.584H307.196V14.14H296.576V11.584ZM295.892 18.064H305.288V20.476H295.892V18.064ZM294.128 26.56H307.232V29.044H294.128V26.56ZM297.116 6.796L299.708 7.264C298.844 11.8 297.296 16.228 295.316 19.108C294.848 18.712 293.66 18.064 293.012 17.74C295.028 15.076 296.396 10.972 297.116 6.796ZM299.528 23.176H302.048V36.928C302.048 38.332 301.796 39.088 300.788 39.484C299.744 39.916 298.124 39.952 295.712 39.952C295.64 39.232 295.244 38.188 294.956 37.432C296.756 37.504 298.376 37.504 298.916 37.468C299.42 37.468 299.528 37.324 299.528 36.892V23.176ZM304.28 18.064H304.856L305.36 17.884L306.98 19.036C305.54 21.304 303.416 23.752 301.544 25.336C301.184 24.832 300.464 24.112 300.032 23.752C301.616 22.42 303.38 20.188 304.28 18.532V18.064ZM281.816 12.592H294.488V15.184H281.816V12.592ZM286.064 20.296H292.004V22.78H286.064V20.296ZM287.144 6.796H289.736V14.284H287.144V6.796ZM290.96 20.296H293.444C293.444 20.296 293.444 21.16 293.444 21.556C293.156 33.436 292.868 37.432 291.968 38.656C291.392 39.448 290.78 39.7 289.844 39.808C289.016 39.916 287.612 39.916 286.172 39.844C286.1 39.088 285.884 38.044 285.452 37.396C286.892 37.504 288.188 37.504 288.728 37.504C289.232 37.504 289.52 37.432 289.772 37.036C290.42 36.172 290.744 32.284 290.96 20.836V20.296ZM285.2 14.464H287.72C287.504 24.292 286.964 34.228 281.708 39.844C281.312 39.304 280.448 38.548 279.8 38.152C284.66 33.076 285.056 23.5 285.2 14.464ZM333.836 6.76L336.464 7.264C335.06 13.42 332.648 19.288 329.696 23.176C329.264 22.672 328.184 21.7 327.608 21.232C330.452 17.74 332.576 12.34 333.836 6.76ZM343.232 14.752L345.932 15.148C343.664 27.928 338.84 35.488 328.724 39.952C328.4 39.376 327.5 38.224 326.924 37.684C336.788 33.796 341.252 26.632 343.232 14.752ZM333.152 13.888H348.38V16.48H332.324L333.152 13.888ZM333.764 15.868C335.816 26.38 340.316 34.372 348.956 37.648C348.38 38.188 347.552 39.232 347.156 39.952C338.192 36.1 333.692 27.784 331.388 16.3L333.764 15.868ZM315.296 27.28C318.68 26.38 323.864 24.832 328.76 23.356L329.12 25.732C324.512 27.244 319.58 28.72 315.908 29.872L315.296 27.28ZM322.172 6.796H324.764V39.88H322.172V6.796ZM317.564 8.704L319.904 9.1C319.4 14.068 318.464 19.216 317.132 22.564C316.664 22.24 315.62 21.628 315.08 21.34C316.448 18.136 317.168 13.348 317.564 8.704ZM317.744 14.068H328.868V16.66H317.312L317.744 14.068ZM357.344 18.352H389.42V20.764H357.344V18.352ZM360.512 11.296H381.356V13.708H360.512V11.296ZM366.344 30.412H383.3V32.572H366.344V30.412ZM366.344 36.388H383.3V38.728H366.344V36.388ZM369.764 6.76H372.392V19.648H369.764V6.76ZM385.532 8.02L387.836 9.244C380.6 18.712 369.764 25.804 358.244 30.232C357.92 29.62 357.056 28.504 356.516 27.964C368.144 23.932 378.872 16.948 385.532 8.02ZM364.868 24.58H385.028V39.772H382.22V26.848H367.568V39.916H364.868V24.58ZM399.032 17.128H430.676V19.864H399.032V17.128ZM416.564 18.208C418.904 26.92 423.8 34.192 431.288 37.288C430.604 37.9 429.704 39.052 429.236 39.808C421.46 36.136 416.564 28.54 413.864 18.856L416.564 18.208ZM413.396 6.796H416.312C416.168 16.228 416.096 32.644 400.364 39.844C399.932 39.124 399.068 38.152 398.312 37.612C413.612 30.952 413.324 15.436 413.396 6.796ZM446.372 19.072V24.508H466.136V19.072H446.372ZM444.068 17.236H468.584V26.344H444.068V17.236ZM449.972 13.348H462.536V15.256H449.972V13.348ZM454.904 17.812H457.208V25.336H454.904V17.812ZM456.02 8.956C452.816 12.232 446.804 15.904 440.828 18.136C440.504 17.524 439.892 16.588 439.388 16.012C445.508 13.924 451.592 10.252 454.58 6.76H457.136C461.204 10.684 467.468 13.996 473.048 15.652C472.472 16.228 471.86 17.2 471.464 17.884C466.172 16.048 459.692 12.484 456.02 8.956ZM448.568 20.152L450.512 19.504C451.448 20.764 452.312 22.456 452.672 23.608L450.584 24.364C450.296 23.212 449.468 21.448 448.568 20.152ZM461.528 19.36L463.832 20.08C463.004 21.628 462.104 23.284 461.384 24.364L459.476 23.716C460.16 22.492 461.096 20.584 461.528 19.36ZM446.192 28.072H466.532V39.844H463.796V29.98H448.856V39.88H446.192V28.072ZM447.776 32.392H464.984V34.372H447.776V32.392ZM447.776 36.82H464.984V38.764H447.776V36.82Z" fill="black"/>
<path d="M124.6 48.0859C124.6 48.2096 124.593 48.3171 124.58 48.4082C124.567 48.4993 124.544 48.5742 124.512 48.6328C124.486 48.6849 124.45 48.724 124.404 48.75C124.365 48.776 124.32 48.7891 124.268 48.7891H120.713V59.7461C120.713 59.7982 120.7 59.8438 120.674 59.8828C120.648 59.9219 120.602 59.9544 120.537 59.9805C120.472 60 120.384 60.0163 120.273 60.0293C120.169 60.0488 120.036 60.0586 119.873 60.0586C119.717 60.0586 119.583 60.0488 119.473 60.0293C119.362 60.0163 119.274 60 119.209 59.9805C119.144 59.9544 119.098 59.9219 119.072 59.8828C119.046 59.8438 119.033 59.7982 119.033 59.7461V48.7891H115.479C115.426 48.7891 115.378 48.776 115.332 48.75C115.293 48.724 115.26 48.6849 115.234 48.6328C115.208 48.5742 115.186 48.4993 115.166 48.4082C115.153 48.3171 115.146 48.2096 115.146 48.0859C115.146 47.9622 115.153 47.8548 115.166 47.7637C115.186 47.666 115.208 47.5879 115.234 47.5293C115.26 47.4707 115.293 47.4284 115.332 47.4023C115.378 47.3763 115.426 47.3633 115.479 47.3633H124.268C124.32 47.3633 124.365 47.3763 124.404 47.4023C124.45 47.4284 124.486 47.4707 124.512 47.5293C124.544 47.5879 124.567 47.666 124.58 47.7637C124.593 47.8548 124.6 47.9622 124.6 48.0859ZM132.299 59.7656C132.299 59.8438 132.273 59.9023 132.221 59.9414C132.169 59.9805 132.097 60.0098 132.006 60.0293C131.915 60.0488 131.781 60.0586 131.605 60.0586C131.436 60.0586 131.299 60.0488 131.195 60.0293C131.098 60.0098 131.026 59.9805 130.98 59.9414C130.935 59.9023 130.912 59.8438 130.912 59.7656V58.8867C130.528 59.2969 130.098 59.6159 129.623 59.8438C129.154 60.0716 128.656 60.1855 128.129 60.1855C127.667 60.1855 127.247 60.1237 126.869 60C126.498 59.8828 126.179 59.7103 125.912 59.4824C125.652 59.2546 125.447 58.9746 125.297 58.6426C125.154 58.3105 125.082 57.9329 125.082 57.5098C125.082 57.015 125.183 56.5853 125.385 56.2207C125.587 55.8561 125.876 55.5534 126.254 55.3125C126.632 55.0716 127.094 54.8926 127.641 54.7754C128.188 54.6517 128.803 54.5898 129.486 54.5898H130.697V53.9062C130.697 53.5677 130.661 53.2682 130.59 53.0078C130.518 52.7474 130.401 52.5326 130.238 52.3633C130.082 52.1875 129.877 52.0573 129.623 51.9727C129.369 51.8815 129.057 51.8359 128.686 51.8359C128.288 51.8359 127.93 51.8848 127.611 51.9824C127.299 52.0736 127.022 52.1777 126.781 52.2949C126.547 52.4056 126.348 52.5098 126.186 52.6074C126.029 52.6986 125.912 52.7441 125.834 52.7441C125.782 52.7441 125.736 52.7311 125.697 52.7051C125.658 52.679 125.622 52.64 125.59 52.5879C125.564 52.5358 125.544 52.4707 125.531 52.3926C125.518 52.3079 125.512 52.2168 125.512 52.1191C125.512 51.9564 125.521 51.8294 125.541 51.7383C125.567 51.6406 125.622 51.5495 125.707 51.4648C125.798 51.3802 125.951 51.2826 126.166 51.1719C126.381 51.0547 126.628 50.9505 126.908 50.8594C127.188 50.7617 127.494 50.6836 127.826 50.625C128.158 50.5599 128.493 50.5273 128.832 50.5273C129.464 50.5273 130.001 50.599 130.443 50.7422C130.886 50.8854 131.244 51.097 131.518 51.377C131.791 51.6504 131.99 51.9922 132.113 52.4023C132.237 52.8125 132.299 53.291 132.299 53.8379V59.7656ZM130.697 55.752H129.32C128.878 55.752 128.493 55.791 128.168 55.8691C127.842 55.9408 127.572 56.0514 127.357 56.2012C127.143 56.3444 126.983 56.5202 126.879 56.7285C126.781 56.9303 126.732 57.1647 126.732 57.4316C126.732 57.8874 126.876 58.252 127.162 58.5254C127.455 58.7923 127.862 58.9258 128.383 58.9258C128.806 58.9258 129.197 58.8184 129.555 58.6035C129.919 58.3887 130.3 58.0599 130.697 57.6172V55.752ZM137.879 59.7559C137.879 59.8079 137.866 59.8535 137.84 59.8926C137.814 59.9251 137.771 59.9544 137.713 59.9805C137.654 60.0065 137.573 60.026 137.469 60.0391C137.365 60.0521 137.231 60.0586 137.068 60.0586C136.912 60.0586 136.782 60.0521 136.678 60.0391C136.574 60.026 136.489 60.0065 136.424 59.9805C136.365 59.9544 136.323 59.9251 136.297 59.8926C136.277 59.8535 136.268 59.8079 136.268 59.7559V50.9668C136.268 50.9212 136.277 50.8789 136.297 50.8398C136.323 50.8008 136.365 50.7682 136.424 50.7422C136.489 50.7161 136.574 50.6966 136.678 50.6836C136.782 50.6706 136.912 50.6641 137.068 50.6641C137.231 50.6641 137.365 50.6706 137.469 50.6836C137.573 50.6966 137.654 50.7161 137.713 50.7422C137.771 50.7682 137.814 50.8008 137.84 50.8398C137.866 50.8789 137.879 50.9212 137.879 50.9668V59.7559ZM138.064 47.998C138.064 48.3757 137.993 48.6328 137.85 48.7695C137.706 48.9062 137.443 48.9746 137.059 48.9746C136.681 48.9746 136.421 48.9095 136.277 48.7793C136.141 48.6426 136.072 48.3887 136.072 48.0176C136.072 47.64 136.144 47.3828 136.287 47.2461C136.43 47.1094 136.694 47.041 137.078 47.041C137.456 47.041 137.713 47.1094 137.85 47.2461C137.993 47.3763 138.064 47.627 138.064 47.998ZM154.152 50.9473C154.152 50.9928 154.146 51.0482 154.133 51.1133C154.12 51.1784 154.097 51.2598 154.064 51.3574L151.477 59.707C151.457 59.7786 151.424 59.8372 151.379 59.8828C151.34 59.9284 151.281 59.9642 151.203 59.9902C151.132 60.0163 151.031 60.0326 150.9 60.0391C150.77 60.0521 150.607 60.0586 150.412 60.0586C150.21 60.0586 150.041 60.0521 149.904 60.0391C149.768 60.026 149.657 60.0065 149.572 59.9805C149.494 59.9544 149.436 59.9186 149.396 59.873C149.357 59.8275 149.328 59.7721 149.309 59.707L147.463 53.3301L147.443 53.2422L147.424 53.3301L145.715 59.707C145.695 59.7786 145.663 59.8372 145.617 59.8828C145.578 59.9284 145.516 59.9642 145.432 59.9902C145.347 60.0163 145.236 60.0326 145.1 60.0391C144.969 60.0521 144.807 60.0586 144.611 60.0586C144.41 60.0586 144.243 60.0521 144.113 60.0391C143.99 60.026 143.885 60.0065 143.801 59.9805C143.723 59.9544 143.664 59.9186 143.625 59.873C143.586 59.8275 143.557 59.7721 143.537 59.707L140.969 51.3574C140.936 51.2598 140.913 51.1784 140.9 51.1133C140.887 51.0482 140.881 50.9928 140.881 50.9473C140.881 50.8887 140.894 50.8431 140.92 50.8105C140.946 50.7715 140.988 50.7422 141.047 50.7227C141.112 50.6966 141.197 50.6803 141.301 50.6738C141.405 50.6673 141.532 50.6641 141.682 50.6641C141.864 50.6641 142.01 50.6706 142.121 50.6836C142.232 50.6901 142.316 50.7064 142.375 50.7324C142.434 50.752 142.476 50.7845 142.502 50.8301C142.528 50.8691 142.551 50.918 142.57 50.9766L144.689 58.2227L144.709 58.3105L144.729 58.2227L146.672 50.9766C146.685 50.918 146.704 50.8691 146.73 50.8301C146.763 50.7845 146.809 50.752 146.867 50.7324C146.926 50.7064 147.004 50.6901 147.102 50.6836C147.206 50.6706 147.339 50.6641 147.502 50.6641C147.658 50.6641 147.785 50.6706 147.883 50.6836C147.987 50.6901 148.068 50.7064 148.127 50.7324C148.186 50.752 148.228 50.7812 148.254 50.8203C148.28 50.8594 148.299 50.9049 148.312 50.957L150.412 58.2227L150.432 58.3105L150.441 58.2227L152.531 50.9766C152.544 50.918 152.564 50.8691 152.59 50.8301C152.622 50.7845 152.668 50.752 152.727 50.7324C152.792 50.7064 152.876 50.6901 152.98 50.6836C153.091 50.6706 153.231 50.6641 153.4 50.6641C153.557 50.6641 153.68 50.6673 153.771 50.6738C153.869 50.6803 153.944 50.6966 153.996 50.7227C154.055 50.7487 154.094 50.778 154.113 50.8105C154.139 50.8431 154.152 50.8887 154.152 50.9473ZM163.541 59.7656C163.541 59.8438 163.515 59.9023 163.463 59.9414C163.411 59.9805 163.339 60.0098 163.248 60.0293C163.157 60.0488 163.023 60.0586 162.848 60.0586C162.678 60.0586 162.542 60.0488 162.438 60.0293C162.34 60.0098 162.268 59.9805 162.223 59.9414C162.177 59.9023 162.154 59.8438 162.154 59.7656V58.8867C161.77 59.2969 161.34 59.6159 160.865 59.8438C160.396 60.0716 159.898 60.1855 159.371 60.1855C158.909 60.1855 158.489 60.1237 158.111 60C157.74 59.8828 157.421 59.7103 157.154 59.4824C156.894 59.2546 156.689 58.9746 156.539 58.6426C156.396 58.3105 156.324 57.9329 156.324 57.5098C156.324 57.015 156.425 56.5853 156.627 56.2207C156.829 55.8561 157.118 55.5534 157.496 55.3125C157.874 55.0716 158.336 54.8926 158.883 54.7754C159.43 54.6517 160.045 54.5898 160.729 54.5898H161.939V53.9062C161.939 53.5677 161.904 53.2682 161.832 53.0078C161.76 52.7474 161.643 52.5326 161.48 52.3633C161.324 52.1875 161.119 52.0573 160.865 51.9727C160.611 51.8815 160.299 51.8359 159.928 51.8359C159.531 51.8359 159.173 51.8848 158.854 51.9824C158.541 52.0736 158.264 52.1777 158.023 52.2949C157.789 52.4056 157.59 52.5098 157.428 52.6074C157.271 52.6986 157.154 52.7441 157.076 52.7441C157.024 52.7441 156.979 52.7311 156.939 52.7051C156.9 52.679 156.865 52.64 156.832 52.5879C156.806 52.5358 156.786 52.4707 156.773 52.3926C156.76 52.3079 156.754 52.2168 156.754 52.1191C156.754 51.9564 156.764 51.8294 156.783 51.7383C156.809 51.6406 156.865 51.5495 156.949 51.4648C157.04 51.3802 157.193 51.2826 157.408 51.1719C157.623 51.0547 157.87 50.9505 158.15 50.8594C158.43 50.7617 158.736 50.6836 159.068 50.625C159.4 50.5599 159.736 50.5273 160.074 50.5273C160.706 50.5273 161.243 50.599 161.686 50.7422C162.128 50.8854 162.486 51.097 162.76 51.377C163.033 51.6504 163.232 51.9922 163.355 52.4023C163.479 52.8125 163.541 53.291 163.541 53.8379V59.7656ZM161.939 55.752H160.562C160.12 55.752 159.736 55.791 159.41 55.8691C159.085 55.9408 158.814 56.0514 158.6 56.2012C158.385 56.3444 158.225 56.5202 158.121 56.7285C158.023 56.9303 157.975 57.1647 157.975 57.4316C157.975 57.8874 158.118 58.252 158.404 58.5254C158.697 58.7923 159.104 58.9258 159.625 58.9258C160.048 58.9258 160.439 58.8184 160.797 58.6035C161.161 58.3887 161.542 58.0599 161.939 57.6172V55.752ZM175.078 59.7559C175.078 59.8079 175.065 59.8535 175.039 59.8926C175.013 59.9251 174.971 59.9544 174.912 59.9805C174.854 60.0065 174.772 60.026 174.668 60.0391C174.564 60.0521 174.434 60.0586 174.277 60.0586C174.115 60.0586 173.981 60.0521 173.877 60.0391C173.773 60.026 173.691 60.0065 173.633 59.9805C173.574 59.9544 173.532 59.9251 173.506 59.8926C173.48 59.8535 173.467 59.8079 173.467 59.7559V54.6094C173.467 54.1081 173.428 53.7044 173.35 53.3984C173.271 53.0924 173.158 52.8288 173.008 52.6074C172.858 52.3861 172.663 52.2168 172.422 52.0996C172.188 51.9824 171.914 51.9238 171.602 51.9238C171.198 51.9238 170.794 52.0671 170.391 52.3535C169.987 52.64 169.564 53.0599 169.121 53.6133V59.7559C169.121 59.8079 169.108 59.8535 169.082 59.8926C169.056 59.9251 169.014 59.9544 168.955 59.9805C168.896 60.0065 168.815 60.026 168.711 60.0391C168.607 60.0521 168.473 60.0586 168.311 60.0586C168.154 60.0586 168.024 60.0521 167.92 60.0391C167.816 60.026 167.731 60.0065 167.666 59.9805C167.607 59.9544 167.565 59.9251 167.539 59.8926C167.52 59.8535 167.51 59.8079 167.51 59.7559V50.9668C167.51 50.9147 167.52 50.8724 167.539 50.8398C167.559 50.8008 167.598 50.7682 167.656 50.7422C167.715 50.7096 167.79 50.6901 167.881 50.6836C167.972 50.6706 168.092 50.6641 168.242 50.6641C168.385 50.6641 168.503 50.6706 168.594 50.6836C168.691 50.6901 168.766 50.7096 168.818 50.7422C168.87 50.7682 168.906 50.8008 168.926 50.8398C168.952 50.8724 168.965 50.9147 168.965 50.9668V52.1289C169.46 51.5755 169.951 51.1719 170.439 50.918C170.934 50.6576 171.432 50.5273 171.934 50.5273C172.52 50.5273 173.011 50.6283 173.408 50.8301C173.812 51.0254 174.137 51.2891 174.385 51.6211C174.632 51.9531 174.808 52.3438 174.912 52.793C175.023 53.2357 175.078 53.7695 175.078 54.3945V59.7559ZM194.451 53.4961C194.451 54.5898 194.311 55.5469 194.031 56.3672C193.751 57.181 193.341 57.8581 192.801 58.3984C192.267 58.9323 191.609 59.3327 190.828 59.5996C190.047 59.8665 189.116 60 188.035 60H185.359C185.21 60 185.066 59.9512 184.93 59.8535C184.799 59.7493 184.734 59.5703 184.734 59.3164V48.0469C184.734 47.793 184.799 47.6172 184.93 47.5195C185.066 47.4154 185.21 47.3633 185.359 47.3633H188.221C189.314 47.3633 190.239 47.5065 190.994 47.793C191.749 48.0729 192.381 48.4798 192.889 49.0137C193.403 49.541 193.79 50.1823 194.051 50.9375C194.318 51.6927 194.451 52.5456 194.451 53.4961ZM192.684 53.5645C192.684 52.8809 192.599 52.2461 192.43 51.6602C192.26 51.0677 191.993 50.5566 191.629 50.127C191.271 49.6973 190.815 49.362 190.262 49.1211C189.708 48.8802 188.995 48.7598 188.123 48.7598H186.414V58.5938H188.143C188.95 58.5938 189.63 58.4928 190.184 58.291C190.737 58.0892 191.199 57.7799 191.57 57.3633C191.941 56.9466 192.218 56.4258 192.4 55.8008C192.589 55.1693 192.684 54.4238 192.684 53.5645ZM199.465 59.7559C199.465 59.8079 199.452 59.8535 199.426 59.8926C199.4 59.9251 199.357 59.9544 199.299 59.9805C199.24 60.0065 199.159 60.026 199.055 60.0391C198.951 60.0521 198.817 60.0586 198.654 60.0586C198.498 60.0586 198.368 60.0521 198.264 60.0391C198.16 60.026 198.075 60.0065 198.01 59.9805C197.951 59.9544 197.909 59.9251 197.883 59.8926C197.863 59.8535 197.854 59.8079 197.854 59.7559V50.9668C197.854 50.9212 197.863 50.8789 197.883 50.8398C197.909 50.8008 197.951 50.7682 198.01 50.7422C198.075 50.7161 198.16 50.6966 198.264 50.6836C198.368 50.6706 198.498 50.6641 198.654 50.6641C198.817 50.6641 198.951 50.6706 199.055 50.6836C199.159 50.6966 199.24 50.7161 199.299 50.7422C199.357 50.7682 199.4 50.8008 199.426 50.8398C199.452 50.8789 199.465 50.9212 199.465 50.9668V59.7559ZM199.65 47.998C199.65 48.3757 199.579 48.6328 199.436 48.7695C199.292 48.9062 199.029 48.9746 198.645 48.9746C198.267 48.9746 198.007 48.9095 197.863 48.7793C197.727 48.6426 197.658 48.3887 197.658 48.0176C197.658 47.64 197.73 47.3828 197.873 47.2461C198.016 47.1094 198.28 47.041 198.664 47.041C199.042 47.041 199.299 47.1094 199.436 47.2461C199.579 47.3763 199.65 47.627 199.65 47.998ZM210.787 51.3672C210.787 51.5951 210.755 51.7611 210.689 51.8652C210.631 51.9629 210.553 52.0117 210.455 52.0117H209.195C209.423 52.2461 209.583 52.5065 209.674 52.793C209.765 53.0729 209.811 53.3659 209.811 53.6719C209.811 54.1797 209.729 54.6289 209.566 55.0195C209.404 55.4102 209.169 55.7422 208.863 56.0156C208.564 56.2826 208.206 56.4876 207.789 56.6309C207.372 56.7741 206.91 56.8457 206.402 56.8457C206.044 56.8457 205.702 56.8001 205.377 56.709C205.058 56.6113 204.811 56.4909 204.635 56.3477C204.518 56.4648 204.42 56.5983 204.342 56.748C204.27 56.8978 204.234 57.0703 204.234 57.2656C204.234 57.4935 204.339 57.6823 204.547 57.832C204.762 57.9818 205.045 58.0632 205.396 58.0762L207.691 58.1738C208.128 58.1868 208.528 58.2487 208.893 58.3594C209.257 58.4635 209.573 58.6165 209.84 58.8184C210.107 59.0137 210.315 59.2578 210.465 59.5508C210.615 59.8372 210.689 60.1725 210.689 60.5566C210.689 60.9603 210.605 61.3444 210.436 61.709C210.266 62.0736 210.006 62.3926 209.654 62.666C209.309 62.946 208.867 63.1641 208.326 63.3203C207.786 63.4831 207.148 63.5645 206.412 63.5645C205.702 63.5645 205.097 63.5026 204.596 63.3789C204.101 63.2617 203.694 63.099 203.375 62.8906C203.056 62.6823 202.825 62.4316 202.682 62.1387C202.538 61.8522 202.467 61.5397 202.467 61.2012C202.467 60.9863 202.493 60.778 202.545 60.5762C202.597 60.3743 202.675 60.1823 202.779 60C202.89 59.8177 203.023 59.6452 203.18 59.4824C203.342 59.3132 203.528 59.1471 203.736 58.9844C203.417 58.8216 203.18 58.6165 203.023 58.3691C202.874 58.1217 202.799 57.8548 202.799 57.5684C202.799 57.1712 202.88 56.8164 203.043 56.5039C203.206 56.1914 203.408 55.9115 203.648 55.6641C203.447 55.4232 203.287 55.153 203.17 54.8535C203.053 54.5475 202.994 54.1797 202.994 53.75C202.994 53.2487 203.079 52.7995 203.248 52.4023C203.417 52.0052 203.652 51.6699 203.951 51.3965C204.251 51.123 204.609 50.9147 205.025 50.7715C205.449 50.6217 205.908 50.5469 206.402 50.5469C206.669 50.5469 206.917 50.5632 207.145 50.5957C207.379 50.6217 207.597 50.6608 207.799 50.7129H210.455C210.566 50.7129 210.647 50.7682 210.699 50.8789C210.758 50.9831 210.787 51.1458 210.787 51.3672ZM208.268 53.6816C208.268 53.0827 208.102 52.6172 207.77 52.2852C207.444 51.9466 206.979 51.7773 206.373 51.7773C206.061 51.7773 205.787 51.8294 205.553 51.9336C205.325 52.0378 205.133 52.181 204.977 52.3633C204.827 52.5456 204.713 52.7572 204.635 52.998C204.563 53.2324 204.527 53.4798 204.527 53.7402C204.527 54.3197 204.69 54.7754 205.016 55.1074C205.348 55.4395 205.81 55.6055 206.402 55.6055C206.721 55.6055 206.998 55.5566 207.232 55.459C207.467 55.3548 207.659 55.2148 207.809 55.0391C207.965 54.8568 208.079 54.6484 208.15 54.4141C208.229 54.1797 208.268 53.9355 208.268 53.6816ZM209.078 60.6445C209.078 60.2669 208.922 59.9772 208.609 59.7754C208.303 59.5671 207.887 59.4564 207.359 59.4434L205.084 59.3652C204.876 59.528 204.703 59.6842 204.566 59.834C204.436 59.9772 204.332 60.1139 204.254 60.2441C204.176 60.3809 204.12 60.5143 204.088 60.6445C204.062 60.7747 204.049 60.9082 204.049 61.0449C204.049 61.4681 204.264 61.7871 204.693 62.002C205.123 62.2233 205.722 62.334 206.49 62.334C206.979 62.334 207.385 62.2852 207.711 62.1875C208.043 62.0964 208.31 61.9727 208.512 61.8164C208.714 61.6602 208.857 61.4811 208.941 61.2793C209.033 61.0775 209.078 60.8659 209.078 60.6445ZM215.469 59.7559C215.469 59.8079 215.456 59.8535 215.43 59.8926C215.404 59.9251 215.361 59.9544 215.303 59.9805C215.244 60.0065 215.163 60.026 215.059 60.0391C214.954 60.0521 214.821 60.0586 214.658 60.0586C214.502 60.0586 214.372 60.0521 214.268 60.0391C214.163 60.026 214.079 60.0065 214.014 59.9805C213.955 59.9544 213.913 59.9251 213.887 59.8926C213.867 59.8535 213.857 59.8079 213.857 59.7559V50.9668C213.857 50.9212 213.867 50.8789 213.887 50.8398C213.913 50.8008 213.955 50.7682 214.014 50.7422C214.079 50.7161 214.163 50.6966 214.268 50.6836C214.372 50.6706 214.502 50.6641 214.658 50.6641C214.821 50.6641 214.954 50.6706 215.059 50.6836C215.163 50.6966 215.244 50.7161 215.303 50.7422C215.361 50.7682 215.404 50.8008 215.43 50.8398C215.456 50.8789 215.469 50.9212 215.469 50.9668V59.7559ZM215.654 47.998C215.654 48.3757 215.583 48.6328 215.439 48.7695C215.296 48.9062 215.033 48.9746 214.648 48.9746C214.271 48.9746 214.01 48.9095 213.867 48.7793C213.73 48.6426 213.662 48.3887 213.662 48.0176C213.662 47.64 213.734 47.3828 213.877 47.2461C214.02 47.1094 214.284 47.041 214.668 47.041C215.046 47.041 215.303 47.1094 215.439 47.2461C215.583 47.3763 215.654 47.627 215.654 47.998ZM224.018 59.1113C224.018 59.3001 224.005 59.4499 223.979 59.5605C223.952 59.6712 223.913 59.7526 223.861 59.8047C223.809 59.8568 223.731 59.9056 223.627 59.9512C223.523 59.9967 223.402 60.0326 223.266 60.0586C223.135 60.0911 222.995 60.1172 222.846 60.1367C222.696 60.1562 222.546 60.166 222.396 60.166C221.941 60.166 221.55 60.1074 221.225 59.9902C220.899 59.8665 220.632 59.6842 220.424 59.4434C220.215 59.196 220.062 58.8867 219.965 58.5156C219.874 58.138 219.828 57.6953 219.828 57.1875V52.0508H218.598C218.5 52.0508 218.422 51.9987 218.363 51.8945C218.305 51.7904 218.275 51.6211 218.275 51.3867C218.275 51.263 218.282 51.1589 218.295 51.0742C218.314 50.9896 218.337 50.9212 218.363 50.8691C218.389 50.8105 218.422 50.7715 218.461 50.752C218.507 50.7259 218.555 50.7129 218.607 50.7129H219.828V48.623C219.828 48.5775 219.838 48.5352 219.857 48.4961C219.883 48.457 219.926 48.4245 219.984 48.3984C220.049 48.3659 220.134 48.3431 220.238 48.3301C220.342 48.3171 220.473 48.3105 220.629 48.3105C220.792 48.3105 220.925 48.3171 221.029 48.3301C221.133 48.3431 221.215 48.3659 221.273 48.3984C221.332 48.4245 221.374 48.457 221.4 48.4961C221.426 48.5352 221.439 48.5775 221.439 48.623V50.7129H223.695C223.747 50.7129 223.793 50.7259 223.832 50.752C223.871 50.7715 223.904 50.8105 223.93 50.8691C223.962 50.9212 223.985 50.9896 223.998 51.0742C224.011 51.1589 224.018 51.263 224.018 51.3867C224.018 51.6211 223.988 51.7904 223.93 51.8945C223.871 51.9987 223.793 52.0508 223.695 52.0508H221.439V56.9531C221.439 57.5586 221.527 58.0176 221.703 58.3301C221.885 58.6361 222.208 58.7891 222.67 58.7891C222.82 58.7891 222.953 58.776 223.07 58.75C223.188 58.7174 223.292 58.6849 223.383 58.6523C223.474 58.6198 223.552 58.5905 223.617 58.5645C223.682 58.5319 223.741 58.5156 223.793 58.5156C223.826 58.5156 223.855 58.5254 223.881 58.5449C223.913 58.5579 223.936 58.5872 223.949 58.6328C223.969 58.6784 223.985 58.7402 223.998 58.8184C224.011 58.8965 224.018 58.9941 224.018 59.1113ZM233.514 59.7656C233.514 59.8438 233.488 59.9023 233.436 59.9414C233.383 59.9805 233.312 60.0098 233.221 60.0293C233.13 60.0488 232.996 60.0586 232.82 60.0586C232.651 60.0586 232.514 60.0488 232.41 60.0293C232.312 60.0098 232.241 59.9805 232.195 59.9414C232.15 59.9023 232.127 59.8438 232.127 59.7656V58.8867C231.743 59.2969 231.313 59.6159 230.838 59.8438C230.369 60.0716 229.871 60.1855 229.344 60.1855C228.882 60.1855 228.462 60.1237 228.084 60C227.713 59.8828 227.394 59.7103 227.127 59.4824C226.867 59.2546 226.661 58.9746 226.512 58.6426C226.368 58.3105 226.297 57.9329 226.297 57.5098C226.297 57.015 226.398 56.5853 226.6 56.2207C226.801 55.8561 227.091 55.5534 227.469 55.3125C227.846 55.0716 228.309 54.8926 228.855 54.7754C229.402 54.6517 230.018 54.5898 230.701 54.5898H231.912V53.9062C231.912 53.5677 231.876 53.2682 231.805 53.0078C231.733 52.7474 231.616 52.5326 231.453 52.3633C231.297 52.1875 231.092 52.0573 230.838 51.9727C230.584 51.8815 230.271 51.8359 229.9 51.8359C229.503 51.8359 229.145 51.8848 228.826 51.9824C228.514 52.0736 228.237 52.1777 227.996 52.2949C227.762 52.4056 227.563 52.5098 227.4 52.6074C227.244 52.6986 227.127 52.7441 227.049 52.7441C226.997 52.7441 226.951 52.7311 226.912 52.7051C226.873 52.679 226.837 52.64 226.805 52.5879C226.779 52.5358 226.759 52.4707 226.746 52.3926C226.733 52.3079 226.727 52.2168 226.727 52.1191C226.727 51.9564 226.736 51.8294 226.756 51.7383C226.782 51.6406 226.837 51.5495 226.922 51.4648C227.013 51.3802 227.166 51.2826 227.381 51.1719C227.596 51.0547 227.843 50.9505 228.123 50.8594C228.403 50.7617 228.709 50.6836 229.041 50.625C229.373 50.5599 229.708 50.5273 230.047 50.5273C230.678 50.5273 231.215 50.599 231.658 50.7422C232.101 50.8854 232.459 51.097 232.732 51.377C233.006 51.6504 233.204 51.9922 233.328 52.4023C233.452 52.8125 233.514 53.291 233.514 53.8379V59.7656ZM231.912 55.752H230.535C230.092 55.752 229.708 55.791 229.383 55.8691C229.057 55.9408 228.787 56.0514 228.572 56.2012C228.357 56.3444 228.198 56.5202 228.094 56.7285C227.996 56.9303 227.947 57.1647 227.947 57.4316C227.947 57.8874 228.09 58.252 228.377 58.5254C228.67 58.7923 229.077 58.9258 229.598 58.9258C230.021 58.9258 230.411 58.8184 230.77 58.6035C231.134 58.3887 231.515 58.0599 231.912 57.6172V55.752ZM239.094 59.7559C239.094 59.8079 239.081 59.8535 239.055 59.8926C239.029 59.9251 238.986 59.9544 238.928 59.9805C238.869 60.0065 238.788 60.026 238.684 60.0391C238.579 60.0521 238.446 60.0586 238.283 60.0586C238.127 60.0586 237.997 60.0521 237.893 60.0391C237.788 60.026 237.704 60.0065 237.639 59.9805C237.58 59.9544 237.538 59.9251 237.512 59.8926C237.492 59.8535 237.482 59.8079 237.482 59.7559V46.709C237.482 46.6569 237.492 46.6113 237.512 46.5723C237.538 46.5332 237.58 46.5007 237.639 46.4746C237.704 46.4486 237.788 46.429 237.893 46.416C237.997 46.403 238.127 46.3965 238.283 46.3965C238.446 46.3965 238.579 46.403 238.684 46.416C238.788 46.429 238.869 46.4486 238.928 46.4746C238.986 46.5007 239.029 46.5332 239.055 46.5723C239.081 46.6113 239.094 46.6569 239.094 46.709V59.7559ZM258.34 59.3066C258.34 59.4368 258.317 59.5475 258.271 59.6387C258.232 59.7298 258.177 59.8047 258.105 59.8633C258.04 59.9219 257.965 59.9642 257.881 59.9902C257.796 60.0163 257.712 60.0293 257.627 60.0293H257.09C256.921 60.0293 256.771 60.013 256.641 59.9805C256.517 59.9414 256.396 59.8763 256.279 59.7852C256.169 59.6875 256.055 59.5573 255.938 59.3945C255.827 59.2318 255.703 59.0234 255.566 58.7695L251.582 51.582C251.374 51.2109 251.162 50.8236 250.947 50.4199C250.739 50.0098 250.544 49.6126 250.361 49.2285H250.342C250.355 49.6973 250.365 50.1758 250.371 50.6641C250.378 51.1523 250.381 51.6374 250.381 52.1191V59.7461C250.381 59.7917 250.368 59.8372 250.342 59.8828C250.316 59.9219 250.27 59.9544 250.205 59.9805C250.146 60 250.065 60.0163 249.961 60.0293C249.863 60.0488 249.736 60.0586 249.58 60.0586C249.424 60.0586 249.294 60.0488 249.189 60.0293C249.092 60.0163 249.014 60 248.955 59.9805C248.896 59.9544 248.854 59.9219 248.828 59.8828C248.802 59.8372 248.789 59.7917 248.789 59.7461V48.0859C248.789 47.8255 248.861 47.64 249.004 47.5293C249.147 47.4186 249.303 47.3633 249.473 47.3633H250.273C250.462 47.3633 250.618 47.3796 250.742 47.4121C250.872 47.4447 250.986 47.5 251.084 47.5781C251.188 47.6497 251.286 47.7539 251.377 47.8906C251.475 48.0208 251.579 48.1868 251.689 48.3887L254.756 53.9355C254.945 54.2741 255.127 54.6061 255.303 54.9316C255.479 55.2507 255.648 55.5664 255.811 55.8789C255.973 56.1914 256.133 56.5007 256.289 56.8066C256.452 57.1061 256.611 57.4089 256.768 57.7148H256.777C256.764 57.2005 256.755 56.6667 256.748 56.1133C256.748 55.5534 256.748 55.0163 256.748 54.502V47.6465C256.748 47.6009 256.761 47.5586 256.787 47.5195C256.813 47.4805 256.855 47.4479 256.914 47.4219C256.979 47.3893 257.061 47.3665 257.158 47.3535C257.262 47.3405 257.396 47.334 257.559 47.334C257.702 47.334 257.826 47.3405 257.93 47.3535C258.034 47.3665 258.115 47.3893 258.174 47.4219C258.232 47.4479 258.275 47.4805 258.301 47.5195C258.327 47.5586 258.34 47.6009 258.34 47.6465V59.3066ZM270.688 55.2637C270.688 55.9798 270.593 56.6406 270.404 57.2461C270.215 57.8451 269.932 58.3626 269.555 58.7988C269.184 59.235 268.715 59.5768 268.148 59.8242C267.589 60.0651 266.938 60.1855 266.195 60.1855C265.473 60.1855 264.841 60.0781 264.301 59.8633C263.767 59.6484 263.321 59.3359 262.963 58.9258C262.605 58.5156 262.338 58.0176 262.162 57.4316C261.986 56.8457 261.898 56.1816 261.898 55.4395C261.898 54.7233 261.99 54.0658 262.172 53.4668C262.361 52.8613 262.641 52.3405 263.012 51.9043C263.389 51.4681 263.858 51.1296 264.418 50.8887C264.978 50.6478 265.632 50.5273 266.381 50.5273C267.104 50.5273 267.732 50.6348 268.266 50.8496C268.806 51.0645 269.255 51.377 269.613 51.7871C269.971 52.1973 270.238 52.6953 270.414 53.2812C270.596 53.8672 270.688 54.528 270.688 55.2637ZM268.988 55.3711C268.988 54.8958 268.943 54.4466 268.852 54.0234C268.767 53.6003 268.624 53.2292 268.422 52.9102C268.22 52.5911 267.947 52.3405 267.602 52.1582C267.257 51.9694 266.827 51.875 266.312 51.875C265.837 51.875 265.427 51.9596 265.082 52.1289C264.743 52.2982 264.464 52.5391 264.242 52.8516C264.021 53.1576 263.855 53.5221 263.744 53.9453C263.64 54.3685 263.588 54.8307 263.588 55.332C263.588 55.8138 263.63 56.2663 263.715 56.6895C263.806 57.1126 263.952 57.4837 264.154 57.8027C264.363 58.1152 264.639 58.3659 264.984 58.5547C265.329 58.737 265.759 58.8281 266.273 58.8281C266.742 58.8281 267.149 58.7435 267.494 58.5742C267.839 58.4049 268.122 58.1673 268.344 57.8613C268.565 57.5553 268.728 57.1908 268.832 56.7676C268.936 56.3444 268.988 55.8789 268.988 55.3711ZM287.098 59.7559C287.098 59.8079 287.085 59.8535 287.059 59.8926C287.033 59.9251 286.99 59.9544 286.932 59.9805C286.873 60.0065 286.792 60.026 286.688 60.0391C286.583 60.0521 286.453 60.0586 286.297 60.0586C286.134 60.0586 286.001 60.0521 285.896 60.0391C285.792 60.026 285.708 60.0065 285.643 59.9805C285.584 59.9544 285.542 59.9251 285.516 59.8926C285.49 59.8535 285.477 59.8079 285.477 59.7559V54.4141C285.477 54.043 285.444 53.7044 285.379 53.3984C285.314 53.0924 285.21 52.8288 285.066 52.6074C284.923 52.3861 284.741 52.2168 284.52 52.0996C284.298 51.9824 284.038 51.9238 283.738 51.9238C283.367 51.9238 282.993 52.0671 282.615 52.3535C282.244 52.64 281.834 53.0599 281.385 53.6133V59.7559C281.385 59.8079 281.372 59.8535 281.346 59.8926C281.32 59.9251 281.274 59.9544 281.209 59.9805C281.15 60.0065 281.069 60.026 280.965 60.0391C280.861 60.0521 280.73 60.0586 280.574 60.0586C280.424 60.0586 280.294 60.0521 280.184 60.0391C280.079 60.026 279.995 60.0065 279.93 59.9805C279.871 59.9544 279.829 59.9251 279.803 59.8926C279.783 59.8535 279.773 59.8079 279.773 59.7559V54.4141C279.773 54.043 279.738 53.7044 279.666 53.3984C279.594 53.0924 279.487 52.8288 279.344 52.6074C279.201 52.3861 279.018 52.2168 278.797 52.0996C278.582 51.9824 278.325 51.9238 278.025 51.9238C277.654 51.9238 277.28 52.0671 276.902 52.3535C276.525 52.64 276.115 53.0599 275.672 53.6133V59.7559C275.672 59.8079 275.659 59.8535 275.633 59.8926C275.607 59.9251 275.564 59.9544 275.506 59.9805C275.447 60.0065 275.366 60.026 275.262 60.0391C275.158 60.0521 275.024 60.0586 274.861 60.0586C274.705 60.0586 274.575 60.0521 274.471 60.0391C274.367 60.026 274.282 60.0065 274.217 59.9805C274.158 59.9544 274.116 59.9251 274.09 59.8926C274.07 59.8535 274.061 59.8079 274.061 59.7559V50.9668C274.061 50.9147 274.07 50.8724 274.09 50.8398C274.109 50.8008 274.148 50.7682 274.207 50.7422C274.266 50.7096 274.34 50.6901 274.432 50.6836C274.523 50.6706 274.643 50.6641 274.793 50.6641C274.936 50.6641 275.053 50.6706 275.145 50.6836C275.242 50.6901 275.317 50.7096 275.369 50.7422C275.421 50.7682 275.457 50.8008 275.477 50.8398C275.503 50.8724 275.516 50.9147 275.516 50.9668V52.1289C276.01 51.5755 276.489 51.1719 276.951 50.918C277.42 50.6576 277.892 50.5273 278.367 50.5273C278.732 50.5273 279.057 50.5697 279.344 50.6543C279.637 50.7389 279.894 50.8594 280.115 51.0156C280.337 51.1654 280.525 51.3477 280.682 51.5625C280.838 51.7708 280.968 52.0052 281.072 52.2656C281.365 51.9466 281.642 51.6764 281.902 51.4551C282.169 51.2337 282.423 51.0547 282.664 50.918C282.911 50.7812 283.149 50.6836 283.377 50.625C283.611 50.5599 283.846 50.5273 284.08 50.5273C284.646 50.5273 285.122 50.6283 285.506 50.8301C285.89 51.0254 286.199 51.2891 286.434 51.6211C286.674 51.9531 286.844 52.3438 286.941 52.793C287.046 53.2357 287.098 53.7044 287.098 54.1992V59.7559ZM297.658 59.7656C297.658 59.8438 297.632 59.9023 297.58 59.9414C297.528 59.9805 297.456 60.0098 297.365 60.0293C297.274 60.0488 297.141 60.0586 296.965 60.0586C296.796 60.0586 296.659 60.0488 296.555 60.0293C296.457 60.0098 296.385 59.9805 296.34 59.9414C296.294 59.9023 296.271 59.8438 296.271 59.7656V58.8867C295.887 59.2969 295.458 59.6159 294.982 59.8438C294.514 60.0716 294.016 60.1855 293.488 60.1855C293.026 60.1855 292.606 60.1237 292.229 60C291.857 59.8828 291.538 59.7103 291.271 59.4824C291.011 59.2546 290.806 58.9746 290.656 58.6426C290.513 58.3105 290.441 57.9329 290.441 57.5098C290.441 57.015 290.542 56.5853 290.744 56.2207C290.946 55.8561 291.236 55.5534 291.613 55.3125C291.991 55.0716 292.453 54.8926 293 54.7754C293.547 54.6517 294.162 54.5898 294.846 54.5898H296.057V53.9062C296.057 53.5677 296.021 53.2682 295.949 53.0078C295.878 52.7474 295.76 52.5326 295.598 52.3633C295.441 52.1875 295.236 52.0573 294.982 51.9727C294.729 51.8815 294.416 51.8359 294.045 51.8359C293.648 51.8359 293.29 51.8848 292.971 51.9824C292.658 52.0736 292.382 52.1777 292.141 52.2949C291.906 52.4056 291.708 52.5098 291.545 52.6074C291.389 52.6986 291.271 52.7441 291.193 52.7441C291.141 52.7441 291.096 52.7311 291.057 52.7051C291.018 52.679 290.982 52.64 290.949 52.5879C290.923 52.5358 290.904 52.4707 290.891 52.3926C290.878 52.3079 290.871 52.2168 290.871 52.1191C290.871 51.9564 290.881 51.8294 290.9 51.7383C290.926 51.6406 290.982 51.5495 291.066 51.4648C291.158 51.3802 291.311 51.2826 291.525 51.1719C291.74 51.0547 291.988 50.9505 292.268 50.8594C292.548 50.7617 292.854 50.6836 293.186 50.625C293.518 50.5599 293.853 50.5273 294.191 50.5273C294.823 50.5273 295.36 50.599 295.803 50.7422C296.245 50.8854 296.604 51.097 296.877 51.377C297.15 51.6504 297.349 51.9922 297.473 52.4023C297.596 52.8125 297.658 53.291 297.658 53.8379V59.7656ZM296.057 55.752H294.68C294.237 55.752 293.853 55.791 293.527 55.8691C293.202 55.9408 292.932 56.0514 292.717 56.2012C292.502 56.3444 292.342 56.5202 292.238 56.7285C292.141 56.9303 292.092 57.1647 292.092 57.4316C292.092 57.8874 292.235 58.252 292.521 58.5254C292.814 58.7923 293.221 58.9258 293.742 58.9258C294.165 58.9258 294.556 58.8184 294.914 58.6035C295.279 58.3887 295.66 58.0599 296.057 57.6172V55.752ZM309.156 59.7559C309.156 59.8079 309.143 59.8535 309.117 59.8926C309.098 59.9316 309.059 59.9642 309 59.9902C308.948 60.0098 308.876 60.026 308.785 60.0391C308.694 60.0521 308.583 60.0586 308.453 60.0586C308.316 60.0586 308.202 60.0521 308.111 60.0391C308.02 60.026 307.945 60.0098 307.887 59.9902C307.828 59.9642 307.786 59.9316 307.76 59.8926C307.734 59.8535 307.721 59.8079 307.721 59.7559V58.5938C307.258 59.0951 306.777 59.4857 306.275 59.7656C305.781 60.0456 305.237 60.1855 304.645 60.1855C304 60.1855 303.45 60.0618 302.994 59.8145C302.538 59.5605 302.167 59.222 301.881 58.7988C301.601 58.3691 301.396 57.8678 301.266 57.2949C301.135 56.7155 301.07 56.1068 301.07 55.4688C301.07 54.7135 301.152 54.0332 301.314 53.4277C301.477 52.8158 301.718 52.2949 302.037 51.8652C302.356 51.4355 302.75 51.1068 303.219 50.8789C303.694 50.6445 304.241 50.5273 304.859 50.5273C305.374 50.5273 305.842 50.6413 306.266 50.8691C306.695 51.0905 307.118 51.4193 307.535 51.8555V46.748C307.535 46.7025 307.545 46.6602 307.564 46.6211C307.59 46.5755 307.636 46.543 307.701 46.5234C307.766 46.4974 307.848 46.4779 307.945 46.4648C308.049 46.4453 308.18 46.4355 308.336 46.4355C308.499 46.4355 308.632 46.4453 308.736 46.4648C308.84 46.4779 308.922 46.4974 308.98 46.5234C309.039 46.543 309.081 46.5755 309.107 46.6211C309.14 46.6602 309.156 46.7025 309.156 46.748V59.7559ZM307.535 53.5742C307.099 53.0339 306.676 52.6237 306.266 52.3438C305.862 52.0573 305.439 51.9141 304.996 51.9141C304.586 51.9141 304.238 52.0117 303.951 52.207C303.665 52.4023 303.43 52.6595 303.248 52.9785C303.072 53.2975 302.942 53.6589 302.857 54.0625C302.779 54.4661 302.74 54.8763 302.74 55.293C302.74 55.7357 302.773 56.1686 302.838 56.5918C302.91 57.015 303.03 57.3926 303.199 57.7246C303.368 58.0501 303.593 58.3138 303.873 58.5156C304.153 58.7109 304.505 58.8086 304.928 58.8086C305.143 58.8086 305.348 58.7793 305.543 58.7207C305.745 58.6621 305.95 58.5645 306.158 58.4277C306.367 58.291 306.585 58.1152 306.812 57.9004C307.04 57.679 307.281 57.4089 307.535 57.0898V53.5742ZM327.289 58.2129C327.289 58.3171 327.286 58.4082 327.279 58.4863C327.273 58.5645 327.26 58.6328 327.24 58.6914C327.227 58.75 327.208 58.8021 327.182 58.8477C327.156 58.8932 327.11 58.9486 327.045 59.0137C326.98 59.0788 326.843 59.1797 326.635 59.3164C326.426 59.4466 326.166 59.5768 325.854 59.707C325.548 59.8307 325.193 59.9349 324.789 60.0195C324.392 60.1107 323.956 60.1562 323.48 60.1562C322.66 60.1562 321.918 60.0195 321.254 59.7461C320.596 59.4727 320.033 59.069 319.564 58.5352C319.102 58.0013 318.744 57.3438 318.49 56.5625C318.243 55.7747 318.119 54.8698 318.119 53.8477C318.119 52.7995 318.253 51.8652 318.52 51.0449C318.793 50.2246 319.174 49.5312 319.662 48.9648C320.15 48.3919 320.733 47.9557 321.41 47.6562C322.094 47.3568 322.849 47.207 323.676 47.207C324.04 47.207 324.395 47.2428 324.74 47.3145C325.085 47.3796 325.404 47.4642 325.697 47.5684C325.99 47.6725 326.251 47.793 326.479 47.9297C326.706 48.0664 326.863 48.1803 326.947 48.2715C327.038 48.3561 327.097 48.4212 327.123 48.4668C327.149 48.5124 327.169 48.5677 327.182 48.6328C327.201 48.6914 327.214 48.763 327.221 48.8477C327.234 48.9323 327.24 49.0332 327.24 49.1504C327.24 49.2806 327.234 49.3913 327.221 49.4824C327.208 49.5736 327.188 49.6517 327.162 49.7168C327.136 49.7754 327.104 49.821 327.064 49.8535C327.032 49.8796 326.99 49.8926 326.938 49.8926C326.846 49.8926 326.719 49.8307 326.557 49.707C326.394 49.5768 326.182 49.4368 325.922 49.2871C325.668 49.1309 325.355 48.9909 324.984 48.8672C324.62 48.737 324.18 48.6719 323.666 48.6719C323.106 48.6719 322.595 48.7858 322.133 49.0137C321.677 49.235 321.286 49.5638 320.961 50C320.635 50.4362 320.382 50.9701 320.199 51.6016C320.023 52.2266 319.936 52.9427 319.936 53.75C319.936 54.5508 320.02 55.2604 320.189 55.8789C320.365 56.4909 320.613 57.0052 320.932 57.4219C321.257 57.832 321.654 58.1445 322.123 58.3594C322.592 58.5677 323.122 58.6719 323.715 58.6719C324.216 58.6719 324.652 58.61 325.023 58.4863C325.401 58.3626 325.72 58.2259 325.98 58.0762C326.247 57.9199 326.465 57.7799 326.635 57.6562C326.804 57.5326 326.938 57.4707 327.035 57.4707C327.081 57.4707 327.12 57.4805 327.152 57.5C327.185 57.5195 327.211 57.5586 327.23 57.6172C327.25 57.6693 327.263 57.7441 327.27 57.8418C327.283 57.9395 327.289 58.0632 327.289 58.2129ZM338.504 55.2637C338.504 55.9798 338.41 56.6406 338.221 57.2461C338.032 57.8451 337.749 58.3626 337.371 58.7988C337 59.235 336.531 59.5768 335.965 59.8242C335.405 60.0651 334.754 60.1855 334.012 60.1855C333.289 60.1855 332.658 60.0781 332.117 59.8633C331.583 59.6484 331.137 59.3359 330.779 58.9258C330.421 58.5156 330.154 58.0176 329.979 57.4316C329.803 56.8457 329.715 56.1816 329.715 55.4395C329.715 54.7233 329.806 54.0658 329.988 53.4668C330.177 52.8613 330.457 52.3405 330.828 51.9043C331.206 51.4681 331.674 51.1296 332.234 50.8887C332.794 50.6478 333.449 50.5273 334.197 50.5273C334.92 50.5273 335.548 50.6348 336.082 50.8496C336.622 51.0645 337.072 51.377 337.43 51.7871C337.788 52.1973 338.055 52.6953 338.23 53.2812C338.413 53.8672 338.504 54.528 338.504 55.2637ZM336.805 55.3711C336.805 54.8958 336.759 54.4466 336.668 54.0234C336.583 53.6003 336.44 53.2292 336.238 52.9102C336.036 52.5911 335.763 52.3405 335.418 52.1582C335.073 51.9694 334.643 51.875 334.129 51.875C333.654 51.875 333.243 51.9596 332.898 52.1289C332.56 52.2982 332.28 52.5391 332.059 52.8516C331.837 53.1576 331.671 53.5221 331.561 53.9453C331.456 54.3685 331.404 54.8307 331.404 55.332C331.404 55.8138 331.447 56.2663 331.531 56.6895C331.622 57.1126 331.769 57.4837 331.971 57.8027C332.179 58.1152 332.456 58.3659 332.801 58.5547C333.146 58.737 333.576 58.8281 334.09 58.8281C334.559 58.8281 334.965 58.7435 335.311 58.5742C335.656 58.4049 335.939 58.1673 336.16 57.8613C336.382 57.5553 336.544 57.1908 336.648 56.7676C336.753 56.3444 336.805 55.8789 336.805 55.3711ZM349.445 59.7559C349.445 59.8079 349.432 59.8535 349.406 59.8926C349.38 59.9251 349.338 59.9544 349.279 59.9805C349.221 60.0065 349.139 60.026 349.035 60.0391C348.931 60.0521 348.801 60.0586 348.645 60.0586C348.482 60.0586 348.348 60.0521 348.244 60.0391C348.14 60.026 348.059 60.0065 348 59.9805C347.941 59.9544 347.899 59.9251 347.873 59.8926C347.847 59.8535 347.834 59.8079 347.834 59.7559V54.6094C347.834 54.1081 347.795 53.7044 347.717 53.3984C347.639 53.0924 347.525 52.8288 347.375 52.6074C347.225 52.3861 347.03 52.2168 346.789 52.0996C346.555 51.9824 346.281 51.9238 345.969 51.9238C345.565 51.9238 345.161 52.0671 344.758 52.3535C344.354 52.64 343.931 53.0599 343.488 53.6133V59.7559C343.488 59.8079 343.475 59.8535 343.449 59.8926C343.423 59.9251 343.381 59.9544 343.322 59.9805C343.264 60.0065 343.182 60.026 343.078 60.0391C342.974 60.0521 342.84 60.0586 342.678 60.0586C342.521 60.0586 342.391 60.0521 342.287 60.0391C342.183 60.026 342.098 60.0065 342.033 59.9805C341.975 59.9544 341.932 59.9251 341.906 59.8926C341.887 59.8535 341.877 59.8079 341.877 59.7559V50.9668C341.877 50.9147 341.887 50.8724 341.906 50.8398C341.926 50.8008 341.965 50.7682 342.023 50.7422C342.082 50.7096 342.157 50.6901 342.248 50.6836C342.339 50.6706 342.46 50.6641 342.609 50.6641C342.753 50.6641 342.87 50.6706 342.961 50.6836C343.059 50.6901 343.133 50.7096 343.186 50.7422C343.238 50.7682 343.273 50.8008 343.293 50.8398C343.319 50.8724 343.332 50.9147 343.332 50.9668V52.1289C343.827 51.5755 344.318 51.1719 344.807 50.918C345.301 50.6576 345.799 50.5273 346.301 50.5273C346.887 50.5273 347.378 50.6283 347.775 50.8301C348.179 51.0254 348.505 51.2891 348.752 51.6211C348.999 51.9531 349.175 52.3438 349.279 52.793C349.39 53.2357 349.445 53.7695 349.445 54.3945V59.7559ZM358.082 47.3535C358.082 47.4772 358.076 47.5781 358.062 47.6562C358.049 47.7279 358.033 47.7865 358.014 47.832C358.001 47.8776 357.981 47.9102 357.955 47.9297C357.929 47.9427 357.896 47.9492 357.857 47.9492C357.812 47.9492 357.753 47.9362 357.682 47.9102C357.617 47.8776 357.535 47.8451 357.438 47.8125C357.34 47.7734 357.223 47.7409 357.086 47.7148C356.956 47.6823 356.803 47.666 356.627 47.666C356.386 47.666 356.181 47.7051 356.012 47.7832C355.842 47.8613 355.706 47.985 355.602 48.1543C355.497 48.3171 355.423 48.5319 355.377 48.7988C355.331 49.0592 355.309 49.3783 355.309 49.7559V50.7129H357.271C357.324 50.7129 357.366 50.7259 357.398 50.752C357.438 50.7715 357.47 50.8105 357.496 50.8691C357.529 50.9212 357.551 50.9896 357.564 51.0742C357.584 51.1589 357.594 51.263 357.594 51.3867C357.594 51.6211 357.564 51.7904 357.506 51.8945C357.447 51.9987 357.369 52.0508 357.271 52.0508H355.309V59.7559C355.309 59.8079 355.296 59.8535 355.27 59.8926C355.243 59.9251 355.198 59.9544 355.133 59.9805C355.074 60.0065 354.993 60.026 354.889 60.0391C354.785 60.0521 354.654 60.0586 354.498 60.0586C354.342 60.0586 354.212 60.0521 354.107 60.0391C354.003 60.026 353.919 60.0065 353.854 59.9805C353.795 59.9544 353.753 59.9251 353.727 59.8926C353.701 59.8535 353.688 59.8079 353.688 59.7559V52.0508H352.447C352.343 52.0508 352.265 51.9987 352.213 51.8945C352.161 51.7904 352.135 51.6211 352.135 51.3867C352.135 51.263 352.141 51.1589 352.154 51.0742C352.167 50.9896 352.187 50.9212 352.213 50.8691C352.239 50.8105 352.271 50.7715 352.311 50.752C352.35 50.7259 352.395 50.7129 352.447 50.7129H353.688V49.8047C353.688 49.1927 353.743 48.6686 353.854 48.2324C353.971 47.7897 354.146 47.4284 354.381 47.1484C354.615 46.8685 354.908 46.6634 355.26 46.5332C355.618 46.3965 356.038 46.3281 356.52 46.3281C356.747 46.3281 356.969 46.3509 357.184 46.3965C357.398 46.4355 357.564 46.4811 357.682 46.5332C357.799 46.5788 357.877 46.6211 357.916 46.6602C357.955 46.6992 357.988 46.7513 358.014 46.8164C358.04 46.875 358.056 46.9499 358.062 47.041C358.076 47.1257 358.082 47.2298 358.082 47.3535ZM367.373 54.9805C367.373 55.2344 367.308 55.4167 367.178 55.5273C367.054 55.6315 366.911 55.6836 366.748 55.6836H360.986C360.986 56.1719 361.035 56.6113 361.133 57.002C361.23 57.3926 361.393 57.7279 361.621 58.0078C361.849 58.2878 362.145 58.5026 362.51 58.6523C362.874 58.8021 363.32 58.877 363.848 58.877C364.264 58.877 364.635 58.8444 364.961 58.7793C365.286 58.7077 365.566 58.6296 365.801 58.5449C366.042 58.4603 366.237 58.3854 366.387 58.3203C366.543 58.2487 366.66 58.2129 366.738 58.2129C366.784 58.2129 366.823 58.2259 366.855 58.252C366.895 58.2715 366.924 58.304 366.943 58.3496C366.963 58.3952 366.976 58.4603 366.982 58.5449C366.995 58.623 367.002 58.7207 367.002 58.8379C367.002 58.9225 366.999 58.9974 366.992 59.0625C366.986 59.1211 366.976 59.1764 366.963 59.2285C366.956 59.2741 366.94 59.3164 366.914 59.3555C366.895 59.3945 366.865 59.4336 366.826 59.4727C366.794 59.5052 366.689 59.5638 366.514 59.6484C366.338 59.7266 366.11 59.8047 365.83 59.8828C365.55 59.9609 365.225 60.0293 364.854 60.0879C364.489 60.153 364.098 60.1855 363.682 60.1855C362.959 60.1855 362.324 60.0846 361.777 59.8828C361.237 59.681 360.781 59.3815 360.41 58.9844C360.039 58.5872 359.759 58.0892 359.57 57.4902C359.382 56.8913 359.287 56.1947 359.287 55.4004C359.287 54.6452 359.385 53.9681 359.58 53.3691C359.775 52.7637 360.055 52.2526 360.42 51.8359C360.791 51.4128 361.237 51.0905 361.758 50.8691C362.279 50.6413 362.861 50.5273 363.506 50.5273C364.196 50.5273 364.782 50.638 365.264 50.8594C365.752 51.0807 366.152 51.3802 366.465 51.7578C366.777 52.1289 367.005 52.5684 367.148 53.0762C367.298 53.5775 367.373 54.1146 367.373 54.6875V54.9805ZM365.752 54.502C365.771 53.6556 365.583 52.9915 365.186 52.5098C364.795 52.028 364.212 51.7871 363.438 51.7871C363.04 51.7871 362.692 51.862 362.393 52.0117C362.093 52.1615 361.842 52.36 361.641 52.6074C361.439 52.8548 361.283 53.1445 361.172 53.4766C361.061 53.8021 360.999 54.1439 360.986 54.502H365.752ZM375.971 51.543C375.971 51.6862 375.967 51.8066 375.961 51.9043C375.954 52.002 375.941 52.0801 375.922 52.1387C375.902 52.1908 375.876 52.2331 375.844 52.2656C375.818 52.2917 375.779 52.3047 375.727 52.3047C375.674 52.3047 375.609 52.2917 375.531 52.2656C375.46 52.2331 375.375 52.2038 375.277 52.1777C375.186 52.1452 375.082 52.1159 374.965 52.0898C374.848 52.0638 374.721 52.0508 374.584 52.0508C374.421 52.0508 374.262 52.0833 374.105 52.1484C373.949 52.2135 373.783 52.321 373.607 52.4707C373.438 52.6204 373.259 52.819 373.07 53.0664C372.882 53.3138 372.673 53.6165 372.445 53.9746V59.7559C372.445 59.8079 372.432 59.8535 372.406 59.8926C372.38 59.9251 372.338 59.9544 372.279 59.9805C372.221 60.0065 372.139 60.026 372.035 60.0391C371.931 60.0521 371.798 60.0586 371.635 60.0586C371.479 60.0586 371.348 60.0521 371.244 60.0391C371.14 60.026 371.055 60.0065 370.99 59.9805C370.932 59.9544 370.889 59.9251 370.863 59.8926C370.844 59.8535 370.834 59.8079 370.834 59.7559V50.9668C370.834 50.9147 370.844 50.8724 370.863 50.8398C370.883 50.8008 370.922 50.7682 370.98 50.7422C371.039 50.7096 371.114 50.6901 371.205 50.6836C371.296 50.6706 371.417 50.6641 371.566 50.6641C371.71 50.6641 371.827 50.6706 371.918 50.6836C372.016 50.6901 372.09 50.7096 372.143 50.7422C372.195 50.7682 372.23 50.8008 372.25 50.8398C372.276 50.8724 372.289 50.9147 372.289 50.9668V52.2461C372.53 51.8945 372.755 51.6081 372.963 51.3867C373.178 51.1654 373.38 50.9928 373.568 50.8691C373.757 50.7389 373.943 50.651 374.125 50.6055C374.314 50.5534 374.503 50.5273 374.691 50.5273C374.776 50.5273 374.87 50.5339 374.975 50.5469C375.085 50.5534 375.199 50.5697 375.316 50.5957C375.434 50.6217 375.538 50.651 375.629 50.6836C375.727 50.7161 375.795 50.7487 375.834 50.7812C375.873 50.8138 375.899 50.8464 375.912 50.8789C375.925 50.9049 375.935 50.9408 375.941 50.9863C375.954 51.0319 375.961 51.1003 375.961 51.1914C375.967 51.276 375.971 51.3932 375.971 51.543ZM386.033 54.9805C386.033 55.2344 385.968 55.4167 385.838 55.5273C385.714 55.6315 385.571 55.6836 385.408 55.6836H379.646C379.646 56.1719 379.695 56.6113 379.793 57.002C379.891 57.3926 380.053 57.7279 380.281 58.0078C380.509 58.2878 380.805 58.5026 381.17 58.6523C381.535 58.8021 381.98 58.877 382.508 58.877C382.924 58.877 383.296 58.8444 383.621 58.7793C383.947 58.7077 384.227 58.6296 384.461 58.5449C384.702 58.4603 384.897 58.3854 385.047 58.3203C385.203 58.2487 385.32 58.2129 385.398 58.2129C385.444 58.2129 385.483 58.2259 385.516 58.252C385.555 58.2715 385.584 58.304 385.604 58.3496C385.623 58.3952 385.636 58.4603 385.643 58.5449C385.656 58.623 385.662 58.7207 385.662 58.8379C385.662 58.9225 385.659 58.9974 385.652 59.0625C385.646 59.1211 385.636 59.1764 385.623 59.2285C385.617 59.2741 385.6 59.3164 385.574 59.3555C385.555 59.3945 385.525 59.4336 385.486 59.4727C385.454 59.5052 385.35 59.5638 385.174 59.6484C384.998 59.7266 384.77 59.8047 384.49 59.8828C384.21 59.9609 383.885 60.0293 383.514 60.0879C383.149 60.153 382.758 60.1855 382.342 60.1855C381.619 60.1855 380.984 60.0846 380.438 59.8828C379.897 59.681 379.441 59.3815 379.07 58.9844C378.699 58.5872 378.419 58.0892 378.23 57.4902C378.042 56.8913 377.947 56.1947 377.947 55.4004C377.947 54.6452 378.045 53.9681 378.24 53.3691C378.436 52.7637 378.715 52.2526 379.08 51.8359C379.451 51.4128 379.897 51.0905 380.418 50.8691C380.939 50.6413 381.521 50.5273 382.166 50.5273C382.856 50.5273 383.442 50.638 383.924 50.8594C384.412 51.0807 384.812 51.3802 385.125 51.7578C385.438 52.1289 385.665 52.5684 385.809 53.0762C385.958 53.5775 386.033 54.1146 386.033 54.6875V54.9805ZM384.412 54.502C384.432 53.6556 384.243 52.9915 383.846 52.5098C383.455 52.028 382.872 51.7871 382.098 51.7871C381.701 51.7871 381.352 51.862 381.053 52.0117C380.753 52.1615 380.503 52.36 380.301 52.6074C380.099 52.8548 379.943 53.1445 379.832 53.4766C379.721 53.8021 379.66 54.1439 379.646 54.502H384.412ZM397.062 59.7559C397.062 59.8079 397.049 59.8535 397.023 59.8926C396.997 59.9251 396.955 59.9544 396.896 59.9805C396.838 60.0065 396.757 60.026 396.652 60.0391C396.548 60.0521 396.418 60.0586 396.262 60.0586C396.099 60.0586 395.965 60.0521 395.861 60.0391C395.757 60.026 395.676 60.0065 395.617 59.9805C395.559 59.9544 395.516 59.9251 395.49 59.8926C395.464 59.8535 395.451 59.8079 395.451 59.7559V54.6094C395.451 54.1081 395.412 53.7044 395.334 53.3984C395.256 53.0924 395.142 52.8288 394.992 52.6074C394.842 52.3861 394.647 52.2168 394.406 52.0996C394.172 51.9824 393.898 51.9238 393.586 51.9238C393.182 51.9238 392.779 52.0671 392.375 52.3535C391.971 52.64 391.548 53.0599 391.105 53.6133V59.7559C391.105 59.8079 391.092 59.8535 391.066 59.8926C391.04 59.9251 390.998 59.9544 390.939 59.9805C390.881 60.0065 390.799 60.026 390.695 60.0391C390.591 60.0521 390.458 60.0586 390.295 60.0586C390.139 60.0586 390.008 60.0521 389.904 60.0391C389.8 60.026 389.715 60.0065 389.65 59.9805C389.592 59.9544 389.549 59.9251 389.523 59.8926C389.504 59.8535 389.494 59.8079 389.494 59.7559V50.9668C389.494 50.9147 389.504 50.8724 389.523 50.8398C389.543 50.8008 389.582 50.7682 389.641 50.7422C389.699 50.7096 389.774 50.6901 389.865 50.6836C389.956 50.6706 390.077 50.6641 390.227 50.6641C390.37 50.6641 390.487 50.6706 390.578 50.6836C390.676 50.6901 390.751 50.7096 390.803 50.7422C390.855 50.7682 390.891 50.8008 390.91 50.8398C390.936 50.8724 390.949 50.9147 390.949 50.9668V52.1289C391.444 51.5755 391.936 51.1719 392.424 50.918C392.919 50.6576 393.417 50.5273 393.918 50.5273C394.504 50.5273 394.995 50.6283 395.393 50.8301C395.796 51.0254 396.122 51.2891 396.369 51.6211C396.617 51.9531 396.792 52.3438 396.896 52.793C397.007 53.2357 397.062 53.7695 397.062 54.3945V59.7559ZM407.32 58.418C407.32 58.5286 407.317 58.6263 407.311 58.7109C407.304 58.7891 407.291 58.8574 407.271 58.916C407.258 58.9681 407.239 59.0169 407.213 59.0625C407.193 59.1016 407.141 59.1634 407.057 59.248C406.979 59.3262 406.842 59.4271 406.646 59.5508C406.451 59.668 406.23 59.7754 405.982 59.873C405.742 59.9642 405.478 60.0391 405.191 60.0977C404.905 60.1562 404.609 60.1855 404.303 60.1855C403.671 60.1855 403.111 60.0814 402.623 59.873C402.135 59.6647 401.725 59.362 401.393 58.9648C401.067 58.5612 400.816 58.0697 400.641 57.4902C400.471 56.9043 400.387 56.2305 400.387 55.4688C400.387 54.6029 400.491 53.8607 400.699 53.2422C400.914 52.6172 401.204 52.1061 401.568 51.709C401.939 51.3118 402.372 51.0189 402.867 50.8301C403.368 50.6348 403.909 50.5371 404.488 50.5371C404.768 50.5371 405.038 50.5632 405.299 50.6152C405.566 50.6673 405.81 50.7357 406.031 50.8203C406.253 50.9049 406.448 51.0026 406.617 51.1133C406.793 51.224 406.92 51.3184 406.998 51.3965C407.076 51.4746 407.128 51.5365 407.154 51.582C407.187 51.6276 407.213 51.6829 407.232 51.748C407.252 51.8066 407.265 51.875 407.271 51.9531C407.278 52.0312 407.281 52.1289 407.281 52.2461C407.281 52.5 407.252 52.679 407.193 52.7832C407.135 52.8809 407.063 52.9297 406.979 52.9297C406.881 52.9297 406.767 52.8776 406.637 52.7734C406.513 52.6628 406.354 52.5423 406.158 52.4121C405.963 52.2819 405.725 52.1647 405.445 52.0605C405.172 51.9499 404.846 51.8945 404.469 51.8945C403.694 51.8945 403.098 52.194 402.682 52.793C402.271 53.3854 402.066 54.248 402.066 55.3809C402.066 55.9473 402.118 56.4453 402.223 56.875C402.333 57.2982 402.493 57.653 402.701 57.9395C402.91 58.2259 403.163 58.4408 403.463 58.584C403.769 58.7207 404.117 58.7891 404.508 58.7891C404.879 58.7891 405.204 58.7305 405.484 58.6133C405.764 58.4961 406.005 58.3691 406.207 58.2324C406.415 58.0892 406.588 57.9622 406.725 57.8516C406.868 57.7344 406.979 57.6758 407.057 57.6758C407.102 57.6758 407.141 57.6888 407.174 57.7148C407.206 57.7409 407.232 57.7865 407.252 57.8516C407.278 57.9102 407.294 57.9883 407.301 58.0859C407.314 58.1771 407.32 58.2878 407.32 58.418ZM417.959 54.9805C417.959 55.2344 417.894 55.4167 417.764 55.5273C417.64 55.6315 417.497 55.6836 417.334 55.6836H411.572C411.572 56.1719 411.621 56.6113 411.719 57.002C411.816 57.3926 411.979 57.7279 412.207 58.0078C412.435 58.2878 412.731 58.5026 413.096 58.6523C413.46 58.8021 413.906 58.877 414.434 58.877C414.85 58.877 415.221 58.8444 415.547 58.7793C415.872 58.7077 416.152 58.6296 416.387 58.5449C416.628 58.4603 416.823 58.3854 416.973 58.3203C417.129 58.2487 417.246 58.2129 417.324 58.2129C417.37 58.2129 417.409 58.2259 417.441 58.252C417.48 58.2715 417.51 58.304 417.529 58.3496C417.549 58.3952 417.562 58.4603 417.568 58.5449C417.581 58.623 417.588 58.7207 417.588 58.8379C417.588 58.9225 417.585 58.9974 417.578 59.0625C417.572 59.1211 417.562 59.1764 417.549 59.2285C417.542 59.2741 417.526 59.3164 417.5 59.3555C417.48 59.3945 417.451 59.4336 417.412 59.4727C417.38 59.5052 417.275 59.5638 417.1 59.6484C416.924 59.7266 416.696 59.8047 416.416 59.8828C416.136 59.9609 415.811 60.0293 415.439 60.0879C415.075 60.153 414.684 60.1855 414.268 60.1855C413.545 60.1855 412.91 60.0846 412.363 59.8828C411.823 59.681 411.367 59.3815 410.996 58.9844C410.625 58.5872 410.345 58.0892 410.156 57.4902C409.967 56.8913 409.873 56.1947 409.873 55.4004C409.873 54.6452 409.971 53.9681 410.166 53.3691C410.361 52.7637 410.641 52.2526 411.006 51.8359C411.377 51.4128 411.823 51.0905 412.344 50.8691C412.865 50.6413 413.447 50.5273 414.092 50.5273C414.782 50.5273 415.368 50.638 415.85 50.8594C416.338 51.0807 416.738 51.3802 417.051 51.7578C417.363 52.1289 417.591 52.5684 417.734 53.0762C417.884 53.5775 417.959 54.1146 417.959 54.6875V54.9805ZM416.338 54.502C416.357 53.6556 416.169 52.9915 415.771 52.5098C415.381 52.028 414.798 51.7871 414.023 51.7871C413.626 51.7871 413.278 51.862 412.979 52.0117C412.679 52.1615 412.428 52.36 412.227 52.6074C412.025 52.8548 411.868 53.1445 411.758 53.4766C411.647 53.8021 411.585 54.1439 411.572 54.502H416.338ZM434.48 59.2773C434.48 59.3945 434.471 59.4987 434.451 59.5898C434.438 59.681 434.415 59.7591 434.383 59.8242C434.357 59.8828 434.318 59.9284 434.266 59.9609C434.22 59.987 434.168 60 434.109 60H427.127C427.036 60 426.954 59.9902 426.883 59.9707C426.818 59.9447 426.759 59.9056 426.707 59.8535C426.661 59.8014 426.626 59.7266 426.6 59.6289C426.58 59.5312 426.57 59.4108 426.57 59.2676C426.57 59.1374 426.574 59.0234 426.58 58.9258C426.593 58.8281 426.616 58.7435 426.648 58.6719C426.681 58.5938 426.72 58.5189 426.766 58.4473C426.818 58.3691 426.883 58.2878 426.961 58.2031L429.412 55.6055C429.979 55.0065 430.431 54.4694 430.77 53.9941C431.115 53.5189 431.378 53.0859 431.561 52.6953C431.749 52.3047 431.873 51.9499 431.932 51.6309C431.99 51.3118 432.02 51.0124 432.02 50.7324C432.02 50.4525 431.974 50.1888 431.883 49.9414C431.792 49.6875 431.658 49.4661 431.482 49.2773C431.313 49.0885 431.098 48.9388 430.838 48.8281C430.577 48.7174 430.278 48.6621 429.939 48.6621C429.542 48.6621 429.184 48.7174 428.865 48.8281C428.553 48.9388 428.276 49.0592 428.035 49.1895C427.801 49.3197 427.602 49.4401 427.439 49.5508C427.283 49.6615 427.166 49.7168 427.088 49.7168C427.042 49.7168 427 49.7038 426.961 49.6777C426.928 49.6517 426.899 49.6094 426.873 49.5508C426.854 49.4922 426.837 49.4141 426.824 49.3164C426.811 49.2188 426.805 49.1016 426.805 48.9648C426.805 48.8672 426.808 48.7826 426.814 48.7109C426.821 48.6393 426.831 48.5775 426.844 48.5254C426.863 48.4733 426.886 48.4245 426.912 48.3789C426.938 48.3333 426.99 48.278 427.068 48.2129C427.146 48.1413 427.28 48.0469 427.469 47.9297C427.664 47.8125 427.905 47.6986 428.191 47.5879C428.484 47.4707 428.803 47.373 429.148 47.2949C429.5 47.2168 429.868 47.1777 430.252 47.1777C430.864 47.1777 431.398 47.2656 431.854 47.4414C432.316 47.6107 432.697 47.8451 432.996 48.1445C433.302 48.444 433.53 48.7923 433.68 49.1895C433.829 49.5866 433.904 50.0098 433.904 50.459C433.904 50.8626 433.868 51.2663 433.797 51.6699C433.725 52.0671 433.572 52.5 433.338 52.9688C433.11 53.431 432.778 53.9486 432.342 54.5215C431.906 55.0879 431.326 55.7422 430.604 56.4844L428.602 58.5742H434.1C434.152 58.5742 434.201 58.5905 434.246 58.623C434.298 58.6491 434.34 58.6914 434.373 58.75C434.412 58.8086 434.438 58.8835 434.451 58.9746C434.471 59.0592 434.48 59.1602 434.48 59.2773ZM446.037 53.6523C446.037 54.6224 445.959 55.5078 445.803 56.3086C445.653 57.1094 445.399 57.7995 445.041 58.3789C444.689 58.9518 444.227 59.3978 443.654 59.7168C443.081 60.0293 442.375 60.1855 441.535 60.1855C440.741 60.1855 440.07 60.0456 439.523 59.7656C438.983 59.4792 438.547 59.0625 438.215 58.5156C437.883 57.9622 437.645 57.2852 437.502 56.4844C437.365 55.6771 437.297 54.7526 437.297 53.7109C437.297 52.7474 437.375 51.8652 437.531 51.0645C437.688 50.2572 437.941 49.5671 438.293 48.9941C438.645 48.4147 439.107 47.9688 439.68 47.6562C440.253 47.3372 440.956 47.1777 441.789 47.1777C442.59 47.1777 443.26 47.321 443.801 47.6074C444.348 47.8874 444.787 48.304 445.119 48.8574C445.451 49.4043 445.686 50.0814 445.822 50.8887C445.965 51.6895 446.037 52.6107 446.037 53.6523ZM444.318 53.7695C444.318 53.138 444.296 52.5716 444.25 52.0703C444.204 51.569 444.136 51.1263 444.045 50.7422C443.96 50.3581 443.846 50.0293 443.703 49.7559C443.566 49.4759 443.4 49.248 443.205 49.0723C443.01 48.89 442.785 48.7598 442.531 48.6816C442.284 48.597 442.004 48.5547 441.691 48.5547C441.138 48.5547 440.689 48.6849 440.344 48.9453C439.999 49.2057 439.725 49.5638 439.523 50.0195C439.328 50.4753 439.195 51.0091 439.123 51.6211C439.051 52.2331 439.016 52.8906 439.016 53.5938C439.016 54.5378 439.064 55.3418 439.162 56.0059C439.26 56.6634 439.413 57.2005 439.621 57.6172C439.836 58.0339 440.106 58.3366 440.432 58.5254C440.764 58.7142 441.164 58.8086 441.633 58.8086C441.997 58.8086 442.316 58.75 442.59 58.6328C442.87 58.5156 443.107 58.3496 443.303 58.1348C443.505 57.9134 443.671 57.6497 443.801 57.3438C443.931 57.0378 444.035 56.6992 444.113 56.3281C444.191 55.957 444.243 55.5566 444.27 55.127C444.302 54.6908 444.318 54.2383 444.318 53.7695ZM456.754 59.2773C456.754 59.3945 456.744 59.4987 456.725 59.5898C456.712 59.681 456.689 59.7591 456.656 59.8242C456.63 59.8828 456.591 59.9284 456.539 59.9609C456.493 59.987 456.441 60 456.383 60H449.4C449.309 60 449.228 59.9902 449.156 59.9707C449.091 59.9447 449.033 59.9056 448.98 59.8535C448.935 59.8014 448.899 59.7266 448.873 59.6289C448.854 59.5312 448.844 59.4108 448.844 59.2676C448.844 59.1374 448.847 59.0234 448.854 58.9258C448.867 58.8281 448.889 58.7435 448.922 58.6719C448.954 58.5938 448.993 58.5189 449.039 58.4473C449.091 58.3691 449.156 58.2878 449.234 58.2031L451.686 55.6055C452.252 55.0065 452.704 54.4694 453.043 53.9941C453.388 53.5189 453.652 53.0859 453.834 52.6953C454.023 52.3047 454.146 51.9499 454.205 51.6309C454.264 51.3118 454.293 51.0124 454.293 50.7324C454.293 50.4525 454.247 50.1888 454.156 49.9414C454.065 49.6875 453.932 49.4661 453.756 49.2773C453.587 49.0885 453.372 48.9388 453.111 48.8281C452.851 48.7174 452.551 48.6621 452.213 48.6621C451.816 48.6621 451.458 48.7174 451.139 48.8281C450.826 48.9388 450.549 49.0592 450.309 49.1895C450.074 49.3197 449.876 49.4401 449.713 49.5508C449.557 49.6615 449.439 49.7168 449.361 49.7168C449.316 49.7168 449.273 49.7038 449.234 49.6777C449.202 49.6517 449.173 49.6094 449.146 49.5508C449.127 49.4922 449.111 49.4141 449.098 49.3164C449.085 49.2188 449.078 49.1016 449.078 48.9648C449.078 48.8672 449.081 48.7826 449.088 48.7109C449.094 48.6393 449.104 48.5775 449.117 48.5254C449.137 48.4733 449.16 48.4245 449.186 48.3789C449.212 48.3333 449.264 48.278 449.342 48.2129C449.42 48.1413 449.553 48.0469 449.742 47.9297C449.938 47.8125 450.178 47.6986 450.465 47.5879C450.758 47.4707 451.077 47.373 451.422 47.2949C451.773 47.2168 452.141 47.1777 452.525 47.1777C453.137 47.1777 453.671 47.2656 454.127 47.4414C454.589 47.6107 454.97 47.8451 455.27 48.1445C455.576 48.444 455.803 48.7923 455.953 49.1895C456.103 49.5866 456.178 50.0098 456.178 50.459C456.178 50.8626 456.142 51.2663 456.07 51.6699C455.999 52.0671 455.846 52.5 455.611 52.9688C455.383 53.431 455.051 53.9486 454.615 54.5215C454.179 55.0879 453.6 55.7422 452.877 56.4844L450.875 58.5742H456.373C456.425 58.5742 456.474 58.5905 456.52 58.623C456.572 58.6491 456.614 58.6914 456.646 58.75C456.686 58.8086 456.712 58.8835 456.725 58.9746C456.744 59.0592 456.754 59.1602 456.754 59.2773ZM468.428 56.4062C468.428 56.6211 468.395 56.7904 468.33 56.9141C468.265 57.0378 468.174 57.0996 468.057 57.0996H466.631V59.7559C466.631 59.8079 466.618 59.8535 466.592 59.8926C466.566 59.9251 466.52 59.9544 466.455 59.9805C466.39 60.0065 466.305 60.026 466.201 60.0391C466.097 60.0521 465.964 60.0586 465.801 60.0586C465.645 60.0586 465.514 60.0521 465.41 60.0391C465.306 60.026 465.221 60.0065 465.156 59.9805C465.098 59.9544 465.055 59.9251 465.029 59.8926C465.01 59.8535 465 59.8079 465 59.7559V57.0996H459.785C459.707 57.0996 459.642 57.0898 459.59 57.0703C459.538 57.0508 459.489 57.015 459.443 56.9629C459.404 56.9108 459.375 56.8359 459.355 56.7383C459.342 56.6406 459.336 56.5137 459.336 56.3574C459.336 56.2337 459.339 56.123 459.346 56.0254C459.352 55.9277 459.365 55.8398 459.385 55.7617C459.404 55.6771 459.43 55.599 459.463 55.5273C459.495 55.4492 459.535 55.3678 459.58 55.2832L464.131 47.6074C464.163 47.5553 464.209 47.5098 464.268 47.4707C464.333 47.4316 464.414 47.3991 464.512 47.373C464.609 47.347 464.73 47.3307 464.873 47.3242C465.016 47.3112 465.186 47.3047 465.381 47.3047C465.596 47.3047 465.781 47.3145 465.938 47.334C466.1 47.347 466.23 47.3665 466.328 47.3926C466.426 47.4186 466.501 47.4544 466.553 47.5C466.605 47.5391 466.631 47.5879 466.631 47.6465V55.7129H468.057C468.167 55.7129 468.255 55.7715 468.32 55.8887C468.392 55.9993 468.428 56.1719 468.428 56.4062ZM465 48.7793H464.98L460.869 55.7129H465V48.7793Z" fill="black"/>
<g clip-path="url(#clip0_1008_45)">
<path d="M300.783 119.356C301.072 118.118 301.732 116.012 302.753 113.027C304.579 107.935 307.425 104.513 311.299 102.766C315.166 101.02 320.205 100.146 326.415 100.146C330.871 100.146 333.88 101.163 335.453 103.203C337.02 105.243 337.807 108.516 337.807 113.027L337.915 117.065C337.915 120.194 337.585 122.796 336.93 124.866C336.276 126.936 334.997 127.977 333.099 127.977C331.567 127.977 330.799 125.686 330.799 121.103L330.907 116.084C330.907 110.921 330.174 108.115 328.715 107.684C328.204 107.541 327.436 107.469 326.415 107.469C323.64 107.469 320.223 107.762 316.175 108.342C312.122 108.922 309.659 109.796 308.783 110.963C308.2 111.692 307.648 114.02 307.137 117.944C306.699 121.288 306.188 123.927 305.606 125.853C305.023 127.779 304.183 128.743 303.084 128.743C301.985 128.743 301.258 128.378 300.892 127.654C300.525 126.93 300.345 125.943 300.345 124.71C300.345 122.383 300.489 120.6 300.783 119.362V119.356ZM308.398 155.311C309.383 149.089 310.458 144.818 311.629 142.491C312.434 140.815 313.911 139.475 316.067 138.452C318.217 137.435 320.319 136.927 322.367 136.927C323.826 136.927 325.286 137.292 326.751 138.016C328.649 138.961 329.874 140.145 330.42 141.563C330.967 142.981 331.351 145.003 331.573 147.618C331.718 149.143 331.94 150.675 332.228 152.2C332.3 152.416 332.336 152.745 332.336 153.181C332.336 154.42 332.186 155.598 331.898 156.729C331.603 157.86 331.165 159.26 330.583 160.929C330 162.747 329.562 164.201 329.267 165.296C328.973 166.385 328.829 167.551 328.829 168.79C328.829 169.011 329.321 169.173 330.306 169.28C331.291 169.388 332.042 169.442 332.552 169.442C334.084 169.514 335.399 169.735 336.498 170.094C337.591 170.459 338.143 171.183 338.143 172.278C338.143 173.731 337.375 174.677 335.843 175.113C334.894 175.478 332.793 175.783 329.544 176.041C326.295 176.292 323.826 176.423 322.151 176.423C320.764 176.423 319.412 176.316 318.097 176.094C317.587 176.023 317.004 175.945 316.344 175.873C315.689 175.801 314.884 175.765 313.935 175.765C313.497 175.765 312.932 176.041 312.236 176.585C311.539 177.129 310.939 177.405 310.428 177.405C309.041 177.405 308.11 176.585 307.636 174.952C307.161 173.313 306.921 171.554 306.921 169.657C306.921 166.313 307.413 161.527 308.398 155.311ZM323.676 111.716C325.136 111.716 326.289 111.92 327.129 112.315C327.97 112.715 328.391 113.535 328.391 114.767C328.391 116.371 327.586 117.513 325.982 118.207C324.373 118.901 322.787 119.278 321.22 119.356C319.647 119.428 317.443 119.464 314.59 119.464C313.275 119.464 312.272 119.23 311.575 118.752C310.879 118.279 310.536 117.424 310.536 116.185C310.536 113.206 314.92 111.71 323.682 111.71L323.676 111.716ZM312.614 123.011C312.758 122.76 313.017 122.485 313.383 122.192C313.749 121.97 315.863 121.665 319.737 121.264C323.604 120.864 326.09 120.666 327.183 120.666C328.06 120.666 328.679 120.792 329.045 121.049C329.411 121.306 329.592 121.869 329.592 122.742C329.592 124.489 328.367 125.763 325.922 126.559C323.472 127.361 321.16 127.762 318.968 127.762C317.07 127.762 315.497 127.546 314.26 127.109C313.017 126.673 312.398 125.692 312.398 124.166C312.398 123.657 312.47 123.275 312.614 123.017V123.011ZM313.383 164.093C313.383 164.967 313.401 166.098 313.437 167.474C313.473 168.856 313.527 169.873 313.599 170.531C313.821 170.824 314.073 171.003 314.368 171.075C314.656 171.147 314.95 171.183 315.245 171.183C315.611 171.183 316.085 171.111 316.668 170.967C317.034 170.896 317.473 170.824 317.983 170.746C318.494 170.674 318.896 170.638 319.19 170.638C321.016 170.495 322.385 170.166 323.298 169.657C324.211 169.149 324.667 168.06 324.667 166.385C324.667 165.368 324.631 164.602 324.559 164.093L324.451 161.802H321.604C316.127 161.802 313.389 162.568 313.389 164.093H313.383ZM323.736 150.836C323.406 150.507 322.619 150.346 321.382 150.346C320.872 150.346 320.211 150.495 319.412 150.782C318.608 151.075 318.025 151.255 317.659 151.327C316.272 151.476 315.251 151.853 314.59 152.475C313.935 153.092 313.605 154.097 313.605 155.479C313.605 157.082 313.899 157.878 314.482 157.878C314.848 157.878 316.434 157.495 319.244 156.729C322.055 155.963 323.532 155.509 323.682 155.365C324.049 154.928 324.229 154.204 324.229 153.181C324.229 151.943 324.067 151.165 323.736 150.836ZM320.121 143.579C318.626 143.729 317.346 144.034 316.29 144.507C315.233 144.979 314.704 145.613 314.704 146.415C314.704 147.289 314.926 147.725 315.359 147.725C315.725 147.725 316.524 147.474 317.767 146.959C319.01 146.451 320.067 146.194 320.944 146.194C321.598 146.194 322.313 146.122 323.082 145.972C323.85 145.829 324.235 145.536 324.235 145.099C324.235 144.734 323.796 144.118 322.92 143.244C322.553 143.316 321.622 143.424 320.127 143.573L320.121 143.579Z" fill="black"/>
<path d="M356.82 116.957C357.475 116.957 358.1 117.16 358.682 117.555C359.265 117.956 359.889 118.483 360.544 119.135V122.078C360.544 122.952 360.25 124.262 359.667 126.009C359.084 127.756 358.79 129.066 358.79 129.939C358.79 130.232 359.078 131.106 359.667 132.56C360.25 134.013 360.544 135.18 360.544 136.053C360.544 137.8 360.069 139.236 359.12 140.361C358.172 141.491 356.82 142.491 355.067 143.364V156.46C355.067 160.534 354.718 163.986 354.028 166.827C353.331 169.663 351.926 171.081 349.812 171.081C348.719 171.081 347.8 170.483 347.074 169.28C346.341 168.078 345.981 166.899 345.981 165.733C345.981 158.165 346.599 147.911 347.842 134.959L348.611 126.122C348.683 125.105 348.833 124.411 349.049 124.046C349.272 123.681 349.818 123.502 350.695 123.502C351.5 123.502 352.01 123.741 352.226 124.214C352.442 124.686 352.593 125.434 352.665 126.451C352.665 126.601 352.701 127.014 352.773 127.708C352.845 128.402 353.103 128.892 353.541 129.179C353.98 129.036 354.472 128.288 355.019 126.942C355.565 125.596 355.842 124.633 355.842 124.052C355.842 123.765 355.769 123.472 355.625 123.179C355.187 123.035 354.586 122.904 353.818 122.796C353.049 122.688 352.538 122.467 352.286 122.144C352.028 121.815 351.902 121.145 351.902 120.128C351.902 118.016 353.547 116.963 356.832 116.963L356.82 116.957ZM355.289 133.762C354.923 133.762 354.592 134.037 354.304 134.582C354.01 135.126 353.866 135.581 353.866 135.946C353.866 136.382 353.956 136.873 354.142 137.417C354.322 137.962 354.562 138.273 354.857 138.345C355.223 138.273 355.493 137.854 355.679 137.088C355.86 136.323 355.956 135.652 355.956 135.072C355.956 134.199 355.733 133.762 355.301 133.762H355.289ZM368.543 168.951C368.615 168.622 368.759 168.239 368.981 167.803C369.93 166.277 371.354 163.477 373.251 159.403C374.933 155.766 376.374 152.798 377.575 150.507C378.782 148.216 379.929 146.636 381.028 145.763C381.977 145.039 382.596 144.674 382.89 144.674C383.184 144.674 383.473 144.8 383.767 145.057C384.055 145.314 384.241 145.619 384.313 145.984L383.22 149.041C381.905 152.535 381.251 155.15 381.251 156.896C381.251 157.549 381.563 158.081 382.181 158.476C382.8 158.877 383.659 159.278 384.758 159.678C385.851 160.079 386.547 160.39 386.842 160.606C386.914 160.677 387.208 160.899 387.718 161.258C388.229 161.623 388.775 161.838 389.364 161.91L389.694 161.581C389.766 160.857 391.682 158.542 395.448 154.653C399.207 150.764 401.381 148.814 401.963 148.814C402.186 148.814 402.42 148.904 402.678 149.089C402.93 149.269 403.062 149.472 403.062 149.688C403.062 150.196 402.804 150.854 402.294 151.65C401.783 152.451 401.237 153.253 400.648 154.049C399.699 155.431 399.225 156.268 399.225 156.561C399.225 156.998 399.405 157.237 399.771 157.273C400.138 157.309 400.354 157.327 400.426 157.327C401.741 157.549 404.408 158.308 408.425 159.619C412.443 160.929 416.238 162.329 419.818 163.818C423.397 165.308 425.475 166.421 426.063 167.145C426.352 167.509 426.502 168.018 426.502 168.67C426.502 169.759 426.262 170.489 425.787 170.854C425.313 171.219 424.526 171.398 423.433 171.398C421.902 171.398 416.605 169.364 407.549 165.29L405.471 164.417C404.666 164.052 403.483 163.507 401.909 162.777C400.336 162.053 399.555 161.575 399.555 161.359V161.252C398.678 161.108 398.06 161.03 397.694 161.03C396.522 161.03 395.556 161.306 394.793 161.85C394.024 162.394 393.057 163.25 391.892 164.417C391.015 165.29 390.361 165.888 389.923 166.217C389.484 166.546 389.01 166.708 388.499 166.708C387.112 166.708 385.142 165.87 382.584 164.195C381.197 163.178 380.212 162.67 379.629 162.67C379.335 162.67 378.752 163.507 377.876 165.182C376.632 167.366 375.467 169.113 374.368 170.417C373.275 171.727 372.14 172.379 370.975 172.379C370.098 172.379 369.456 172.218 369.06 171.889C368.657 171.56 368.459 170.961 368.459 170.088C368.459 169.651 368.495 169.268 368.567 168.939L368.543 168.951ZM372.981 134.253C373.966 133.05 375.209 132.069 376.704 131.309C378.2 130.543 379.605 130.161 380.92 130.161C382.38 130.161 383.587 130.633 384.536 131.578C385.484 132.524 385.959 133.726 385.959 135.18C385.959 137.142 385.316 139.021 384.043 140.797C382.764 142.58 381.143 143.998 379.167 145.051C377.197 146.104 375.221 146.636 373.251 146.636C372.519 146.636 372.026 146.439 371.774 146.038C371.516 145.637 371.39 145.039 371.39 144.237C371.39 143.801 371.462 143.167 371.606 142.329C371.75 141.491 371.828 140.857 371.828 140.421C371.828 140.056 371.774 139.673 371.666 139.272C371.558 138.871 371.504 138.488 371.504 138.123C371.504 136.741 371.996 135.449 372.981 134.253ZM374.897 113.685C376.14 111.794 377.491 110.065 378.951 108.504C380.41 106.942 381.431 106.159 382.019 106.159C382.674 106.159 383.407 106.488 384.211 107.14C384.283 107.211 384.542 107.397 384.98 107.684C385.418 107.977 385.893 108.121 386.403 108.121C391.88 108.121 395.604 108.629 397.573 109.646C400.786 111.322 402.396 113.104 402.396 114.995C402.396 115.647 402.011 116.179 401.243 116.574C400.474 116.975 399.723 117.172 398.997 117.172C397.904 117.172 396.919 117.029 396.042 116.736C391.658 115.426 386.806 114.594 381.473 114.223C381.106 114.588 380.506 115.204 379.665 116.078C378.824 116.951 378.02 117.657 377.257 118.207C376.488 118.752 375.738 119.027 375.011 119.027C374.5 119.027 374.044 118.901 373.642 118.644C373.239 118.393 373.041 118.01 373.041 117.495C373.041 116.843 373.66 115.569 374.903 113.679L374.897 113.685ZM376.32 120.451C376.975 120.307 377.653 120.05 378.35 119.685C379.041 119.32 379.503 119.069 379.719 118.919C380.596 118.483 381.509 118.064 382.458 117.663C383.407 117.262 384.319 117.065 385.196 117.065C386.289 117.065 387.292 117.358 388.211 117.938C389.124 118.518 389.58 119.32 389.58 120.337C389.58 121.211 388.703 122.12 386.95 123.065C385.196 124.01 383.208 124.812 380.98 125.464C378.752 126.116 377.161 126.445 376.218 126.445C375.563 126.445 374.957 126.17 374.41 125.626C373.864 125.081 373.588 124.477 373.588 123.825C373.588 122.156 374.5 121.025 376.326 120.445L376.32 120.451ZM378.404 137.034C377.894 137.034 377.365 137.435 376.819 138.237C376.272 139.039 375.996 139.691 375.996 140.199C375.996 140.492 376.176 140.636 376.542 140.636C377.053 140.636 377.563 140.349 378.074 139.762C378.584 139.182 378.842 138.602 378.842 138.016C378.842 137.363 378.692 137.034 378.404 137.034ZM390.181 140.092C389.706 139.29 389.448 138.327 389.412 137.202C389.376 136.077 389.358 135.036 389.358 134.091V132.781C389.358 131.255 389.466 130.31 389.688 129.945C389.977 129.293 391.22 128.563 393.412 127.762C395.604 126.96 397.171 126.559 398.12 126.559C399.579 126.559 400.84 127.121 401.897 128.252C402.954 129.383 403.483 130.669 403.483 132.123C403.483 135.18 402.462 137.471 400.414 138.997C398.366 140.522 395.742 141.288 392.529 141.288C391.436 141.288 390.649 140.887 390.175 140.086L390.181 140.092ZM395.712 132.129C395.057 132.129 394.577 132.236 394.288 132.458L394.066 133.224C394.066 133.589 394.12 134.079 394.228 134.695C394.337 135.311 394.541 135.658 394.829 135.73C395.339 135.515 395.814 135.078 396.252 134.42C396.691 133.768 396.943 133.146 397.021 132.565C396.805 132.278 396.366 132.129 395.706 132.129H395.712Z" fill="black"/>
<path d="M441.888 110.849C442.11 107.864 442.434 105.447 442.873 103.592C443.311 101.737 444.038 100.81 445.065 100.81C445.941 100.81 446.524 101.373 446.818 102.503C447.106 103.634 447.293 105.213 447.365 107.247C447.437 108.701 447.545 109.832 447.695 110.628C447.839 111.429 448.097 111.938 448.464 112.153C448.83 112.368 449.413 112.482 450.217 112.482C450.656 112.482 452.427 112.464 455.532 112.428C458.637 112.392 461.081 113.08 462.871 114.498C464.66 115.916 465.555 118.01 465.555 120.774C465.555 122.012 465.333 123.227 464.901 124.429C464.462 125.632 463.844 126.96 463.039 128.414C462.162 129.939 461.724 130.962 461.724 131.471L462.054 131.8C462.492 131.728 463.333 131.548 464.576 131.255C464.865 131.184 465.357 131.076 466.054 130.926C466.744 130.783 467.387 130.705 467.969 130.705C468.696 130.705 469.357 130.926 469.939 131.357C470.522 131.794 470.816 132.374 470.816 133.104C470.816 133.977 469.393 135.066 466.546 136.376C463.7 137.687 460.012 139.176 455.484 140.851C451.761 142.233 449.677 143.071 449.238 143.358C449.455 146.194 449.569 148.994 449.569 151.757C449.569 158.015 449.419 163.268 449.13 167.527C448.836 171.781 448.145 175.873 447.046 179.804C446.896 180.384 446.716 181.311 446.5 182.585C446.284 183.86 445.953 184.859 445.515 185.589C444.782 186.827 443.761 187.443 442.446 187.443C440.182 187.443 439.053 185.876 439.053 182.753C439.053 179.63 439.161 176.334 439.383 172.66C439.606 168.987 439.75 166.57 439.822 165.404C440.332 158.637 440.591 152.858 440.591 148.054C440.591 147.546 440.554 147.181 440.482 146.965L440.374 146.858C439.792 146.858 438.843 147.079 437.528 147.51C436.507 148.018 435.558 148.276 434.681 148.276C433.948 148.276 433.072 148.605 432.051 149.257C430.88 149.909 430.003 150.238 429.42 150.238C425.985 150.238 424.274 146.786 424.274 139.87C424.274 134.779 424.892 129.03 426.135 122.628C426.207 122.264 426.316 121.701 426.466 120.935C426.61 120.17 426.688 119.464 426.688 118.806C426.688 118.297 426.832 117.86 427.126 117.495C427.415 117.131 427.817 116.951 428.333 116.951C428.85 116.951 429.228 117.154 429.486 117.549C429.739 117.95 429.997 118.53 430.255 119.296C430.507 120.062 430.748 120.445 430.97 120.445C431.552 120.445 433.234 119.607 436.008 117.938C438.783 116.263 440.609 115.067 441.485 114.337C441.629 113.828 441.774 112.662 441.924 110.843L441.888 110.849ZM441.666 133.983C441.888 131.441 441.996 128.964 441.996 126.565C441.996 124.675 441.299 123.729 439.912 123.729C439.257 123.729 438.284 124.076 437.011 124.764C435.732 125.458 434.603 126.278 433.618 127.217C432.633 128.162 432.141 129 432.141 129.73C432.141 130.31 432.429 131.333 433.018 132.787C433.672 134.606 434.003 135.88 434.003 136.604V138.62C434.003 139.751 434.147 140.821 434.441 141.838L434.987 142.054C436.008 142.054 437.215 141.671 438.603 140.905C439.99 140.139 440.939 139.649 441.449 139.433C441.449 138.123 441.521 136.305 441.666 133.977V133.983ZM457.658 119.96C456.637 119.709 455.178 119.577 453.274 119.577C450.061 119.577 448.452 120.379 448.452 121.976C448.452 123.795 448.524 126.38 448.674 129.724C448.818 133.068 449.04 134.887 449.328 135.18C450.133 134.887 451.791 133.325 454.313 130.49C456.829 127.654 458.313 125.727 458.751 124.704C459.039 124.052 459.189 123.215 459.189 122.192C459.189 120.953 458.679 120.212 457.658 119.954V119.96Z" fill="black"/>
<path d="M37.1197 68.6958C46.152 63.0722 59.2439 55.6539 70.9905 57.2093C79.7765 58.3759 84.2926 61.1937 84.2926 69.1505C84.2926 72.8836 83.1696 77.1132 80.9176 81.8395C78.6715 86.5716 71.0626 103.753 59.0997 121.522C45.6355 141.515 37.7743 154.252 34.6575 156.496C33.7807 157.118 33.3483 157.614 33.3483 157.991C34.2191 158.488 37.3419 158.739 42.7168 158.739H66.2282C69.4111 158.739 71.5671 158.494 72.6901 157.991C73.0624 157.872 73.8131 157.554 74.9361 157.058C76.0591 156.561 77.1221 156.31 78.119 156.31C79.8666 156.31 81.368 157.028 82.6171 158.458C83.8662 159.888 84.4908 161.479 84.4908 163.22C84.4908 166.086 82.551 168.012 78.6835 169.005C69.1889 171.123 59.3219 172.523 49.0826 173.205C38.8373 173.893 27.2227 174.234 14.2389 174.234C9.99308 174.234 6.55796 173.671 3.93358 172.553C1.30919 171.434 0 169.005 0 165.272C0 163.034 0.906824 161.108 2.71447 159.487C4.52211 157.872 6.99035 156.19 10.1132 154.45C16.2027 150.98 33.8828 134.217 46.3742 115.617C57.184 99.5238 70.7563 77.2449 69.1108 71.3939C68.8406 70.4367 68.3601 69.8983 66.8648 69.8983C65.3694 69.8983 62.2706 68.8095 52.7399 72.7879C43.2153 76.7663 39.3057 84.1068 38.4349 84.8547C37.9365 85.2256 37.2158 85.9435 36.279 87.0024C35.3421 88.0613 34.3092 88.5878 33.1862 88.5878C31.4326 88.5878 29.655 87.8399 27.8473 86.3503C26.0337 84.8547 25.1328 83.2394 25.1328 81.4984C25.1328 77.2688 31.0662 72.4708 37.1197 68.7018V68.6958Z" fill="black"/>
<path d="M91.3491 176.28C88.2262 173.295 85.9141 169.532 84.4188 164.991C82.9174 160.45 82.1727 155.939 82.1727 151.458C82.1727 145.613 82.7973 137.902 84.0464 128.318C85.2956 118.74 86.9771 112.703 89.103 110.215C89.8537 109.222 90.6284 108.534 91.4452 108.163C92.2559 107.792 93.2888 107.6 94.538 107.6C95.7871 107.6 96.6579 107.786 97.1624 108.163L97.913 108.348C98.7838 108.348 99.6907 108.228 100.628 107.977C101.564 107.732 102.219 107.54 102.597 107.415C104.219 106.793 105.72 106.482 107.095 106.482C112.59 106.482 116.806 107.295 119.743 108.91C122.674 110.532 124.83 112.895 126.205 116C127.58 119.111 128.703 123.466 129.58 129.066C129.826 130.436 129.952 132.428 129.952 135.036C129.952 140.139 129.58 144.429 128.829 147.911C127.826 152.517 126.205 157.333 123.959 162.376C121.713 167.42 118.806 171.739 115.245 175.347C111.684 178.954 107.66 180.761 103.162 180.761C98.4115 180.761 94.4779 179.265 91.3611 176.28H91.3491ZM109.149 160.51C111.269 156.717 112.927 152.332 114.116 147.354C115.299 142.383 115.893 138.458 115.893 135.599C115.893 131.746 115.455 128.635 114.584 126.266C113.707 123.903 111.648 122.718 108.405 122.718C106.531 122.718 104.657 123.029 102.783 123.651C99.9068 124.651 97.7869 128.473 96.4117 135.132C95.0364 141.791 94.3518 147.731 94.3518 152.954C94.3518 155.82 94.9764 158.739 96.2255 161.724C97.4746 164.71 99.3483 166.205 101.847 166.205C104.591 166.205 107.029 164.309 109.155 160.516L109.149 160.51Z" fill="black"/>
<path d="M158.34 111.615C165.21 109.688 171.576 108.725 177.449 108.725C186.313 108.725 190.751 112.709 190.751 120.666C190.751 124.399 189.628 128.629 187.376 133.355C185.13 138.087 182.284 142.562 178.855 146.792C175.419 151.022 172.14 154.258 169.018 156.496C168.141 157.118 167.708 157.614 167.708 157.991C168.579 158.488 171.702 158.739 177.077 158.739H200.588C203.771 158.739 205.927 158.494 207.05 157.991C207.423 157.872 208.173 157.554 209.296 157.058C210.419 156.561 211.482 156.31 212.479 156.31C214.227 156.31 215.728 157.028 216.977 158.458C218.226 159.888 218.851 161.479 218.851 163.22C218.851 166.086 216.911 168.012 213.044 169.005C203.549 171.123 193.682 172.523 183.443 173.205C173.197 173.893 161.583 174.234 148.599 174.234C144.353 174.234 140.918 173.671 138.294 172.553C135.669 171.434 134.36 169.005 134.36 165.272C134.36 163.034 135.267 161.108 137.075 159.487C138.882 157.872 141.35 156.19 144.473 154.45C155.836 147.982 165.39 139.086 173.137 127.761C174.759 125.524 175.576 123.909 175.576 122.91C175.576 121.91 174.825 121.414 173.33 121.414C171.834 121.414 169.678 121.695 166.868 122.251C164.057 122.814 162.213 123.466 161.343 124.208C160.844 124.579 160.124 125.297 159.187 126.356C158.25 127.414 157.217 127.941 156.094 127.941C154.34 127.941 152.563 127.193 150.755 125.703C148.941 124.208 148.041 122.592 148.041 120.852C148.041 116.622 151.476 113.541 158.346 111.615H158.34Z" fill="black"/>
<path d="M246.692 126.17C247.563 122.999 248.44 118.237 249.317 111.896C250.566 102.563 252.097 95.378 253.905 90.3407C255.712 85.3034 258.679 82.7848 262.805 82.7848C264.426 82.7848 265.832 83.1557 267.021 83.9035C268.204 84.6513 268.798 85.7701 268.798 87.2657C268.798 90.1313 267.831 95.7908 265.892 104.25C263.952 112.709 262.3 119.117 260.925 123.472C260.175 125.339 259.802 126.523 259.802 127.02C259.802 127.271 259.988 127.486 260.367 127.672C260.739 127.857 261.051 127.953 261.304 127.953C263.051 127.953 264.955 127.833 267.015 127.582C269.075 127.337 270.54 127.145 271.417 127.02C275.164 126.397 278.533 126.086 281.536 126.086C282.911 126.086 284.094 126.493 285.097 127.301C286.094 128.108 286.599 129.197 286.599 130.567C286.599 131.937 285.974 133.337 284.725 134.767C283.476 136.197 282.1 137.411 280.605 138.404C278.605 139.774 273.981 141.204 266.744 142.694C260.373 144.19 256.817 145.368 256.067 146.242C255.19 147.115 254.475 148.76 253.911 151.189C253.346 153.618 252.632 157.255 251.755 162.107C250.38 170.447 226.892 267.191 225.271 271.917C223.643 276.649 221.337 279.006 218.34 279.006C216.593 279.006 215.278 278.133 214.407 276.392C213.53 274.651 213.098 272.784 213.098 270.792C213.098 268.303 235.372 175.604 235.93 173.115C236.495 170.626 237.336 167.701 238.459 164.345C238.579 163.723 238.987 162.263 239.678 159.96C240.363 157.656 240.861 155.544 241.179 153.612C241.492 151.686 241.648 149.849 241.648 148.108C241.648 146.989 240.957 146.182 239.588 145.679C238.213 145.183 236.153 144.746 233.408 144.375C229.535 143.878 226.382 143.256 223.95 142.508C221.511 141.761 219.361 140.301 217.488 138.123C215.614 135.946 214.677 132.805 214.677 128.701C214.677 122.73 215.206 117.663 216.269 113.493C217.326 109.323 219.295 105.004 222.172 100.523C224.418 96.9155 226.604 95.1088 228.73 95.1088C229.727 95.1088 230.664 95.6054 231.54 96.6045C232.411 97.6035 232.85 98.5966 232.85 99.5897C232.85 100.583 232.537 101.552 231.913 102.485C231.288 103.419 230.91 104.011 230.79 104.256C228.039 108.737 226.67 114.582 226.67 121.797C226.67 124.782 226.916 126.834 227.421 127.953C227.919 129.072 228.7 129.76 229.763 130.005C230.82 130.256 233.102 130.502 236.603 130.753C237.978 130.878 240.038 130.938 242.783 130.938C244.53 130.938 245.839 129.353 246.716 126.176L246.692 126.17Z" fill="black"/>
<path d="M485.746 163.549C486.364 162.167 487.187 160.982 488.208 160.001C489.229 159.02 490.292 158.53 491.385 158.53C492.406 158.53 493.042 158.93 493.3 159.732C493.553 160.534 493.685 161.587 493.685 162.897C493.685 165.152 493.3 167.336 492.532 169.442C491.763 171.554 490.43 172.607 488.532 172.607C487.505 172.607 486.634 171.99 485.902 170.752C485.169 169.514 484.809 168.353 484.809 167.258C484.809 166.163 485.121 164.931 485.74 163.549H485.746ZM486.568 126.996C487.661 118.847 488.574 114.408 489.307 113.684C489.889 113.104 490.472 112.811 491.06 112.811C492.742 112.811 493.817 114.378 494.291 117.501C494.766 120.63 495.006 123.867 495.006 127.211V133.211C495.006 134.522 494.826 136.34 494.46 138.668C494.093 140.995 493.511 143.089 492.706 144.943C491.901 146.798 490.88 147.725 489.637 147.725C488.106 147.725 486.935 147.288 486.13 146.415C485.325 145.542 484.923 144.339 484.923 142.813C484.923 140.414 485.469 135.138 486.568 126.99V126.996Z" fill="black"/>
</g>
<defs>
<clipPath id="clip0_1008_45">
<rect width="495" height="222" fill="white" transform="translate(0 57)"/>
</clipPath>
</defs>
</svg>
