<svg width="620" height="273" viewBox="0 0 620 273" fill="none" xmlns="http://www.w3.org/2000/svg">
<g clip-path="url(#clip0_1008_68)">
<path d="M21.6191 133.949C21.7311 133.756 21.9093 133.562 22.1434 133.364C22.3776 133.17 22.6016 132.997 22.8103 132.854C22.963 132.758 23.0953 132.661 23.2022 132.564C23.8589 132.274 24.3832 132.126 24.7701 132.126C25.157 132.126 25.5846 132.274 26.0427 132.564C27.2339 132.854 28.2112 133.904 28.9799 135.701C29.1224 136.287 29.3617 137.189 29.6925 138.401C29.9063 139.277 30.1252 140.153 30.339 141.029C30.5528 141.905 30.7412 142.669 30.9041 143.326C31.067 143.983 31.1433 144.334 31.1382 144.385C31.1281 144.533 31.1688 144.737 31.2655 145.007C31.3622 145.277 31.4742 145.552 31.5913 145.847C31.7491 146.285 31.8916 146.845 32.0291 147.528C32.0952 147.869 32.1665 148.185 32.2378 148.475C32.3447 148.913 32.4261 149.362 32.4821 149.825C32.5381 150.288 32.5636 150.589 32.5483 150.737C32.6806 150.884 32.8435 151.261 33.0319 151.867C33.2202 152.479 33.3577 153.171 33.434 153.945C33.6427 154.872 33.8107 155.723 33.938 156.502C34.2485 157.964 34.503 159.095 34.7015 159.894C34.9001 160.699 35.0782 161.28 35.2411 161.646C35.404 162.013 35.5873 162.258 35.796 162.375C36.0047 162.497 36.2745 162.584 36.6105 162.629H36.7581C38.331 162.971 39.4051 163.75 39.9803 164.967C40.2501 165.212 40.3774 165.456 40.3519 165.696C40.3265 165.986 40.1483 166.327 39.8225 166.719C39.4815 167.305 38.9775 167.768 38.3158 168.105L37.0991 168.69V168.762C37.0737 168.955 37.1399 169.454 37.2926 170.259C37.4402 171.064 37.6235 171.925 37.8322 172.852C37.9594 173.58 38.0969 174.252 38.2394 174.858C38.3819 175.469 38.4583 175.943 38.4786 176.279C38.611 176.427 38.7077 176.692 38.7739 177.084C38.9266 177.573 39.1251 178.057 39.3746 178.546C39.5629 179.177 39.7003 179.666 39.792 180.008C39.8836 180.349 39.9192 180.619 39.904 180.812C39.8887 181.006 39.8378 181.164 39.7513 181.286C39.6647 181.408 39.5425 181.566 39.3797 181.76C39.3288 181.811 39.2728 181.856 39.2219 181.907C38.9571 182.152 38.6568 182.396 38.3208 182.636C37.9849 182.88 37.542 183.074 36.9922 183.221C36.5443 183.369 36.193 183.476 35.9436 183.552C35.6942 183.624 35.4447 183.659 35.2055 183.659C35.0121 183.659 34.783 183.624 34.5234 183.552C34.2638 183.481 33.9176 183.369 33.4951 183.221C32.2581 182.88 31.3368 182.177 30.7259 181.103C30.1151 180.033 29.4482 178.036 28.7305 175.118C28.3996 173.901 28.1349 172.857 27.9465 171.981C27.7531 171.105 27.6666 170.595 27.6818 170.448C27.7073 170.157 25.8645 170.06 22.1638 170.157H19.9749C18.3714 170.157 17.3431 170.366 16.8952 170.779C16.4472 171.191 15.9535 172.251 15.4139 173.952C15.2204 174.486 15.0015 175.072 14.7521 175.704C14.238 177.115 13.7442 178.21 13.2606 178.989C12.777 179.768 12.1662 180.496 11.4281 181.179C10.522 182.055 9.55478 182.712 8.52142 183.15C7.48806 183.588 6.2409 183.807 4.77995 183.807C3.75677 183.807 3.03393 183.771 2.60124 183.7C2.16855 183.629 1.77659 183.369 1.43044 182.936C0.417442 182.305 -0.0610589 181.622 0.00511678 180.894C0.0712925 180.115 0.763592 179.432 2.08202 178.851C2.7845 178.607 3.37499 178.23 3.85858 177.721C4.34217 177.211 4.86648 176.32 5.4417 175.057C6.01183 173.794 6.80085 171.869 7.80367 169.291C8.15491 168.028 8.61305 166.714 9.1679 165.349C9.41734 164.718 9.60568 164.208 9.73803 163.816C10.9394 160.653 12.0542 157.613 13.0875 154.694C13.9173 152.407 14.8132 149.952 15.7753 147.324C15.9993 146.448 16.2589 145.684 16.5592 145.027C16.8596 144.37 17.0886 143.968 17.2464 143.825C17.2566 143.677 17.3431 143.423 17.4959 143.061C17.6486 142.694 17.8115 142.368 17.9845 142.078C18.2696 141.054 18.6565 139.959 19.1452 138.793C19.6338 137.627 20.1174 136.593 20.5858 135.691C21.0541 134.79 21.3951 134.219 21.6089 133.975L21.6191 133.949ZM25.157 159.421C25.0093 158.3 24.7905 157.205 24.4952 156.136C24.3069 155.504 24.1847 154.969 24.1236 154.531C24.0269 153.945 23.9404 153.4 23.864 152.891C23.7876 152.382 23.7571 152.051 23.7673 151.908L23.6044 151.251C23.5535 151.251 23.472 151.373 23.355 151.618C23.3448 151.715 23.3142 151.811 23.2582 151.908C22.8154 153.074 22.2452 154.72 21.5529 156.833C20.8606 158.947 20.3618 160.592 20.0665 161.758C19.7255 162.344 19.5066 162.843 19.4251 163.256C19.3386 163.668 19.2928 163.949 19.2775 164.096C19.2673 164.193 19.532 164.244 20.0665 164.244C20.601 164.244 21.3493 164.198 22.3063 164.096C23.2633 163.999 24.1847 163.903 25.0653 163.806C25.1112 163.806 25.1621 163.78 25.2181 163.735C25.4624 163.735 25.6457 163.699 25.7729 163.628C25.9002 163.556 25.9714 163.419 25.9918 163.225C26.0325 162.787 25.8035 161.743 25.3199 160.088C25.2893 159.894 25.2333 159.675 25.157 159.431V159.421Z" fill="black"/>
<path d="M60.1792 139.277C60.6628 134.851 62.2561 132.467 64.9642 132.126C65.3103 132.08 65.6514 132.055 65.9924 132.055C67.6927 132.055 69.062 132.518 70.1004 133.44C70.1921 133.491 70.2735 133.562 70.3346 133.659C70.4008 133.756 70.4466 133.904 70.4771 134.097C70.5077 134.291 70.5077 134.606 70.4669 135.044C70.4262 135.482 70.3906 136.068 70.3499 136.796C70.3091 137.525 70.243 138.462 70.1411 139.608C70.0393 140.754 69.9172 142.149 69.7746 143.805C69.5456 146.433 69.342 149.183 69.1638 152.051C68.9856 154.923 68.8838 157.063 68.8584 158.473C68.67 162.268 68.39 166.307 68.0184 170.59C67.7792 173.315 67.545 175.714 67.316 177.782C67.0869 179.85 66.9342 181.031 66.8629 181.322C66.6237 181.811 66.3742 182.187 66.1095 182.452C65.8397 182.722 65.6616 182.855 65.5648 182.855C65.5139 182.855 65.4783 182.865 65.4529 182.89C65.4274 182.916 65.4121 182.951 65.407 182.997V183.069C65.2391 183.262 64.9336 183.4 64.4908 183.471C64.0479 183.542 63.5796 183.578 63.096 183.578H62.6582C61.1973 183.578 60.1792 182.702 59.6039 180.95C59.5327 180.659 59.497 180.364 59.497 180.074C59.497 179.783 59.5021 179.59 59.5123 179.488C59.5225 179.34 59.5123 179.233 59.4665 179.157C59.4258 179.086 59.3291 179.05 59.1865 179.05C59.0898 179.05 58.9676 179.075 58.8149 179.121H58.1583C57.3692 179.218 56.397 179.269 55.2262 179.269C54.3455 179.32 53.638 179.34 53.1035 179.34C52.6657 179.34 52.2788 179.33 51.9377 179.305C51.5967 179.279 51.2353 179.244 50.8535 179.198C50.711 179.152 50.543 179.126 50.3495 179.126C44.577 177.863 41.8689 175.159 42.2303 171.023C42.4797 168.15 44.0628 165.889 46.9797 164.234C47.7381 163.893 48.3948 163.628 48.9446 163.429C49.4943 163.236 50.1408 163.098 50.8738 163.027C51.612 162.955 52.6555 162.92 54.0197 162.92C55.4807 162.92 56.6668 162.971 57.583 163.067C57.9699 163.118 58.2092 163.139 58.3059 163.139C58.54 163.236 58.7284 163.286 58.876 163.286H59.0236L59.1051 162.339C59.1865 161.417 59.2578 160.052 59.3189 158.249C59.3901 155.234 59.5123 151.694 59.7007 147.63C59.8839 143.565 60.0417 140.779 60.1741 139.272L60.1792 139.277ZM58.8964 168.986C58.8862 168.548 58.8964 168.161 58.9269 167.819C58.9066 167.478 58.8964 167.198 58.8913 166.979C58.8862 166.76 58.876 166.602 58.8607 166.505C58.8455 166.409 58.8251 166.337 58.8047 166.286C58.7844 166.241 58.7284 166.19 58.6368 166.139C58.0106 166.042 57.2623 165.991 56.3868 165.991C55.5112 165.991 54.7528 166.042 54.1114 166.139C52.7828 166.332 51.7698 167.086 51.0673 168.4C50.711 169.128 50.5022 169.836 50.4462 170.519C50.3495 171.639 50.599 172.648 51.2047 173.549C51.8054 174.451 52.7013 175.047 53.8925 175.337C54.3252 175.388 54.88 175.434 55.557 175.485C56.2341 175.536 56.8653 175.556 57.4456 175.556C57.9292 175.556 58.3313 175.546 58.652 175.52C58.9676 175.495 59.1356 175.434 59.1407 175.337C59.0745 174.95 59.0185 174.11 58.9575 172.821C58.9015 171.532 58.876 170.254 58.8913 168.991L58.8964 168.986Z" fill="black"/>
<path d="M71.8872 153.874C72.1519 153.63 72.4522 153.411 72.7831 153.217C73.1139 153.024 73.4041 152.927 73.6484 152.927C73.9488 152.83 74.3815 152.769 74.9414 152.743C75.5014 152.718 76.0257 152.708 76.5144 152.708C78.6523 152.708 80.4136 153.416 81.7982 154.827C82.5465 155.703 83.2745 157.149 83.9719 159.171C84.6692 161.193 85.2394 163.322 85.6771 165.558C85.667 166.19 85.7128 166.505 85.8146 166.505C85.9622 166.505 86.344 165.726 86.965 164.168C87.637 162.609 88.4972 160.944 89.5561 159.166C90.6098 157.388 91.4293 156.212 92.0198 155.626C92.6867 154.653 93.8269 154.164 95.4304 154.164C97.0339 154.164 98.2098 154.653 98.9479 155.626C99.121 155.871 99.1974 156.115 99.177 156.355C99.1363 156.843 98.7239 157.623 97.9502 158.692C97.7262 159.034 97.5175 159.339 97.3241 159.604C97.1306 159.874 96.8965 160.2 96.6165 160.587C96.2551 161.366 95.8835 161.998 95.5017 162.487C94.0357 164.774 92.4831 167.814 90.8389 171.609C89.0114 175.261 87.6879 177.619 86.8632 178.688C86.5883 179.03 86.3338 179.442 86.0997 179.931C85.9266 180.221 85.5855 180.527 85.0714 180.843C84.5573 181.159 84.0482 181.393 83.5544 181.536C83.305 181.586 83.0352 181.607 82.7451 181.607C80.943 181.607 79.4465 180.099 78.2553 177.079C78.0211 176.447 77.7055 175.424 77.3187 174.013C76.9318 172.602 76.5551 171.217 76.1886 169.852C75.4301 166.836 74.8091 164.499 74.3204 162.843C73.8317 161.188 73.3787 159.95 72.9663 159.12C72.554 158.295 72.0959 157.658 71.6021 157.22C71.3781 156.976 71.205 156.757 71.0778 156.563C70.9505 156.37 70.8996 156.125 70.9251 155.835C70.9352 155.687 70.976 155.519 71.0421 155.326C71.0727 154.984 71.1338 154.72 71.2203 154.521C71.3119 154.327 71.5359 154.108 71.8973 153.864L71.8872 153.874Z" fill="black"/>
<path d="M103.763 157.236C104.731 156.166 105.978 155.239 107.505 154.46C109.032 153.681 110.554 153.217 112.076 153.074C112.814 152.978 113.522 152.927 114.204 152.927C116.54 152.927 118.597 153.558 120.384 154.827C121.066 155.361 121.656 156.008 122.15 156.762C122.644 157.516 122.934 158.208 123.026 158.84C123.046 159.13 123.046 159.451 123.016 159.787C122.929 160.76 122.552 161.769 121.875 162.818C121.198 163.867 120.185 164.876 118.836 165.848C118.628 165.996 118.398 166.118 118.149 166.215C117.945 166.312 117.793 166.409 117.686 166.505C117.579 166.602 117.421 166.724 117.218 166.872C117.009 167.02 116.78 167.162 116.525 167.31C115.502 167.896 114.367 168.359 113.12 168.695C111.873 169.037 110.814 169.205 109.938 169.205C109.597 169.205 109.307 169.179 109.068 169.133C108.686 169.037 108.401 168.853 108.202 168.588C108.009 168.324 107.917 168.089 107.933 167.896C107.953 167.651 108.111 167.386 108.406 167.091C108.696 166.801 108.996 166.607 109.297 166.505C109.495 166.46 109.836 166.312 110.32 166.067C110.804 165.823 111.323 165.558 111.888 165.263C112.448 164.972 112.911 164.702 113.272 164.458C114.199 163.872 114.988 163.179 115.645 162.38C116.296 161.575 116.652 160.882 116.703 160.302L116.714 160.154C116.775 159.472 116.49 158.84 115.858 158.254C115.227 157.669 114.57 157.378 113.893 157.378H113.675C112.947 157.378 112.173 157.719 111.358 158.402C110.544 159.084 109.877 159.935 109.348 160.959C109.348 161.01 109.312 161.056 109.261 161.107C108.971 161.641 108.727 162.089 108.523 162.456C108.319 162.823 108.172 163.261 108.08 163.77C107.989 164.28 107.897 165.023 107.81 165.996C107.749 166.679 107.719 167.198 107.709 167.565C107.698 167.931 107.709 168.232 107.739 168.476C107.765 168.721 107.836 169.037 107.948 169.424C107.983 169.571 108.019 169.74 108.05 169.933C108.63 171.639 109.368 172.928 110.264 173.804C110.671 174.145 111.017 174.349 111.302 174.425C111.587 174.497 111.852 174.532 112.097 174.532C112.534 174.532 113.023 174.374 113.563 174.059C114.102 173.743 114.82 173.172 115.721 172.342C116.831 171.318 117.742 170.616 118.46 170.223C118.765 170.076 119.004 169.979 119.177 169.933C119.35 169.887 119.61 169.862 119.951 169.862H120.827C122.384 169.862 123.331 170.152 123.667 170.738C123.967 171.176 124.095 171.665 124.049 172.2C123.952 173.32 123.28 174.476 122.033 175.668C120.786 176.86 119.208 177.823 117.294 178.551C115.568 179.381 113.613 179.794 111.425 179.794C105.54 179.794 101.768 177.018 100.114 171.471C99.7064 170.009 99.574 168.476 99.7115 166.872C99.7522 166.434 99.8184 165.95 99.91 165.41C100.231 162.298 101.513 159.573 103.763 157.236Z" fill="black"/>
<path d="M129.46 151.175C129.582 150.884 129.827 150.589 130.193 150.299C130.56 150.008 130.967 149.815 131.41 149.713C131.705 149.667 132.026 149.642 132.367 149.642C132.901 149.642 133.466 149.693 134.067 149.789C134.668 149.886 135.131 150.008 135.457 150.156C136.408 150.4 136.795 151.541 136.617 153.589C136.622 154.078 136.627 154.429 136.632 154.648C136.632 154.867 136.714 154.979 136.856 154.979C136.999 154.979 137.233 154.857 137.544 154.613C138.256 154.226 139.071 153.833 139.982 153.446C140.893 153.059 141.697 152.718 142.405 152.423C142.609 152.326 142.787 152.254 142.934 152.204C143.637 151.959 144.355 151.837 145.083 151.837C147.175 151.837 148.992 152.713 150.545 154.465C151.196 155.341 151.69 156.523 152.021 158.005C152.352 159.492 152.632 161.738 152.851 164.758C152.835 165.487 152.825 166.169 152.82 166.801C152.917 167.921 152.866 169.597 152.672 171.838C152.586 172.811 152.52 173.58 152.469 174.135C152.418 174.695 152.367 175.133 152.316 175.449C152.265 175.765 152.194 175.999 152.107 176.142C152.021 176.289 151.924 176.432 151.812 176.58C150.702 177.603 149.369 178.113 147.811 178.113C146.498 178.113 145.363 177.746 144.406 177.018C144.217 176.921 144.085 176.799 143.998 176.651C143.912 176.503 143.856 176.3 143.835 176.03C143.81 175.765 143.81 175.362 143.835 174.828C143.856 174.293 143.912 173.514 144.003 172.49L144.202 170.228C144.848 162.833 144.787 157.964 144.019 155.631C143.983 155.484 143.932 155.387 143.861 155.341C143.79 155.295 143.683 155.27 143.54 155.27H143.25C143.001 155.321 142.548 155.489 141.891 155.779C141.234 156.069 140.522 156.426 139.758 156.838C138.994 157.251 138.302 157.628 137.691 157.969C137.238 158.163 136.933 158.32 136.775 158.443C136.617 158.565 136.531 158.723 136.515 158.916C136.5 159.064 136.515 159.232 136.546 159.426C136.546 159.477 136.536 159.522 136.531 159.573C136.556 160.404 136.576 162.93 136.597 167.162C136.622 167.407 136.627 167.672 136.597 167.967C136.597 168.553 136.566 169.133 136.515 169.719C136.307 172.103 135.879 174.196 135.238 175.994C135.095 176.529 134.703 177.089 134.072 177.675C133.436 178.261 132.794 178.673 132.138 178.918C131.445 179.065 130.733 179.137 130.005 179.137C128.885 179.137 127.902 178.968 127.057 178.627C125.887 178.092 125.342 177.384 125.418 176.508C125.459 176.07 125.673 175.561 126.065 174.975C126.177 174.828 126.263 174.66 126.329 174.466C126.396 174.273 126.457 173.982 126.518 173.59C126.574 173.203 126.65 172.617 126.742 171.838C126.833 171.059 126.94 170.004 127.057 168.665C127.174 167.325 127.327 165.589 127.515 163.444C127.755 160.719 127.938 158.616 128.065 157.129C128.193 155.647 128.33 154.536 128.467 153.808C128.605 153.08 128.747 152.545 128.9 152.204C129.053 151.862 129.241 151.521 129.465 151.18L129.46 151.175Z" fill="black"/>
<path d="M162.736 133.511C163.266 133.027 163.78 132.686 164.284 132.488C164.981 132.294 165.648 132.197 166.279 132.197C167.592 132.197 168.738 132.467 169.71 133.002C171.069 133.588 171.527 136.409 171.085 141.467C171.044 141.905 171.008 142.343 170.967 142.781C170.881 143.219 170.815 143.708 170.769 144.243C170.56 145.506 170.331 146.993 170.087 148.694C170.087 148.745 170.092 148.766 170.117 148.766H170.224C170.418 148.766 170.764 148.72 171.258 148.618C171.456 148.572 171.655 148.521 171.853 148.47C172.199 148.424 172.505 148.384 172.775 148.358C173.044 148.333 173.273 148.322 173.472 148.322C173.859 148.322 174.317 148.373 174.846 148.47C176.165 148.959 176.791 149.565 176.73 150.294C176.689 150.783 176.307 151.241 175.59 151.679C175.177 151.923 174.475 152.178 173.482 152.443C172.484 152.713 171.395 152.968 170.204 153.212C169.954 153.263 169.766 153.334 169.639 153.431C169.506 153.528 169.394 153.701 169.303 153.94C169.206 154.185 169.109 154.597 169.013 155.183C168.972 155.672 168.84 156.619 168.616 158.03C168.392 159.441 168.163 160.974 167.923 162.629C167.791 164.137 167.598 165.624 167.353 167.081C167.104 168.543 166.905 169.561 166.758 170.147C166.625 171.12 166.518 172.047 166.442 172.923C166.325 174.237 166.294 175.306 166.345 176.137C166.391 176.967 166.539 177.379 166.783 177.379H166.854C166.951 177.379 167.089 177.222 167.262 176.906C167.435 176.59 167.587 176.239 167.72 175.846C167.74 175.602 167.878 175.286 168.132 174.899C168.387 174.512 168.646 174.171 168.916 173.875C169.125 173.682 169.308 173.534 169.466 173.437C169.618 173.34 169.817 173.29 170.061 173.29C170.209 173.29 170.423 173.315 170.713 173.361C171.441 173.361 171.996 173.447 172.367 173.616C172.739 173.789 173.156 174.043 173.614 174.379C174.18 175.108 174.424 175.963 174.337 176.936C174.236 178.103 173.721 179.249 172.8 180.369C170.799 182.121 168.509 182.997 165.933 182.997C164.33 182.997 162.757 182.61 161.219 181.831C160.476 181.444 159.794 180.909 159.173 180.227C158.552 179.544 158.185 179.009 158.073 178.622C158.038 178.474 158.002 178.332 157.966 178.184C157.936 177.991 157.9 177.843 157.86 177.746C157.819 177.649 157.753 177.598 157.656 177.598C157.58 177.354 157.58 176.371 157.656 174.644C157.732 172.918 157.87 170.936 158.068 168.695C158.196 167.234 158.353 165.726 158.537 164.173C158.878 161.937 159.158 160.108 159.382 158.697C159.712 156.558 159.911 155.122 159.977 154.389C160.003 154.098 160.008 153.879 159.998 153.731C159.987 153.584 159.947 153.502 159.875 153.477C159.804 153.451 159.743 153.441 159.697 153.441H159.478C159.234 153.441 158.949 153.395 158.618 153.293C158.282 153.248 157.992 153.222 157.748 153.222C157.223 153.074 156.785 152.81 156.434 152.417C156.078 152.03 155.91 151.715 155.935 151.47C156.027 150.446 156.999 149.866 158.862 149.718C159.448 149.672 159.87 149.57 160.13 149.428C160.384 149.28 160.583 148.964 160.725 148.48C160.863 147.997 161.011 147.166 161.163 146C161.214 145.414 161.275 144.711 161.347 143.881C161.484 142.857 161.596 141.839 161.688 140.815C161.764 139.939 161.815 139.088 161.84 138.258C161.932 137.234 161.998 136.445 162.049 135.885C162.1 135.325 162.156 134.912 162.232 134.642C162.304 134.377 162.37 134.158 162.436 133.985C162.497 133.817 162.609 133.654 162.767 133.511H162.736Z" fill="black"/>
<path d="M192.597 154.093C193.152 152.733 194.154 151.832 195.605 151.394C196.114 151.103 197.056 150.956 198.415 150.956C199.291 150.956 200.003 151.027 200.548 151.175C201.093 151.322 201.592 151.638 202.034 152.122C202.294 152.463 202.406 152.876 202.365 153.365C202.325 153.854 202.131 154.363 201.795 154.898C201.785 154.995 201.754 155.091 201.698 155.188C201.581 155.433 201.449 155.81 201.306 156.319C201.164 156.828 201.021 157.623 200.879 158.692C200.803 159.568 200.716 160.811 200.624 162.415C200.533 164.02 200.441 165.604 200.355 167.162C200.278 168.573 200.192 169.862 200.09 171.028C199.759 174.823 199.326 177.232 198.802 178.255C198.211 179.422 197.092 180.008 195.437 180.008H194.852C193.248 180.008 192.184 179.62 191.67 178.841C191.67 178.795 191.655 178.719 191.614 178.622C191.4 178.281 191.334 177.624 191.421 176.651C191.406 176.264 191.375 175.801 191.324 175.266C190.673 175.51 190.062 175.775 189.502 176.07C189.15 176.218 188.82 176.361 188.514 176.508C187.247 177.094 186.061 177.604 184.951 178.042C184.096 178.383 183.108 178.551 181.988 178.551C181.209 178.551 180.487 178.454 179.825 178.261C177.463 177.435 175.982 175.51 175.371 172.495C175.065 170.987 174.872 169.016 174.795 166.582C174.714 164.147 174.775 161.835 174.963 159.65C175.055 158.58 175.193 157.607 175.366 156.731C175.498 155.759 175.63 155.076 175.763 154.689C175.895 154.302 176.114 153.986 176.429 153.742C177.142 152.82 178.303 152.356 179.906 152.356H180.711C182.07 152.356 183.159 152.749 183.963 153.523C184.142 153.67 184.253 153.813 184.289 153.961C184.325 154.108 184.33 154.327 184.304 154.618C184.279 154.908 184.243 155.326 184.198 155.86C184.131 156.054 184.091 156.273 184.065 156.518C183.648 159.635 183.327 162.431 183.113 164.911C182.675 169.923 182.614 173.111 182.935 174.471C182.976 174.568 183.017 174.644 183.062 174.69C183.149 174.838 183.225 174.935 183.291 174.981C183.358 175.031 183.439 175.067 183.536 175.087C183.632 175.113 183.8 175.123 184.045 175.123C184.335 175.123 184.946 174.955 185.877 174.614C186.804 174.273 187.71 173.835 188.58 173.3C188.927 173.203 189.308 173.035 189.721 172.79C189.975 172.643 190.204 172.546 190.403 172.5C190.454 172.454 190.505 172.429 190.555 172.429C190.856 172.332 191.07 172.235 191.202 172.138C191.329 172.042 191.416 171.919 191.451 171.772C191.487 171.624 191.523 171.359 191.558 170.967C191.589 170.626 191.568 170.045 191.492 169.215C191.446 168.629 191.426 168.023 191.431 167.392C191.441 167.295 191.446 167.198 191.456 167.101C191.355 165.446 191.446 163.037 191.721 159.874L191.945 157.317C192.037 156.293 192.123 155.58 192.205 155.163C192.286 154.75 192.419 154.399 192.587 154.103L192.597 154.093Z" fill="black"/>
<path d="M207.481 150.299C207.909 150.105 208.403 149.932 208.947 149.789C209.482 149.789 210.016 149.815 210.546 149.861C211.075 149.912 211.599 150.054 212.113 150.299C213.284 150.788 213.783 152.051 213.605 154.093L213.559 154.602C213.518 155.091 213.544 155.331 213.641 155.331C213.737 155.331 213.941 155.209 214.257 154.964C214.307 154.918 214.384 154.867 214.486 154.816C215.621 154.037 216.608 153.467 217.443 153.1C218.278 152.733 219.204 152.555 220.228 152.555C221.734 152.555 222.864 152.871 223.608 153.502C224.356 154.134 225.023 155.254 225.613 156.859C225.924 157.735 226.051 158.539 225.985 159.268C225.924 159.95 225.685 160.485 225.262 160.872C224.275 161.601 223.124 161.967 221.811 161.967C221.129 161.967 220.436 161.845 219.729 161.601C218.487 161.31 217.815 160.383 217.708 158.825C217.698 158.387 217.652 158.081 217.57 157.913C217.489 157.745 217.346 157.658 217.153 157.658C217.005 157.658 216.781 157.709 216.486 157.806C216.272 158 216.003 158.173 215.677 158.315C215.346 158.463 215.056 158.585 214.806 158.682C214.659 158.733 214.531 158.779 214.43 158.83C214.078 158.978 213.824 159.11 213.666 159.232C213.508 159.354 213.427 159.487 213.412 159.635C213.396 159.828 213.422 160.073 213.493 160.363C213.468 160.653 213.457 161.631 213.457 163.281C213.457 164.351 213.457 165.471 213.457 166.638C213.468 168.731 213.406 170.58 213.264 172.184C212.999 175.199 212.556 177.222 211.93 178.24C210.617 179.895 208.723 180.721 206.244 180.721C203.47 180.721 202.075 179.748 202.05 177.802C202.09 177.364 202.248 176.901 202.538 176.417C202.65 176.223 202.757 176.03 202.844 175.831C202.935 175.638 203.012 175.322 203.073 174.884C203.134 174.446 203.215 173.814 203.312 172.984C203.409 172.159 203.521 171.028 203.643 169.592C203.77 168.156 203.928 166.322 204.127 164.081C204.381 161.163 204.59 158.886 204.758 157.256C204.926 155.626 205.078 154.424 205.221 153.645C205.364 152.866 205.532 152.295 205.735 151.928C205.939 151.562 206.198 151.21 206.519 150.869L206.601 150.798C206.758 150.65 207.054 150.482 207.486 150.288L207.481 150.299Z" fill="black"/>
<path d="M228.047 161.611C228.474 159.517 229.166 158.254 230.129 157.816C230.388 157.623 230.678 157.485 231.004 157.414C231.325 157.343 231.656 157.307 231.997 157.307C232.434 157.307 232.786 157.343 233.045 157.414C233.305 157.485 233.615 157.694 233.977 158.035C234.237 158.377 234.435 158.753 234.572 159.166C234.705 159.579 234.827 160.149 234.934 160.882C235.041 161.611 235.127 162.685 235.199 164.096C235.199 166.918 235.082 169.597 234.863 172.123C234.639 174.706 234.338 176.722 233.967 178.179C233.509 179.493 233.01 180.517 232.46 181.245C231.91 181.974 231.228 182.534 230.419 182.926C229.859 183.216 229.39 183.4 229.019 183.471C228.647 183.542 228.123 183.578 227.441 183.578C227.146 183.629 226.876 183.649 226.631 183.649C224.88 183.649 223.857 183.114 223.562 182.045C223.399 181.704 223.328 181.413 223.348 181.169C223.358 181.021 223.414 180.838 223.506 180.624C223.597 180.405 223.755 180.125 223.979 179.783C224.488 178.958 224.916 177.838 225.257 176.427C225.598 175.016 225.832 173.58 225.959 172.118C226.061 171.487 226.239 170.56 226.494 169.342C226.754 168.028 227.018 166.653 227.293 165.217C227.563 163.781 227.817 162.579 228.047 161.606V161.611ZM228.179 151.755C228.321 150.151 229.019 149.081 230.281 148.542C230.734 148.348 231.228 148.251 231.768 148.251C232.399 148.251 233.01 148.358 233.6 148.582C234.191 148.801 234.639 149.107 234.944 149.494C235.168 149.738 235.331 150.324 235.448 151.246C235.402 151.781 235.351 152.209 235.3 152.524C235.249 152.84 235.163 153.095 235.051 153.288C234.771 153.726 234.267 154.068 233.539 154.312C232.811 154.557 232.083 154.679 231.355 154.679C230.673 154.679 230.073 154.582 229.558 154.389C228.958 154.047 228.545 153.742 228.327 153.477C228.108 153.212 228.016 152.881 228.047 152.489C228.067 152.244 228.113 152.005 228.184 151.76L228.179 151.755Z" fill="black"/>
<path d="M240.192 151.175C240.315 150.884 240.559 150.589 240.925 150.299C241.292 150.008 241.699 149.815 242.142 149.713C242.437 149.667 242.758 149.642 243.099 149.642C243.633 149.642 244.199 149.693 244.799 149.789C245.4 149.886 245.863 150.008 246.189 150.156C247.141 150.4 247.528 151.541 247.349 153.589C247.355 154.078 247.36 154.429 247.365 154.648C247.365 154.867 247.446 154.979 247.589 154.979C247.731 154.979 247.965 154.857 248.276 154.613C248.989 154.226 249.803 153.833 250.714 153.446C251.625 153.059 252.43 152.718 253.137 152.423C253.341 152.326 253.519 152.254 253.667 152.204C254.369 151.959 255.087 151.837 255.815 151.837C257.907 151.837 259.724 152.713 261.277 154.465C261.929 155.341 262.422 156.523 262.753 158.005C263.084 159.492 263.364 161.738 263.583 164.758C263.568 165.487 263.557 166.169 263.552 166.801C263.649 167.921 263.598 169.597 263.405 171.838C263.318 172.811 263.252 173.58 263.201 174.135C263.15 174.695 263.099 175.133 263.048 175.449C262.997 175.765 262.926 175.999 262.84 176.142C262.753 176.289 262.656 176.432 262.544 176.58C261.435 177.603 260.101 178.113 258.543 178.113C257.23 178.113 256.095 177.746 255.138 177.018C254.95 176.921 254.817 176.799 254.731 176.651C254.644 176.503 254.588 176.3 254.568 176.03C254.542 175.765 254.542 175.362 254.568 174.828C254.588 174.293 254.644 173.514 254.736 172.49L254.934 170.228C255.581 162.833 255.52 157.964 254.751 155.631C254.715 155.484 254.664 155.387 254.593 155.341C254.522 155.295 254.415 155.27 254.272 155.27H253.982C253.733 155.321 253.28 155.489 252.623 155.779C251.967 156.069 251.254 156.426 250.49 156.838C249.727 157.251 249.034 157.628 248.424 157.969C247.971 158.163 247.665 158.32 247.507 158.443C247.349 158.565 247.263 158.723 247.248 158.916C247.232 159.064 247.248 159.232 247.278 159.426C247.278 159.477 247.268 159.522 247.263 159.573C247.288 160.404 247.309 162.93 247.329 167.162C247.355 167.407 247.36 167.672 247.329 167.967C247.329 168.553 247.299 169.133 247.248 169.719C247.039 172.103 246.611 174.196 245.97 175.994C245.827 176.529 245.435 177.089 244.804 177.675C244.168 178.261 243.527 178.673 242.87 178.918C242.178 179.065 241.465 179.137 240.737 179.137C239.617 179.137 238.635 178.968 237.79 178.627C236.619 178.092 236.074 177.384 236.151 176.508C236.191 176.07 236.405 175.561 236.797 174.975C236.909 174.828 236.996 174.66 237.062 174.466C237.128 174.273 237.189 173.982 237.25 173.59C237.306 173.203 237.382 172.617 237.474 171.838C237.566 171.059 237.673 170.004 237.79 168.665C237.907 167.325 238.059 165.589 238.248 163.444C238.487 160.719 238.67 158.616 238.798 157.129C238.925 155.647 239.062 154.536 239.2 153.808C239.337 153.08 239.48 152.545 239.632 152.204C239.785 151.862 239.973 151.521 240.197 151.18L240.192 151.175Z" fill="black"/>
<path d="M283.227 147.09C283.629 146.942 283.955 146.8 284.214 146.652C284.622 146.458 284.897 146.362 285.044 146.362C285.243 146.316 285.441 146.29 285.635 146.29C286.413 146.29 287.233 146.474 288.103 146.835C288.969 147.202 289.529 147.625 289.778 148.114C289.906 148.307 289.941 148.903 289.875 149.901C289.814 150.9 289.727 152.03 289.615 153.293C289.447 154.073 289.315 155.071 289.208 156.288C288.923 159.548 288.76 163.928 288.714 169.424C288.363 177.889 288.068 183.486 287.829 186.211C287.722 187.428 287.605 188.34 287.477 188.946C287.35 189.552 287.213 190.148 287.065 190.734C286.744 191.61 286.469 192.267 286.235 192.705C286.001 193.143 285.67 193.606 285.238 194.09C282.881 196.036 280.412 197.009 277.831 197.009C275.25 197.009 273.194 196.107 271.356 194.309C270.506 193.479 270.124 192.532 270.221 191.462C270.256 191.07 270.338 190.658 270.475 190.219C270.536 189.537 270.74 189.017 271.086 188.651C271.432 188.284 272.069 187.861 272.985 187.372C273.489 187.179 273.957 187.082 274.395 187.082C275.754 187.082 276.67 188.029 277.139 189.929C277.393 190.902 277.643 191.391 277.887 191.391C278.228 191.391 278.493 190.321 278.681 188.182C278.747 187.454 278.793 186.598 278.834 185.625C278.9 184.311 278.956 182.85 278.997 181.245C279.083 179.152 279.165 177.099 279.246 175.077C279.322 173.06 279.389 171.354 279.44 169.969C279.485 168.583 279.465 167.891 279.368 167.891C279.378 167.794 279.333 167.743 279.236 167.743C279.139 167.743 279.017 167.768 278.864 167.814C278.666 167.865 278.396 167.886 278.055 167.886C277.75 168.033 277.215 168.156 276.457 168.252C275.693 168.349 274.924 168.4 274.145 168.4C270.592 168.4 268.108 167.621 266.688 166.062C265.314 165.089 264.484 163.724 264.199 161.977C264.133 161.59 264.122 161.173 264.163 160.735C264.275 159.472 264.698 158.254 265.431 157.083C265.588 156.935 265.746 156.793 265.909 156.645C266.225 156.355 266.556 156.049 266.902 155.733C267.248 155.417 267.564 155.137 267.849 154.893C268.139 154.648 268.327 154.526 268.429 154.526C269.03 154.333 269.554 154.159 270.007 154.017C270.918 153.63 271.901 153.36 272.959 153.212C274.018 153.064 275.372 152.993 277.027 152.993H278.411C279.19 152.993 279.674 152.896 279.857 152.703C280.045 152.509 280.218 152.046 280.381 151.317C280.453 151.073 280.524 150.783 280.605 150.441C281.053 148.643 281.929 147.523 283.232 147.085L283.227 147.09ZM279.608 161.758C279.725 160.399 279.755 159.227 279.694 158.254C279.684 157.816 279.684 157.526 279.694 157.378C279.694 157.332 279.674 157.307 279.628 157.307C279.602 157.062 279.557 156.894 279.49 156.798C279.424 156.701 279.287 156.64 279.068 156.614C278.849 156.589 278.498 156.579 278.014 156.579C275.484 156.579 273.708 157.455 272.679 159.207C272.328 159.889 272.125 160.546 272.069 161.178C271.977 162.247 272.231 163.174 272.847 163.954C273.458 164.733 274.319 165.196 275.423 165.339C275.708 165.436 275.993 165.487 276.283 165.487C276.574 165.487 276.869 165.461 277.164 165.415C277.459 165.37 277.729 165.344 277.974 165.344H278.045C278.442 165.247 278.742 165.135 278.951 165.013C279.154 164.891 279.292 164.6 279.358 164.137C279.424 163.674 279.506 162.884 279.602 161.764L279.608 161.758Z" fill="black"/>
<path d="M312.008 161.611C312.436 159.517 313.128 158.254 314.09 157.816C314.35 157.623 314.64 157.485 314.966 157.414C315.286 157.343 315.617 157.307 315.958 157.307C316.396 157.307 316.747 157.343 317.007 157.414C317.267 157.485 317.577 157.694 317.939 158.035C318.198 158.377 318.397 158.753 318.534 159.166C318.666 159.579 318.789 160.149 318.896 160.882C319.002 161.611 319.089 162.685 319.16 164.096C319.16 166.918 319.043 169.597 318.824 172.123C318.6 174.706 318.3 176.722 317.928 178.179C317.475 179.493 316.971 180.517 316.422 181.245C315.872 181.974 315.19 182.534 314.38 182.926C313.82 183.216 313.352 183.4 312.98 183.471C312.609 183.542 312.085 183.578 311.402 183.578C311.107 183.629 310.837 183.649 310.593 183.649C308.842 183.649 307.819 183.114 307.524 182.045C307.361 181.704 307.289 181.413 307.31 181.169C307.32 181.021 307.376 180.838 307.468 180.624C307.559 180.405 307.717 180.125 307.941 179.783C308.45 178.958 308.878 177.838 309.219 176.427C309.56 175.016 309.794 173.58 309.921 172.118C310.023 171.487 310.201 170.56 310.456 169.342C310.715 168.028 310.98 166.653 311.255 165.217C311.525 163.781 311.779 162.579 312.008 161.606V161.611ZM312.141 151.755C312.283 150.151 312.98 149.081 314.243 148.542C314.696 148.348 315.19 148.251 315.729 148.251C316.361 148.251 316.971 148.358 317.562 148.582C318.152 148.801 318.6 149.107 318.906 149.494C319.125 149.738 319.293 150.324 319.41 151.246C319.364 151.781 319.313 152.209 319.262 152.524C319.211 152.84 319.125 153.095 319.013 153.288C318.733 153.726 318.229 154.068 317.501 154.312C316.773 154.557 316.045 154.679 315.317 154.679C314.635 154.679 314.034 154.582 313.52 154.389C312.919 154.047 312.507 153.742 312.288 153.477C312.069 153.212 311.978 152.881 312.008 152.489C312.029 152.244 312.074 152.005 312.146 151.76L312.141 151.755Z" fill="black"/>
<path d="M324.159 151.175C324.281 150.884 324.526 150.589 324.892 150.299C325.259 150.008 325.666 149.815 326.109 149.713C326.404 149.667 326.725 149.642 327.066 149.642C327.6 149.642 328.165 149.693 328.766 149.789C329.367 149.886 329.83 150.008 330.156 150.156C331.108 150.4 331.494 151.541 331.316 153.589C331.321 154.078 331.326 154.429 331.332 154.648C331.332 154.867 331.413 154.979 331.555 154.979C331.698 154.979 331.932 154.857 332.243 154.613C332.955 154.226 333.77 153.833 334.681 153.446C335.592 153.059 336.396 152.718 337.104 152.423C337.308 152.326 337.486 152.254 337.633 152.204C338.336 151.959 339.054 151.837 339.782 151.837C341.874 151.837 343.691 152.713 345.244 154.465C345.895 155.341 346.389 156.523 346.72 158.005C347.051 159.492 347.331 161.738 347.55 164.758C347.534 165.487 347.524 166.169 347.519 166.801C347.616 167.921 347.565 169.597 347.371 171.838C347.285 172.811 347.219 173.58 347.168 174.135C347.117 174.695 347.066 175.133 347.015 175.449C346.964 175.765 346.893 175.999 346.806 176.142C346.72 176.289 346.623 176.432 346.511 176.58C345.401 177.603 344.068 178.113 342.51 178.113C341.197 178.113 340.062 177.746 339.105 177.018C338.916 176.921 338.784 176.799 338.697 176.651C338.611 176.503 338.555 176.3 338.534 176.03C338.509 175.765 338.509 175.362 338.534 174.828C338.555 174.293 338.611 173.514 338.702 172.49L338.901 170.228C339.547 162.833 339.486 157.964 338.718 155.631C338.682 155.484 338.631 155.387 338.56 155.341C338.494 155.295 338.382 155.27 338.239 155.27H337.949C337.7 155.321 337.247 155.489 336.59 155.779C335.933 156.069 335.221 156.426 334.457 156.838C333.693 157.251 333.001 157.628 332.39 157.969C331.937 158.163 331.632 158.32 331.474 158.443C331.316 158.565 331.23 158.723 331.214 158.916C331.204 159.064 331.214 159.232 331.245 159.426C331.245 159.477 331.235 159.522 331.23 159.573C331.255 160.404 331.276 162.93 331.296 167.162C331.321 167.407 331.321 167.672 331.296 167.967C331.296 168.553 331.265 169.133 331.214 169.719C331.006 172.103 330.578 174.196 329.937 175.994C329.794 176.529 329.402 177.089 328.771 177.675C328.135 178.261 327.493 178.673 326.837 178.918C326.144 179.065 325.432 179.137 324.704 179.137C323.584 179.137 322.601 178.968 321.756 178.627C320.586 178.092 320.041 177.384 320.117 176.508C320.158 176.07 320.372 175.561 320.764 174.975C320.876 174.828 320.962 174.66 321.028 174.466C321.095 174.273 321.156 173.982 321.217 173.59C321.273 173.203 321.349 172.617 321.441 171.838C321.532 171.059 321.639 170.004 321.756 168.665C321.873 167.325 322.026 165.589 322.215 163.444C322.454 160.719 322.637 158.616 322.764 157.129C322.892 155.647 323.029 154.536 323.166 153.808C323.304 153.08 323.446 152.545 323.599 152.204C323.752 151.862 323.94 151.521 324.164 151.18L324.159 151.175Z" fill="black"/>
<path d="M392.345 93.9573C400.001 89.1697 411.099 82.854 421.056 84.1783C428.503 85.1715 432.331 87.5704 432.331 94.3444C432.331 97.5226 431.379 101.123 429.47 105.147C427.566 109.176 421.117 123.804 410.976 138.931C399.564 155.952 392.9 166.796 390.258 168.706C389.515 169.235 389.149 169.658 389.149 169.979C389.887 170.402 392.534 170.616 397.09 170.616H417.019C419.717 170.616 421.544 170.407 422.496 169.979C422.812 169.877 423.448 169.607 424.4 169.184C425.352 168.762 426.253 168.548 427.098 168.548C428.579 168.548 429.852 169.159 430.911 170.376C431.969 171.594 432.499 172.948 432.499 174.431C432.499 176.87 430.855 178.51 427.576 179.356C419.528 181.159 411.165 182.351 402.486 182.931C393.801 183.517 383.956 183.807 372.951 183.807C369.352 183.807 366.44 183.328 364.216 182.376C361.991 181.424 360.881 179.356 360.881 176.177C360.881 174.273 361.65 172.633 363.182 171.252C364.715 169.877 366.807 168.446 369.454 166.964C374.615 164.01 389.602 149.738 400.19 133.904C409.353 120.203 420.857 101.236 419.462 96.2544C419.233 95.4394 418.826 94.981 417.558 94.981C416.291 94.981 413.664 94.0541 405.586 97.4411C397.512 100.828 394.198 107.077 393.46 107.714C393.038 108.03 392.427 108.641 391.633 109.543C390.839 110.444 389.963 110.892 389.011 110.892C387.525 110.892 386.018 110.256 384.486 108.987C382.949 107.714 382.185 106.339 382.185 104.857C382.185 101.256 387.214 97.1711 392.345 93.9624V93.9573Z" fill="black"/>
<path d="M438.307 185.549C435.66 183.008 433.7 179.804 432.433 175.938C431.16 172.072 430.529 168.232 430.529 164.417C430.529 159.441 431.058 152.876 432.117 144.717C433.176 136.562 434.601 131.423 436.403 129.304C437.04 128.459 437.696 127.873 438.389 127.557C439.076 127.242 439.951 127.079 441.01 127.079C442.069 127.079 442.807 127.237 443.235 127.557L443.871 127.715C444.609 127.715 445.378 127.613 446.172 127.4C446.966 127.191 447.521 127.028 447.841 126.921C449.216 126.391 450.488 126.126 451.654 126.126C456.312 126.126 459.885 126.819 462.375 128.194C464.859 129.574 466.686 131.586 467.852 134.23C469.018 136.878 469.97 140.586 470.713 145.353C470.921 146.52 471.028 148.216 471.028 150.436C471.028 154.781 470.713 158.433 470.076 161.397C469.226 165.319 467.852 169.419 465.948 173.712C464.044 178.006 461.581 181.683 458.562 184.755C455.543 187.826 452.133 189.364 448.32 189.364C444.293 189.364 440.959 188.091 438.317 185.549H438.307ZM453.395 172.123C455.192 168.894 456.597 165.161 457.605 160.923C458.608 156.691 459.112 153.35 459.112 150.915C459.112 147.635 458.74 144.986 458.002 142.97C457.259 140.958 455.513 139.949 452.764 139.949C451.176 139.949 449.587 140.214 447.999 140.744C445.561 141.594 443.764 144.849 442.598 150.518C441.433 156.187 440.852 161.244 440.852 165.691C440.852 168.13 441.382 170.616 442.44 173.157C443.499 175.699 445.088 176.972 447.205 176.972C449.531 176.972 451.598 175.357 453.4 172.128L453.395 172.123Z" fill="black"/>
<path d="M495.091 130.496C500.914 128.856 506.31 128.036 511.289 128.036C518.802 128.036 522.564 131.428 522.564 138.202C522.564 141.38 521.612 144.981 519.703 149.005C517.799 153.034 515.386 156.844 512.48 160.444C509.568 164.045 506.789 166.801 504.142 168.706C503.398 169.235 503.032 169.658 503.032 169.979C503.77 170.402 506.417 170.616 510.973 170.616H530.902C533.6 170.616 535.427 170.407 536.379 169.979C536.695 169.877 537.331 169.607 538.283 169.184C539.235 168.762 540.136 168.548 540.981 168.548C542.462 168.548 543.735 169.159 544.794 170.376C545.853 171.594 546.382 172.948 546.382 174.43C546.382 176.87 544.738 178.51 541.46 179.356C533.412 181.159 525.048 182.35 516.369 182.931C507.685 183.517 497.84 183.807 486.834 183.807C483.235 183.807 480.323 183.328 478.099 182.376C475.874 181.423 474.765 179.356 474.765 176.177C474.765 174.273 475.533 172.633 477.066 171.252C478.598 169.877 480.69 168.446 483.337 166.964C492.968 161.458 501.067 153.884 507.634 144.243C509.008 142.338 509.7 140.963 509.7 140.112C509.7 139.262 509.064 138.839 507.797 138.839C506.529 138.839 504.702 139.078 502.319 139.552C499.937 140.031 498.374 140.586 497.636 141.217C497.214 141.533 496.603 142.144 495.809 143.046C495.014 143.947 494.139 144.396 493.187 144.396C491.701 144.396 490.194 143.759 488.662 142.491C487.124 141.217 486.361 139.842 486.361 138.36C486.361 134.759 489.272 132.136 495.096 130.496H495.091Z" fill="black"/>
<path d="M569.981 142.888C570.719 140.189 571.463 136.134 572.206 130.736C573.265 122.79 574.563 116.673 576.095 112.385C577.627 108.096 580.142 105.952 583.639 105.952C585.013 105.952 586.205 106.268 587.213 106.904C588.215 107.541 588.719 108.493 588.719 109.767C588.719 112.206 587.9 117.025 586.256 124.226C584.611 131.428 583.211 136.883 582.046 140.591C581.409 142.18 581.094 143.189 581.094 143.611C581.094 143.825 581.252 144.009 581.572 144.166C581.888 144.324 582.153 144.406 582.366 144.406C583.848 144.406 585.461 144.304 587.207 144.09C588.953 143.881 590.196 143.718 590.939 143.611C594.115 143.082 596.971 142.817 599.516 142.817C600.682 142.817 601.685 143.163 602.535 143.851C603.38 144.538 603.807 145.465 603.807 146.632C603.807 147.798 603.278 148.99 602.219 150.207C601.16 151.424 599.995 152.458 598.727 153.304C597.032 154.47 593.112 155.687 586.978 156.956C581.577 158.229 578.564 159.232 577.928 159.976C577.184 160.72 576.579 162.12 576.1 164.188C575.622 166.256 575.016 169.353 574.273 173.483C573.107 180.583 553.198 262.946 551.824 266.97C550.444 270.998 548.49 273.005 545.949 273.005C544.468 273.005 543.353 272.262 542.615 270.779C541.872 269.297 541.505 267.708 541.505 266.012C541.505 263.893 560.386 184.974 560.859 182.855C561.338 180.736 562.05 178.245 563.002 175.388C563.104 174.858 563.45 173.616 564.036 171.655C564.616 169.694 565.039 167.896 565.308 166.251C565.573 164.611 565.705 163.047 565.705 161.565C565.705 160.613 565.12 159.925 563.959 159.497C562.794 159.074 561.048 158.703 558.721 158.387C555.438 157.964 552.766 157.434 550.704 156.798C548.637 156.161 546.815 154.918 545.227 153.064C543.638 151.21 542.844 148.536 542.844 145.043C542.844 139.959 543.292 135.646 544.193 132.096C545.089 128.546 546.759 124.868 549.197 121.053C551.101 117.982 552.954 116.444 554.756 116.444C555.601 116.444 556.395 116.867 557.138 117.717C557.876 118.568 558.248 119.413 558.248 120.259C558.248 121.104 557.983 121.929 557.454 122.724C556.924 123.518 556.604 124.023 556.502 124.232C554.17 128.046 553.01 133.022 553.01 139.165C553.01 141.706 553.219 143.453 553.646 144.406C554.069 145.358 554.73 145.944 555.631 146.153C556.527 146.367 558.462 146.576 561.429 146.79C562.595 146.896 564.341 146.947 566.667 146.947C568.149 146.947 569.259 145.598 570.002 142.893L569.981 142.888Z" fill="black"/>
<path d="M612.156 176.203C612.68 175.026 613.377 174.018 614.243 173.183C615.108 172.347 616.009 171.93 616.936 171.93C617.801 171.93 618.341 172.271 618.559 172.953C618.773 173.636 618.885 174.532 618.885 175.648C618.885 177.568 618.559 179.427 617.908 181.22C617.256 183.018 616.126 183.914 614.518 183.914C613.647 183.914 612.909 183.39 612.288 182.335C611.667 181.281 611.362 180.293 611.362 179.361C611.362 178.429 611.626 177.38 612.151 176.203H612.156ZM612.853 145.083C613.78 138.146 614.553 134.367 615.174 133.751C615.668 133.257 616.162 133.007 616.661 133.007C618.086 133.007 618.997 134.342 619.399 137C619.802 139.664 620.005 142.42 620.005 145.267V150.375C620.005 151.491 619.852 153.039 619.542 155.02C619.231 157.001 618.738 158.784 618.056 160.363C617.373 161.942 616.508 162.731 615.454 162.731C614.156 162.731 613.164 162.36 612.481 161.616C611.799 160.872 611.458 159.849 611.458 158.55C611.458 156.507 611.922 152.015 612.853 145.078V145.083Z" fill="black"/>
</g>
<path d="M23.0391 3.40625C23.0391 3.70313 23.0234 3.96094 22.9922 4.17969C22.9609 4.39844 22.9062 4.57812 22.8281 4.71875C22.7656 4.84375 22.6797 4.9375 22.5703 5C22.4766 5.0625 22.3672 5.09375 22.2422 5.09375H13.7109V31.3906C13.7109 31.5156 13.6797 31.625 13.6172 31.7188C13.5547 31.8125 13.4453 31.8906 13.2891 31.9531C13.1328 32 12.9219 32.0391 12.6562 32.0703C12.4062 32.1172 12.0859 32.1406 11.6953 32.1406C11.3203 32.1406 11 32.1172 10.7344 32.0703C10.4688 32.0391 10.2578 32 10.1016 31.9531C9.94531 31.8906 9.83594 31.8125 9.77344 31.7188C9.71094 31.625 9.67969 31.5156 9.67969 31.3906V5.09375H1.14844C1.02344 5.09375 0.90625 5.0625 0.796875 5C0.703125 4.9375 0.625 4.84375 0.5625 4.71875C0.5 4.57812 0.445312 4.39844 0.398438 4.17969C0.367188 3.96094 0.351562 3.70313 0.351562 3.40625C0.351562 3.10937 0.367188 2.85156 0.398438 2.63281C0.445312 2.39844 0.5 2.21094 0.5625 2.07031C0.625 1.92969 0.703125 1.82813 0.796875 1.76562C0.90625 1.70312 1.02344 1.67188 1.14844 1.67188H22.2422C22.3672 1.67188 22.4766 1.70312 22.5703 1.76562C22.6797 1.82813 22.7656 1.92969 22.8281 2.07031C22.9062 2.21094 22.9609 2.39844 22.9922 2.63281C23.0234 2.85156 23.0391 3.10937 23.0391 3.40625ZM47.3428 30.5703C47.4678 30.9141 47.5303 31.1953 47.5303 31.4141C47.5459 31.6172 47.4912 31.7734 47.3662 31.8828C47.2412 31.9922 47.0303 32.0625 46.7334 32.0938C46.4522 32.125 46.0694 32.1406 45.585 32.1406C45.1006 32.1406 44.71 32.125 44.4131 32.0938C44.1319 32.0781 43.9131 32.0469 43.7569 32C43.6162 31.9375 43.5069 31.8594 43.4287 31.7656C43.3662 31.6719 43.3037 31.5547 43.2412 31.4141L40.6397 24.0312H28.0303L25.5459 31.3203C25.4991 31.4609 25.4366 31.5859 25.3584 31.6953C25.2803 31.7891 25.1631 31.875 25.0069 31.9531C24.8662 32.0156 24.6553 32.0625 24.3741 32.0938C24.1084 32.125 23.7569 32.1406 23.3194 32.1406C22.8662 32.1406 22.4912 32.1172 22.1944 32.0703C21.9131 32.0391 21.71 31.9688 21.585 31.8594C21.4756 31.75 21.4209 31.5938 21.4209 31.3906C21.4366 31.1719 21.5069 30.8906 21.6319 30.5469L31.8037 2.375C31.8662 2.20313 31.9444 2.0625 32.0381 1.95312C32.1475 1.84375 32.2959 1.75781 32.4834 1.69531C32.6866 1.63281 32.9366 1.59375 33.2334 1.57812C33.5459 1.54688 33.9366 1.53125 34.4053 1.53125C34.9053 1.53125 35.3194 1.54688 35.6475 1.57812C35.9756 1.59375 36.2412 1.63281 36.4444 1.69531C36.6475 1.75781 36.8037 1.85156 36.9131 1.97656C37.0225 2.08594 37.1084 2.22656 37.1709 2.39844L47.3428 30.5703ZM34.2881 5.70312H34.2647L29.0381 20.8203H39.585L34.2881 5.70312ZM57.42 31.3906C57.42 31.5156 57.3887 31.625 57.3262 31.7188C57.2637 31.8125 57.1544 31.8906 56.9981 31.9531C56.8419 32 56.6309 32.0391 56.3653 32.0703C56.1153 32.1172 55.795 32.1406 55.4044 32.1406C55.0294 32.1406 54.7091 32.1172 54.4434 32.0703C54.1778 32.0391 53.9669 32 53.8106 31.9531C53.6544 31.8906 53.545 31.8125 53.4825 31.7188C53.42 31.625 53.3887 31.5156 53.3887 31.3906V2.28125C53.3887 2.15625 53.42 2.04688 53.4825 1.95312C53.5606 1.85938 53.6778 1.78906 53.8341 1.74219C54.0059 1.67969 54.2169 1.63281 54.4669 1.60156C54.7325 1.55469 55.045 1.53125 55.4044 1.53125C55.795 1.53125 56.1153 1.55469 56.3653 1.60156C56.6309 1.63281 56.8419 1.67969 56.9981 1.74219C57.1544 1.78906 57.2637 1.85938 57.3262 1.95312C57.3887 2.04688 57.42 2.15625 57.42 2.28125V31.3906ZM95.4816 31.1094C95.4191 31.3281 95.3253 31.5078 95.2003 31.6484C95.0753 31.7734 94.9034 31.875 94.6847 31.9531C94.4659 32.0156 94.1925 32.0625 93.8644 32.0938C93.5519 32.125 93.1613 32.1406 92.6925 32.1406C92.2081 32.1406 91.7941 32.125 91.4503 32.0938C91.1222 32.0625 90.8488 32.0156 90.63 31.9531C90.4113 31.875 90.2472 31.7734 90.1378 31.6484C90.0284 31.5078 89.9425 31.3281 89.88 31.1094L83.5284 8.21094H83.4816L77.6222 31.1094C77.5753 31.3281 77.4972 31.5078 77.3878 31.6484C77.2784 31.7734 77.1222 31.875 76.9191 31.9531C76.7159 32.0156 76.4503 32.0625 76.1222 32.0938C75.8097 32.125 75.4034 32.1406 74.9034 32.1406C74.3878 32.1406 73.9581 32.125 73.6144 32.0938C73.2706 32.0625 72.9894 32.0156 72.7706 31.9531C72.5519 31.875 72.38 31.7734 72.255 31.6484C72.1456 31.5078 72.0675 31.3281 72.0206 31.1094L64.005 3.10156C63.9113 2.74219 63.8566 2.46094 63.8409 2.25781C63.8409 2.05469 63.9034 1.89844 64.0284 1.78906C64.1691 1.67969 64.3878 1.60937 64.6847 1.57812C64.9816 1.54688 65.38 1.53125 65.88 1.53125C66.3644 1.53125 66.7472 1.54688 67.0284 1.57812C67.3097 1.59375 67.5206 1.63281 67.6613 1.69531C67.8175 1.75781 67.9191 1.84375 67.9659 1.95312C68.0284 2.0625 68.0753 2.20313 68.1066 2.375L74.9269 27.7812H74.9503L81.4191 2.42188C81.4659 2.25 81.5206 2.10938 81.5831 2C81.6613 1.875 81.7784 1.78125 81.9347 1.71875C82.0909 1.65625 82.3097 1.60937 82.5909 1.57812C82.8878 1.54688 83.2706 1.53125 83.7394 1.53125C84.1769 1.53125 84.5206 1.54688 84.7706 1.57812C85.0363 1.60937 85.2472 1.65625 85.4034 1.71875C85.5597 1.78125 85.6691 1.875 85.7316 2C85.8097 2.10938 85.8722 2.25 85.9191 2.42188L92.88 27.7812H92.9269L99.6066 2.39844C99.6534 2.24219 99.7003 2.10938 99.7472 2C99.7941 1.875 99.8878 1.78125 100.028 1.71875C100.185 1.65625 100.396 1.60937 100.661 1.57812C100.943 1.54688 101.31 1.53125 101.763 1.53125C102.232 1.53125 102.599 1.55469 102.864 1.60156C103.146 1.63281 103.349 1.70312 103.474 1.8125C103.599 1.92188 103.653 2.07812 103.638 2.28125C103.638 2.48438 103.599 2.76563 103.521 3.125L95.4816 31.1094ZM130.613 30.5703C130.738 30.9141 130.801 31.1953 130.801 31.4141C130.817 31.6172 130.762 31.7734 130.637 31.8828C130.512 31.9922 130.301 32.0625 130.004 32.0938C129.723 32.125 129.34 32.1406 128.856 32.1406C128.371 32.1406 127.981 32.125 127.684 32.0938C127.402 32.0781 127.184 32.0469 127.027 32C126.887 31.9375 126.777 31.8594 126.699 31.7656C126.637 31.6719 126.574 31.5547 126.512 31.4141L123.91 24.0312H111.301L108.817 31.3203C108.77 31.4609 108.707 31.5859 108.629 31.6953C108.551 31.7891 108.434 31.875 108.277 31.9531C108.137 32.0156 107.926 32.0625 107.645 32.0938C107.379 32.125 107.027 32.1406 106.59 32.1406C106.137 32.1406 105.762 32.1172 105.465 32.0703C105.184 32.0391 104.981 31.9688 104.856 31.8594C104.746 31.75 104.692 31.5938 104.692 31.3906C104.707 31.1719 104.777 30.8906 104.902 30.5469L115.074 2.375C115.137 2.20313 115.215 2.0625 115.309 1.95312C115.418 1.84375 115.567 1.75781 115.754 1.69531C115.957 1.63281 116.207 1.59375 116.504 1.57812C116.817 1.54688 117.207 1.53125 117.676 1.53125C118.176 1.53125 118.59 1.54688 118.918 1.57812C119.246 1.59375 119.512 1.63281 119.715 1.69531C119.918 1.75781 120.074 1.85156 120.184 1.97656C120.293 2.08594 120.379 2.22656 120.442 2.39844L130.613 30.5703ZM117.559 5.70312H117.535L112.309 20.8203H122.856L117.559 5.70312ZM159.581 30.3359C159.581 30.6484 159.527 30.9141 159.417 31.1328C159.323 31.3516 159.191 31.5312 159.019 31.6719C158.863 31.8125 158.683 31.9141 158.48 31.9766C158.277 32.0391 158.073 32.0703 157.87 32.0703H156.581C156.175 32.0703 155.816 32.0312 155.503 31.9531C155.206 31.8594 154.917 31.7031 154.636 31.4844C154.37 31.25 154.097 30.9375 153.816 30.5469C153.55 30.1562 153.253 29.6562 152.925 29.0469L143.363 11.7969C142.863 10.9062 142.355 9.97656 141.839 9.00781C141.339 8.02344 140.87 7.07031 140.433 6.14844H140.386C140.417 7.27344 140.441 8.42188 140.456 9.59375C140.472 10.7656 140.48 11.9297 140.48 13.0859V31.3906C140.48 31.5 140.448 31.6094 140.386 31.7188C140.323 31.8125 140.214 31.8906 140.058 31.9531C139.917 32 139.722 32.0391 139.472 32.0703C139.238 32.1172 138.933 32.1406 138.558 32.1406C138.183 32.1406 137.87 32.1172 137.62 32.0703C137.386 32.0391 137.198 32 137.058 31.9531C136.917 31.8906 136.816 31.8125 136.753 31.7188C136.691 31.6094 136.659 31.5 136.659 31.3906V3.40625C136.659 2.78125 136.831 2.33594 137.175 2.07031C137.519 1.80469 137.894 1.67188 138.3 1.67188H140.222C140.675 1.67188 141.05 1.71094 141.347 1.78906C141.659 1.86719 141.933 2 142.167 2.1875C142.417 2.35937 142.652 2.60938 142.87 2.9375C143.105 3.25 143.355 3.64844 143.62 4.13281L150.98 17.4453C151.433 18.2578 151.87 19.0547 152.292 19.8359C152.714 20.6016 153.12 21.3594 153.511 22.1094C153.902 22.8594 154.284 23.6016 154.659 24.3359C155.05 25.0547 155.433 25.7812 155.808 26.5156H155.831C155.8 25.2812 155.777 24 155.761 22.6719C155.761 21.3281 155.761 20.0391 155.761 18.8047V2.35156C155.761 2.24219 155.792 2.14062 155.855 2.04688C155.917 1.95312 156.019 1.875 156.159 1.8125C156.316 1.73438 156.511 1.67969 156.745 1.64844C156.995 1.61719 157.316 1.60156 157.706 1.60156C158.05 1.60156 158.347 1.61719 158.597 1.64844C158.847 1.67969 159.042 1.73438 159.183 1.8125C159.323 1.875 159.425 1.95312 159.488 2.04688C159.55 2.14062 159.581 2.24219 159.581 2.35156V30.3359ZM27.3516 56.3906C27.3516 59.0156 27.0156 61.3125 26.3438 63.2812C25.6719 65.2344 24.6875 66.8594 23.3906 68.1562C22.1094 69.4375 20.5312 70.3984 18.6562 71.0391C16.7812 71.6797 14.5469 72 11.9531 72H5.53125C5.17188 72 4.82812 71.8828 4.5 71.6484C4.1875 71.3984 4.03125 70.9688 4.03125 70.3594V43.3125C4.03125 42.7031 4.1875 42.2812 4.5 42.0469C4.82812 41.7969 5.17188 41.6719 5.53125 41.6719H12.3984C15.0234 41.6719 17.2422 42.0156 19.0547 42.7031C20.8672 43.375 22.3828 44.3516 23.6016 45.6328C24.8359 46.8984 25.7656 48.4375 26.3906 50.25C27.0312 52.0625 27.3516 54.1094 27.3516 56.3906ZM23.1094 56.5547C23.1094 54.9141 22.9062 53.3906 22.5 51.9844C22.0938 50.5625 21.4531 49.3359 20.5781 48.3047C19.7188 47.2734 18.625 46.4688 17.2969 45.8906C15.9688 45.3125 14.2578 45.0234 12.1641 45.0234H8.0625V68.625H12.2109C14.1484 68.625 15.7812 68.3828 17.1094 67.8984C18.4375 67.4141 19.5469 66.6719 20.4375 65.6719C21.3281 64.6719 21.9922 63.4219 22.4297 61.9219C22.8828 60.4062 23.1094 58.6172 23.1094 56.5547ZM38.5537 71.3906C38.5537 71.5156 38.5225 71.625 38.46 71.7188C38.3975 71.8125 38.2881 71.8906 38.1319 71.9531C37.9756 72 37.7647 72.0391 37.4991 72.0703C37.2491 72.1172 36.9287 72.1406 36.5381 72.1406C36.1631 72.1406 35.8428 72.1172 35.5772 72.0703C35.3116 72.0391 35.1006 72 34.9444 71.9531C34.7881 71.8906 34.6787 71.8125 34.6162 71.7188C34.5537 71.625 34.5225 71.5156 34.5225 71.3906V42.2812C34.5225 42.1562 34.5537 42.0469 34.6162 41.9531C34.6944 41.8594 34.8116 41.7891 34.9678 41.7422C35.1397 41.6797 35.3506 41.6328 35.6006 41.6016C35.8662 41.5547 36.1787 41.5312 36.5381 41.5312C36.9287 41.5312 37.2491 41.5547 37.4991 41.6016C37.7647 41.6328 37.9756 41.6797 38.1319 41.7422C38.2881 41.7891 38.3975 41.8594 38.46 41.9531C38.5225 42.0469 38.5537 42.1562 38.5537 42.2812V71.3906ZM70.3575 45.7969C70.3575 46.0938 70.3419 46.3594 70.3106 46.5938C70.2794 46.8125 70.2325 47 70.17 47.1562C70.1075 47.2969 70.0294 47.3984 69.9356 47.4609C69.8419 47.5234 69.7403 47.5547 69.6309 47.5547C69.4434 47.5547 69.1309 47.4062 68.6934 47.1094C68.2559 46.8125 67.67 46.4844 66.9356 46.125C66.2012 45.7656 65.3184 45.4375 64.2872 45.1406C63.2716 44.8438 62.0606 44.6953 60.6544 44.6953C58.9825 44.6953 57.4825 45 56.1544 45.6094C54.8262 46.2188 53.7012 47.0625 52.7794 48.1406C51.8575 49.2188 51.1466 50.5 50.6466 51.9844C50.1622 53.4688 49.92 55.0781 49.92 56.8125C49.92 58.75 50.1856 60.4688 50.7169 61.9688C51.2637 63.4688 52.0137 64.7344 52.9669 65.7656C53.92 66.7969 55.0528 67.5781 56.3653 68.1094C57.6934 68.6406 59.1466 68.9062 60.7247 68.9062C61.6622 68.9062 62.6075 68.7969 63.5606 68.5781C64.5294 68.3438 65.4278 68 66.2559 67.5469V58.7109H59.2247C58.9591 58.7109 58.7559 58.5781 58.6153 58.3125C58.4903 58.0469 58.4278 57.6328 58.4278 57.0703C58.4278 56.7734 58.4434 56.5234 58.4747 56.3203C58.5059 56.1016 58.5528 55.9297 58.6153 55.8047C58.6934 55.6641 58.7794 55.5625 58.8731 55.5C58.9669 55.4375 59.0841 55.4062 59.2247 55.4062H68.8575C69.0294 55.4062 69.2012 55.4375 69.3731 55.5C69.545 55.5625 69.7012 55.6562 69.8419 55.7812C69.9825 55.9062 70.0919 56.0781 70.17 56.2969C70.2481 56.5156 70.2872 56.7656 70.2872 57.0469V68.6016C70.2872 69.0078 70.2169 69.3594 70.0762 69.6562C69.9356 69.9531 69.6387 70.2188 69.1856 70.4531C68.7325 70.6719 68.1466 70.9141 67.4278 71.1797C66.7091 71.4453 65.9669 71.6719 65.2012 71.8594C64.4356 72.0469 63.6622 72.1875 62.8809 72.2812C62.0997 72.375 61.3262 72.4219 60.5606 72.4219C58.2169 72.4219 56.1231 72.0625 54.2794 71.3438C52.4356 70.6094 50.8731 69.5703 49.5919 68.2266C48.3262 66.8828 47.3575 65.2734 46.6856 63.3984C46.0137 61.5234 45.6778 59.4297 45.6778 57.1172C45.6778 54.7109 46.0372 52.5312 46.7559 50.5781C47.4903 48.625 48.5137 46.9609 49.8262 45.5859C51.1544 44.2109 52.7403 43.1484 54.5841 42.3984C56.4434 41.6328 58.4981 41.25 60.7481 41.25C61.9044 41.25 62.9903 41.3516 64.0059 41.5547C65.0216 41.7578 65.92 42 66.7012 42.2812C67.4981 42.5469 68.1622 42.8438 68.6934 43.1719C69.2403 43.4844 69.6153 43.7422 69.8184 43.9453C70.0216 44.1484 70.1622 44.3828 70.2403 44.6484C70.3184 44.9141 70.3575 45.2969 70.3575 45.7969ZM82.8487 71.3906C82.8487 71.5156 82.8175 71.625 82.755 71.7188C82.6925 71.8125 82.5831 71.8906 82.4269 71.9531C82.2706 72 82.0597 72.0391 81.7941 72.0703C81.5441 72.1172 81.2237 72.1406 80.8331 72.1406C80.4581 72.1406 80.1378 72.1172 79.8722 72.0703C79.6066 72.0391 79.3956 72 79.2394 71.9531C79.0831 71.8906 78.9737 71.8125 78.9112 71.7188C78.8487 71.625 78.8175 71.5156 78.8175 71.3906V42.2812C78.8175 42.1562 78.8487 42.0469 78.9112 41.9531C78.9894 41.8594 79.1066 41.7891 79.2628 41.7422C79.4347 41.6797 79.6456 41.6328 79.8956 41.6016C80.1612 41.5547 80.4737 41.5312 80.8331 41.5312C81.2237 41.5312 81.5441 41.5547 81.7941 41.6016C82.0597 41.6328 82.2706 41.6797 82.4269 41.7422C82.5831 41.7891 82.6925 41.8594 82.755 41.9531C82.8175 42.0469 82.8487 42.1562 82.8487 42.2812V71.3906ZM110.879 43.4062C110.879 43.7031 110.863 43.9609 110.832 44.1797C110.801 44.3984 110.746 44.5781 110.668 44.7188C110.606 44.8438 110.52 44.9375 110.41 45C110.317 45.0625 110.207 45.0938 110.082 45.0938H101.551V71.3906C101.551 71.5156 101.52 71.625 101.457 71.7188C101.395 71.8125 101.285 71.8906 101.129 71.9531C100.973 72 100.762 72.0391 100.496 72.0703C100.246 72.1172 99.9259 72.1406 99.5353 72.1406C99.1603 72.1406 98.84 72.1172 98.5744 72.0703C98.3087 72.0391 98.0978 72 97.9416 71.9531C97.7853 71.8906 97.6759 71.8125 97.6134 71.7188C97.5509 71.625 97.5197 71.5156 97.5197 71.3906V45.0938H88.9884C88.8634 45.0938 88.7462 45.0625 88.6369 45C88.5431 44.9375 88.465 44.8438 88.4025 44.7188C88.34 44.5781 88.2853 44.3984 88.2384 44.1797C88.2072 43.9609 88.1916 43.7031 88.1916 43.4062C88.1916 43.1094 88.2072 42.8516 88.2384 42.6328C88.2853 42.3984 88.34 42.2109 88.4025 42.0703C88.465 41.9297 88.5431 41.8281 88.6369 41.7656C88.7462 41.7031 88.8634 41.6719 88.9884 41.6719H110.082C110.207 41.6719 110.317 41.7031 110.41 41.7656C110.52 41.8281 110.606 41.9297 110.668 42.0703C110.746 42.2109 110.801 42.3984 110.832 42.6328C110.863 42.8516 110.879 43.1094 110.879 43.4062ZM135.183 70.5703C135.308 70.9141 135.37 71.1953 135.37 71.4141C135.386 71.6172 135.331 71.7734 135.206 71.8828C135.081 71.9922 134.87 72.0625 134.573 72.0938C134.292 72.125 133.909 72.1406 133.425 72.1406C132.941 72.1406 132.55 72.125 132.253 72.0938C131.972 72.0781 131.753 72.0469 131.597 72C131.456 71.9375 131.347 71.8594 131.269 71.7656C131.206 71.6719 131.144 71.5547 131.081 71.4141L128.48 64.0312H115.87L113.386 71.3203C113.339 71.4609 113.277 71.5859 113.198 71.6953C113.12 71.7891 113.003 71.875 112.847 71.9531C112.706 72.0156 112.495 72.0625 112.214 72.0938C111.948 72.125 111.597 72.1406 111.159 72.1406C110.706 72.1406 110.331 72.1172 110.034 72.0703C109.753 72.0391 109.55 71.9688 109.425 71.8594C109.316 71.75 109.261 71.5938 109.261 71.3906C109.277 71.1719 109.347 70.8906 109.472 70.5469L119.644 42.375C119.706 42.2031 119.784 42.0625 119.878 41.9531C119.988 41.8438 120.136 41.7578 120.323 41.6953C120.527 41.6328 120.777 41.5938 121.073 41.5781C121.386 41.5469 121.777 41.5312 122.245 41.5312C122.745 41.5312 123.159 41.5469 123.488 41.5781C123.816 41.5938 124.081 41.6328 124.284 41.6953C124.488 41.7578 124.644 41.8516 124.753 41.9766C124.863 42.0859 124.948 42.2266 125.011 42.3984L135.183 70.5703ZM122.128 45.7031H122.105L116.878 60.8203H127.425L122.128 45.7031ZM156.955 70.2422C156.955 70.5547 156.94 70.8203 156.908 71.0391C156.877 71.2422 156.822 71.4219 156.744 71.5781C156.682 71.7188 156.596 71.8281 156.487 71.9062C156.393 71.9688 156.276 72 156.135 72H142.729C142.369 72 142.026 71.8828 141.697 71.6484C141.385 71.3984 141.229 70.9688 141.229 70.3594V42.2812C141.229 42.1562 141.26 42.0469 141.322 41.9531C141.385 41.8594 141.494 41.7891 141.651 41.7422C141.807 41.6797 142.018 41.6328 142.283 41.6016C142.549 41.5547 142.869 41.5312 143.244 41.5312C143.635 41.5312 143.955 41.5547 144.205 41.6016C144.471 41.6328 144.682 41.6797 144.838 41.7422C144.994 41.7891 145.104 41.8594 145.166 41.9531C145.229 42.0469 145.26 42.1562 145.26 42.2812V68.5078H156.135C156.276 68.5078 156.393 68.5469 156.487 68.625C156.596 68.6875 156.682 68.7891 156.744 68.9297C156.822 69.0547 156.877 69.2266 156.908 69.4453C156.94 69.6641 156.955 69.9297 156.955 70.2422ZM197.149 70.3359C197.149 70.6484 197.094 70.9141 196.985 71.1328C196.891 71.3516 196.758 71.5312 196.586 71.6719C196.43 71.8125 196.25 71.9141 196.047 71.9766C195.844 72.0391 195.641 72.0703 195.438 72.0703H194.149C193.742 72.0703 193.383 72.0312 193.071 71.9531C192.774 71.8594 192.485 71.7031 192.203 71.4844C191.938 71.25 191.664 70.9375 191.383 70.5469C191.117 70.1562 190.821 69.6562 190.492 69.0469L180.93 51.7969C180.43 50.9062 179.922 49.9766 179.407 49.0078C178.907 48.0234 178.438 47.0703 178 46.1484H177.953C177.985 47.2734 178.008 48.4219 178.024 49.5938C178.039 50.7656 178.047 51.9297 178.047 53.0859V71.3906C178.047 71.5 178.016 71.6094 177.953 71.7188C177.891 71.8125 177.782 71.8906 177.625 71.9531C177.485 72 177.289 72.0391 177.039 72.0703C176.805 72.1172 176.5 72.1406 176.125 72.1406C175.75 72.1406 175.438 72.1172 175.188 72.0703C174.953 72.0391 174.766 72 174.625 71.9531C174.485 71.8906 174.383 71.8125 174.321 71.7188C174.258 71.6094 174.227 71.5 174.227 71.3906V43.4062C174.227 42.7812 174.399 42.3359 174.742 42.0703C175.086 41.8047 175.461 41.6719 175.867 41.6719H177.789C178.242 41.6719 178.617 41.7109 178.914 41.7891C179.227 41.8672 179.5 42 179.735 42.1875C179.985 42.3594 180.219 42.6094 180.438 42.9375C180.672 43.25 180.922 43.6484 181.188 44.1328L188.547 57.4453C189 58.2578 189.438 59.0547 189.86 59.8359C190.282 60.6016 190.688 61.3594 191.078 62.1094C191.469 62.8594 191.852 63.6016 192.227 64.3359C192.617 65.0547 193 65.7812 193.375 66.5156H193.399C193.367 65.2812 193.344 64 193.328 62.6719C193.328 61.3281 193.328 60.0391 193.328 58.8047V42.3516C193.328 42.2422 193.36 42.1406 193.422 42.0469C193.485 41.9531 193.586 41.875 193.727 41.8125C193.883 41.7344 194.078 41.6797 194.313 41.6484C194.563 41.6172 194.883 41.6016 195.274 41.6016C195.617 41.6016 195.914 41.6172 196.164 41.6484C196.414 41.6797 196.61 41.7344 196.75 41.8125C196.891 41.875 196.992 41.9531 197.055 42.0469C197.117 42.1406 197.149 42.2422 197.149 42.3516V70.3359ZM231.577 56.4844C231.577 58.9375 231.288 61.1484 230.71 63.1172C230.132 65.0859 229.265 66.7656 228.109 68.1562C226.968 69.5312 225.531 70.5938 223.796 71.3438C222.062 72.0781 220.038 72.4453 217.726 72.4453C215.445 72.4453 213.468 72.1094 211.796 71.4375C210.14 70.75 208.765 69.7578 207.671 68.4609C206.593 67.1641 205.788 65.5547 205.257 63.6328C204.726 61.7109 204.46 59.5 204.46 57C204.46 54.6094 204.749 52.4375 205.327 50.4844C205.906 48.5312 206.773 46.875 207.929 45.5156C209.085 44.1406 210.531 43.0859 212.265 42.3516C213.999 41.6016 216.023 41.2266 218.335 41.2266C220.57 41.2266 222.515 41.5625 224.171 42.2344C225.827 42.9062 227.202 43.8906 228.296 45.1875C229.406 46.4688 230.226 48.0625 230.757 49.9688C231.304 51.8594 231.577 54.0312 231.577 56.4844ZM227.335 56.7656C227.335 55.0469 227.179 53.4531 226.867 51.9844C226.57 50.5 226.062 49.2188 225.343 48.1406C224.64 47.0469 223.695 46.1953 222.507 45.5859C221.32 44.9766 219.851 44.6719 218.101 44.6719C216.351 44.6719 214.882 45 213.695 45.6562C212.507 46.3125 211.538 47.1875 210.788 48.2812C210.054 49.375 209.523 50.6562 209.195 52.125C208.882 53.5781 208.726 55.1094 208.726 56.7188C208.726 58.5 208.874 60.1406 209.171 61.6406C209.468 63.1406 209.968 64.4375 210.671 65.5312C211.374 66.6094 212.312 67.4531 213.484 68.0625C214.671 68.6562 216.156 68.9531 217.937 68.9531C219.702 68.9531 221.187 68.625 222.39 67.9688C223.593 67.3125 224.562 66.4297 225.296 65.3203C226.031 64.1953 226.554 62.8984 226.867 61.4297C227.179 59.9609 227.335 58.4062 227.335 56.7656ZM271.889 71.3906C271.889 71.5156 271.858 71.625 271.795 71.7188C271.733 71.8125 271.623 71.8906 271.467 71.9531C271.311 72 271.108 72.0391 270.858 72.0703C270.623 72.1172 270.311 72.1406 269.92 72.1406C269.561 72.1406 269.248 72.1172 268.983 72.0703C268.733 72.0391 268.53 72 268.373 71.9531C268.233 71.8906 268.131 71.8125 268.069 71.7188C268.006 71.625 267.975 71.5156 267.975 71.3906V44.9766H267.928L257.123 71.5078C257.077 71.6172 257.006 71.7109 256.913 71.7891C256.834 71.8672 256.709 71.9375 256.538 72C256.381 72.0469 256.186 72.0781 255.952 72.0938C255.733 72.125 255.467 72.1406 255.155 72.1406C254.827 72.1406 254.545 72.125 254.311 72.0938C254.077 72.0625 253.881 72.0234 253.725 71.9766C253.569 71.9141 253.444 71.8438 253.35 71.7656C253.272 71.6875 253.217 71.6016 253.186 71.5078L242.85 44.9766H242.827V71.3906C242.827 71.5156 242.795 71.625 242.733 71.7188C242.67 71.8125 242.561 71.8906 242.405 71.9531C242.248 72 242.045 72.0391 241.795 72.0703C241.545 72.1172 241.225 72.1406 240.834 72.1406C240.459 72.1406 240.147 72.1172 239.897 72.0703C239.647 72.0391 239.444 72 239.288 71.9531C239.147 71.8906 239.045 71.8125 238.983 71.7188C238.936 71.625 238.913 71.5156 238.913 71.3906V43.5C238.913 42.8438 239.084 42.375 239.428 42.0938C239.772 41.8125 240.155 41.6719 240.577 41.6719H243.014C243.514 41.6719 243.952 41.7188 244.327 41.8125C244.702 41.9062 245.03 42.0547 245.311 42.2578C245.592 42.4609 245.827 42.7188 246.014 43.0312C246.202 43.3438 246.366 43.7109 246.506 44.1328L255.295 66.0938H255.413L264.553 44.2031C264.725 43.7344 264.913 43.3359 265.116 43.0078C265.319 42.6797 265.538 42.4219 265.772 42.2344C266.022 42.0312 266.295 41.8906 266.592 41.8125C266.889 41.7188 267.233 41.6719 267.623 41.6719H270.178C270.413 41.6719 270.631 41.7109 270.834 41.7891C271.053 41.8516 271.233 41.9609 271.373 42.1172C271.53 42.2578 271.655 42.4453 271.748 42.6797C271.842 42.8984 271.889 43.1719 271.889 43.5V71.3906ZM303.646 70.5703C303.771 70.9141 303.833 71.1953 303.833 71.4141C303.849 71.6172 303.794 71.7734 303.669 71.8828C303.544 71.9922 303.333 72.0625 303.037 72.0938C302.755 72.125 302.372 72.1406 301.888 72.1406C301.404 72.1406 301.013 72.125 300.716 72.0938C300.435 72.0781 300.216 72.0469 300.06 72C299.919 71.9375 299.81 71.8594 299.732 71.7656C299.669 71.6719 299.607 71.5547 299.544 71.4141L296.943 64.0312H284.333L281.849 71.3203C281.802 71.4609 281.74 71.5859 281.662 71.6953C281.583 71.7891 281.466 71.875 281.31 71.9531C281.169 72.0156 280.958 72.0625 280.677 72.0938C280.412 72.125 280.06 72.1406 279.622 72.1406C279.169 72.1406 278.794 72.1172 278.497 72.0703C278.216 72.0391 278.013 71.9688 277.888 71.8594C277.779 71.75 277.724 71.5938 277.724 71.3906C277.74 71.1719 277.81 70.8906 277.935 70.5469L288.107 42.375C288.169 42.2031 288.247 42.0625 288.341 41.9531C288.451 41.8438 288.599 41.7578 288.787 41.6953C288.99 41.6328 289.24 41.5938 289.537 41.5781C289.849 41.5469 290.24 41.5312 290.708 41.5312C291.208 41.5312 291.622 41.5469 291.951 41.5781C292.279 41.5938 292.544 41.6328 292.747 41.6953C292.951 41.7578 293.107 41.8516 293.216 41.9766C293.326 42.0859 293.412 42.2266 293.474 42.3984L303.646 70.5703ZM290.591 45.7031H290.568L285.341 60.8203H295.888L290.591 45.7031ZM333.012 56.3906C333.012 59.0156 332.676 61.3125 332.004 63.2812C331.332 65.2344 330.348 66.8594 329.051 68.1562C327.77 69.4375 326.192 70.3984 324.317 71.0391C322.442 71.6797 320.207 72 317.614 72H311.192C310.832 72 310.489 71.8828 310.161 71.6484C309.848 71.3984 309.692 70.9688 309.692 70.3594V43.3125C309.692 42.7031 309.848 42.2812 310.161 42.0469C310.489 41.7969 310.832 41.6719 311.192 41.6719H318.059C320.684 41.6719 322.903 42.0156 324.715 42.7031C326.528 43.375 328.043 44.3516 329.262 45.6328C330.497 46.8984 331.426 48.4375 332.051 50.25C332.692 52.0625 333.012 54.1094 333.012 56.3906ZM328.77 56.5547C328.77 54.9141 328.567 53.3906 328.161 51.9844C327.754 50.5625 327.114 49.3359 326.239 48.3047C325.379 47.2734 324.286 46.4688 322.957 45.8906C321.629 45.3125 319.918 45.0234 317.825 45.0234H313.723V68.625H317.872C319.809 68.625 321.442 68.3828 322.77 67.8984C324.098 67.4141 325.207 66.6719 326.098 65.6719C326.989 64.6719 327.653 63.4219 328.09 61.9219C328.543 60.4062 328.77 58.6172 328.77 56.5547ZM24.2812 107.711C24.2812 107.961 24.2734 108.18 24.2578 108.367C24.2422 108.555 24.2109 108.719 24.1641 108.859C24.1328 109 24.0859 109.125 24.0234 109.234C23.9609 109.344 23.8516 109.477 23.6953 109.633C23.5391 109.789 23.2109 110.031 22.7109 110.359C22.2109 110.672 21.5859 110.984 20.8359 111.297C20.1016 111.594 19.25 111.844 18.2812 112.047C17.3281 112.266 16.2812 112.375 15.1406 112.375C13.1719 112.375 11.3906 112.047 9.79688 111.391C8.21875 110.734 6.86719 109.766 5.74219 108.484C4.63281 107.203 3.77344 105.625 3.16406 103.75C2.57031 101.859 2.27344 99.6875 2.27344 97.2344C2.27344 94.7188 2.59375 92.4766 3.23438 90.5078C3.89062 88.5391 4.80469 86.875 5.97656 85.5156C7.14844 84.1406 8.54688 83.0938 10.1719 82.375C11.8125 81.6562 13.625 81.2969 15.6094 81.2969C16.4844 81.2969 17.3359 81.3828 18.1641 81.5547C18.9922 81.7109 19.7578 81.9141 20.4609 82.1641C21.1641 82.4141 21.7891 82.7031 22.3359 83.0312C22.8828 83.3594 23.2578 83.6328 23.4609 83.8516C23.6797 84.0547 23.8203 84.2109 23.8828 84.3203C23.9453 84.4297 23.9922 84.5625 24.0234 84.7188C24.0703 84.8594 24.1016 85.0312 24.1172 85.2344C24.1484 85.4375 24.1641 85.6797 24.1641 85.9609C24.1641 86.2734 24.1484 86.5391 24.1172 86.7578C24.0859 86.9766 24.0391 87.1641 23.9766 87.3203C23.9141 87.4609 23.8359 87.5703 23.7422 87.6484C23.6641 87.7109 23.5625 87.7422 23.4375 87.7422C23.2188 87.7422 22.9141 87.5938 22.5234 87.2969C22.1328 86.9844 21.625 86.6484 21 86.2891C20.3906 85.9141 19.6406 85.5781 18.75 85.2812C17.875 84.9688 16.8203 84.8125 15.5859 84.8125C14.2422 84.8125 13.0156 85.0859 11.9062 85.6328C10.8125 86.1641 9.875 86.9531 9.09375 88C8.3125 89.0469 7.70312 90.3281 7.26562 91.8438C6.84375 93.3438 6.63281 95.0625 6.63281 97C6.63281 98.9219 6.83594 100.625 7.24219 102.109C7.66406 103.578 8.25781 104.812 9.02344 105.812C9.80469 106.797 10.7578 107.547 11.8828 108.062C13.0078 108.562 14.2812 108.812 15.7031 108.812C16.9062 108.812 17.9531 108.664 18.8438 108.367C19.75 108.07 20.5156 107.742 21.1406 107.383C21.7812 107.008 22.3047 106.672 22.7109 106.375C23.1172 106.078 23.4375 105.93 23.6719 105.93C23.7812 105.93 23.875 105.953 23.9531 106C24.0312 106.047 24.0938 106.141 24.1406 106.281C24.1875 106.406 24.2188 106.586 24.2344 106.82C24.2656 107.055 24.2812 107.352 24.2812 107.711ZM55.5694 96.4844C55.5694 98.9375 55.2803 101.148 54.7022 103.117C54.1241 105.086 53.2569 106.766 52.1006 108.156C50.96 109.531 49.5225 110.594 47.7881 111.344C46.0537 112.078 44.0303 112.445 41.7178 112.445C39.4366 112.445 37.46 112.109 35.7881 111.438C34.1319 110.75 32.7569 109.758 31.6631 108.461C30.585 107.164 29.7803 105.555 29.2491 103.633C28.7178 101.711 28.4522 99.5 28.4522 97C28.4522 94.6094 28.7412 92.4375 29.3194 90.4844C29.8975 88.5312 30.7647 86.875 31.9209 85.5156C33.0772 84.1406 34.5225 83.0859 36.2569 82.3516C37.9912 81.6016 40.0147 81.2266 42.3272 81.2266C44.5616 81.2266 46.5069 81.5625 48.1631 82.2344C49.8194 82.9062 51.1944 83.8906 52.2881 85.1875C53.3975 86.4688 54.2178 88.0625 54.7491 89.9688C55.2959 91.8594 55.5694 94.0312 55.5694 96.4844ZM51.3272 96.7656C51.3272 95.0469 51.1709 93.4531 50.8584 91.9844C50.5616 90.5 50.0537 89.2188 49.335 88.1406C48.6319 87.0469 47.6866 86.1953 46.4991 85.5859C45.3116 84.9766 43.8428 84.6719 42.0928 84.6719C40.3428 84.6719 38.8741 85 37.6866 85.6562C36.4991 86.3125 35.5303 87.1875 34.7803 88.2812C34.0459 89.375 33.5147 90.6562 33.1866 92.125C32.8741 93.5781 32.7178 95.1094 32.7178 96.7188C32.7178 98.5 32.8662 100.141 33.1631 101.641C33.46 103.141 33.96 104.438 34.6631 105.531C35.3662 106.609 36.3037 107.453 37.4756 108.062C38.6631 108.656 40.1475 108.953 41.9287 108.953C43.6944 108.953 45.1787 108.625 46.3819 107.969C47.585 107.312 48.5537 106.43 49.2881 105.32C50.0225 104.195 50.5459 102.898 50.8584 101.43C51.1709 99.9609 51.3272 98.4062 51.3272 96.7656ZM85.8262 110.336C85.8262 110.648 85.7716 110.914 85.6622 111.133C85.5684 111.352 85.4356 111.531 85.2637 111.672C85.1075 111.812 84.9278 111.914 84.7247 111.977C84.5216 112.039 84.3184 112.07 84.1153 112.07H82.8262C82.42 112.07 82.0606 112.031 81.7481 111.953C81.4512 111.859 81.1622 111.703 80.8809 111.484C80.6153 111.25 80.3419 110.938 80.0606 110.547C79.795 110.156 79.4981 109.656 79.17 109.047L69.6075 91.7969C69.1075 90.9062 68.5997 89.9766 68.0841 89.0078C67.5841 88.0234 67.1153 87.0703 66.6778 86.1484H66.6309C66.6622 87.2734 66.6856 88.4219 66.7012 89.5938C66.7169 90.7656 66.7247 91.9297 66.7247 93.0859V111.391C66.7247 111.5 66.6934 111.609 66.6309 111.719C66.5684 111.812 66.4591 111.891 66.3028 111.953C66.1622 112 65.9669 112.039 65.7169 112.07C65.4825 112.117 65.1778 112.141 64.8028 112.141C64.4278 112.141 64.1153 112.117 63.8653 112.07C63.6309 112.039 63.4434 112 63.3028 111.953C63.1622 111.891 63.0606 111.812 62.9981 111.719C62.9356 111.609 62.9044 111.5 62.9044 111.391V83.4062C62.9044 82.7812 63.0762 82.3359 63.42 82.0703C63.7637 81.8047 64.1387 81.6719 64.545 81.6719H66.4669C66.92 81.6719 67.295 81.7109 67.5919 81.7891C67.9044 81.8672 68.1778 82 68.4122 82.1875C68.6622 82.3594 68.8966 82.6094 69.1153 82.9375C69.3497 83.25 69.5997 83.6484 69.8653 84.1328L77.2247 97.4453C77.6778 98.2578 78.1153 99.0547 78.5372 99.8359C78.9591 100.602 79.3653 101.359 79.7559 102.109C80.1466 102.859 80.5294 103.602 80.9044 104.336C81.295 105.055 81.6778 105.781 82.0528 106.516H82.0762C82.045 105.281 82.0216 104 82.0059 102.672C82.0059 101.328 82.0059 100.039 82.0059 98.8047V82.3516C82.0059 82.2422 82.0372 82.1406 82.0997 82.0469C82.1622 81.9531 82.2637 81.875 82.4044 81.8125C82.5606 81.7344 82.7559 81.6797 82.9903 81.6484C83.2403 81.6172 83.5606 81.6016 83.9512 81.6016C84.295 81.6016 84.5919 81.6172 84.8419 81.6484C85.0919 81.6797 85.2872 81.7344 85.4278 81.8125C85.5684 81.875 85.67 81.9531 85.7325 82.0469C85.795 82.1406 85.8262 82.2422 85.8262 82.3516V110.336ZM110.786 83.4062C110.786 83.7031 110.771 83.9609 110.739 84.1797C110.708 84.3984 110.653 84.5781 110.575 84.7188C110.497 84.8438 110.403 84.9375 110.294 85C110.2 85.0625 110.099 85.0938 109.989 85.0938H98.88V95.4062H109.38C109.489 95.4062 109.591 95.4375 109.685 95.5C109.794 95.5469 109.888 95.6328 109.966 95.7578C110.044 95.8828 110.099 96.0547 110.13 96.2734C110.161 96.4766 110.177 96.7422 110.177 97.0703C110.177 97.3672 110.161 97.625 110.13 97.8438C110.099 98.0469 110.044 98.2188 109.966 98.3594C109.888 98.4844 109.794 98.5859 109.685 98.6641C109.591 98.7266 109.489 98.7578 109.38 98.7578H98.88V111.391C98.88 111.5 98.8487 111.609 98.7862 111.719C98.7237 111.812 98.6144 111.891 98.4581 111.953C98.3019 112 98.0987 112.039 97.8487 112.07C97.5987 112.117 97.2706 112.141 96.8644 112.141C96.4894 112.141 96.1691 112.117 95.9034 112.07C95.6378 112.039 95.4269 112 95.2706 111.953C95.1144 111.891 95.005 111.812 94.9425 111.719C94.88 111.609 94.8487 111.5 94.8487 111.391V83.3125C94.8487 82.7031 95.005 82.2812 95.3175 82.0469C95.6456 81.7969 95.9894 81.6719 96.3487 81.6719H109.989C110.099 81.6719 110.2 81.7031 110.294 81.7656C110.403 81.8281 110.497 81.9297 110.575 82.0703C110.653 82.2109 110.708 82.3984 110.739 82.6328C110.771 82.8516 110.786 83.1094 110.786 83.4062ZM134.762 110.336C134.762 110.617 134.746 110.867 134.715 111.086C134.684 111.289 134.629 111.461 134.551 111.602C134.473 111.742 134.379 111.844 134.27 111.906C134.176 111.969 134.067 112 133.942 112H119.387C119.027 112 118.684 111.883 118.356 111.648C118.043 111.398 117.887 110.969 117.887 110.359V83.3125C117.887 82.7031 118.043 82.2812 118.356 82.0469C118.684 81.7969 119.027 81.6719 119.387 81.6719H133.777C133.902 81.6719 134.012 81.7031 134.106 81.7656C134.215 81.8281 134.301 81.9297 134.363 82.0703C134.426 82.2109 134.473 82.3906 134.504 82.6094C134.551 82.8125 134.574 83.0703 134.574 83.3828C134.574 83.6641 134.551 83.9141 134.504 84.1328C134.473 84.3359 134.426 84.5078 134.363 84.6484C134.301 84.7734 134.215 84.8672 134.106 84.9297C134.012 84.9922 133.902 85.0234 133.777 85.0234H121.918V94.5391H132.09C132.215 94.5391 132.324 94.5781 132.418 94.6562C132.527 94.7188 132.613 94.8125 132.676 94.9375C132.754 95.0625 132.809 95.2344 132.84 95.4531C132.871 95.6719 132.887 95.9297 132.887 96.2266C132.887 96.5078 132.871 96.75 132.84 96.9531C132.809 97.1562 132.754 97.3203 132.676 97.4453C132.613 97.5703 132.527 97.6641 132.418 97.7266C132.324 97.7734 132.215 97.7969 132.09 97.7969H121.918V108.648H133.942C134.067 108.648 134.176 108.68 134.27 108.742C134.379 108.805 134.473 108.906 134.551 109.047C134.629 109.172 134.684 109.344 134.715 109.562C134.746 109.766 134.762 110.023 134.762 110.336ZM162.511 111.391C162.511 111.516 162.488 111.625 162.441 111.719C162.394 111.812 162.292 111.891 162.136 111.953C161.98 112.016 161.761 112.062 161.48 112.094C161.198 112.125 160.823 112.141 160.355 112.141C159.948 112.141 159.613 112.125 159.347 112.094C159.097 112.062 158.894 112.016 158.738 111.953C158.581 111.875 158.456 111.773 158.363 111.648C158.284 111.523 158.214 111.367 158.152 111.18L155.363 104.031C155.034 103.219 154.691 102.477 154.331 101.805C153.988 101.117 153.573 100.531 153.089 100.047C152.605 99.5469 152.034 99.1641 151.378 98.8984C150.722 98.6172 149.933 98.4766 149.011 98.4766H146.316V111.391C146.316 111.516 146.277 111.625 146.198 111.719C146.136 111.812 146.027 111.891 145.87 111.953C145.73 112 145.527 112.039 145.261 112.07C145.011 112.117 144.691 112.141 144.3 112.141C143.909 112.141 143.581 112.117 143.316 112.07C143.066 112.039 142.863 112 142.706 111.953C142.55 111.891 142.441 111.812 142.378 111.719C142.316 111.625 142.284 111.516 142.284 111.391V83.3125C142.284 82.7031 142.441 82.2812 142.753 82.0469C143.081 81.7969 143.425 81.6719 143.784 81.6719H150.23C150.995 81.6719 151.628 81.6953 152.128 81.7422C152.644 81.7734 153.105 81.8125 153.511 81.8594C154.683 82.0625 155.714 82.3828 156.605 82.8203C157.511 83.2578 158.269 83.8125 158.878 84.4844C159.488 85.1562 159.941 85.9297 160.238 86.8047C160.55 87.6641 160.706 88.6172 160.706 89.6641C160.706 90.6797 160.566 91.5938 160.284 92.4062C160.019 93.2031 159.628 93.9141 159.113 94.5391C158.597 95.1484 157.98 95.6797 157.261 96.1328C156.542 96.5859 155.738 96.9688 154.847 97.2812C155.347 97.5 155.8 97.7812 156.206 98.125C156.613 98.4531 156.988 98.8516 157.331 99.3203C157.691 99.7891 158.027 100.328 158.339 100.938C158.652 101.547 158.964 102.234 159.277 103L161.995 109.68C162.214 110.242 162.355 110.641 162.417 110.875C162.48 111.094 162.511 111.266 162.511 111.391ZM156.441 90.0859C156.441 88.8984 156.175 87.8984 155.644 87.0859C155.113 86.2578 154.222 85.6641 152.972 85.3047C152.581 85.1953 152.136 85.1172 151.636 85.0703C151.152 85.0234 150.511 85 149.714 85H146.316V95.2188H150.253C151.316 95.2188 152.23 95.0938 152.995 94.8438C153.777 94.5781 154.425 94.2188 154.941 93.7656C155.456 93.2969 155.831 92.75 156.066 92.125C156.316 91.5 156.441 90.8203 156.441 90.0859ZM186.182 110.336C186.182 110.617 186.166 110.867 186.135 111.086C186.104 111.289 186.049 111.461 185.971 111.602C185.893 111.742 185.799 111.844 185.69 111.906C185.596 111.969 185.487 112 185.362 112H170.807C170.447 112 170.104 111.883 169.776 111.648C169.463 111.398 169.307 110.969 169.307 110.359V83.3125C169.307 82.7031 169.463 82.2812 169.776 82.0469C170.104 81.7969 170.447 81.6719 170.807 81.6719H185.197C185.322 81.6719 185.432 81.7031 185.526 81.7656C185.635 81.8281 185.721 81.9297 185.783 82.0703C185.846 82.2109 185.893 82.3906 185.924 82.6094C185.971 82.8125 185.994 83.0703 185.994 83.3828C185.994 83.6641 185.971 83.9141 185.924 84.1328C185.893 84.3359 185.846 84.5078 185.783 84.6484C185.721 84.7734 185.635 84.8672 185.526 84.9297C185.432 84.9922 185.322 85.0234 185.197 85.0234H173.338V94.5391H183.51C183.635 94.5391 183.744 94.5781 183.838 94.6562C183.947 94.7188 184.033 94.8125 184.096 94.9375C184.174 95.0625 184.229 95.2344 184.26 95.4531C184.291 95.6719 184.307 95.9297 184.307 96.2266C184.307 96.5078 184.291 96.75 184.26 96.9531C184.229 97.1562 184.174 97.3203 184.096 97.4453C184.033 97.5703 183.947 97.6641 183.838 97.7266C183.744 97.7734 183.635 97.7969 183.51 97.7969H173.338V108.648H185.362C185.487 108.648 185.596 108.68 185.69 108.742C185.799 108.805 185.893 108.906 185.971 109.047C186.049 109.172 186.104 109.344 186.135 109.562C186.166 109.766 186.182 110.023 186.182 110.336ZM216.626 110.336C216.626 110.648 216.572 110.914 216.462 111.133C216.368 111.352 216.236 111.531 216.064 111.672C215.908 111.812 215.728 111.914 215.525 111.977C215.322 112.039 215.118 112.07 214.915 112.07H213.626C213.22 112.07 212.861 112.031 212.548 111.953C212.251 111.859 211.962 111.703 211.681 111.484C211.415 111.25 211.142 110.938 210.861 110.547C210.595 110.156 210.298 109.656 209.97 109.047L200.408 91.7969C199.908 90.9062 199.4 89.9766 198.884 89.0078C198.384 88.0234 197.915 87.0703 197.478 86.1484H197.431C197.462 87.2734 197.486 88.4219 197.501 89.5938C197.517 90.7656 197.525 91.9297 197.525 93.0859V111.391C197.525 111.5 197.493 111.609 197.431 111.719C197.368 111.812 197.259 111.891 197.103 111.953C196.962 112 196.767 112.039 196.517 112.07C196.283 112.117 195.978 112.141 195.603 112.141C195.228 112.141 194.915 112.117 194.665 112.07C194.431 112.039 194.243 112 194.103 111.953C193.962 111.891 193.861 111.812 193.798 111.719C193.736 111.609 193.704 111.5 193.704 111.391V83.4062C193.704 82.7812 193.876 82.3359 194.22 82.0703C194.564 81.8047 194.939 81.6719 195.345 81.6719H197.267C197.72 81.6719 198.095 81.7109 198.392 81.7891C198.704 81.8672 198.978 82 199.212 82.1875C199.462 82.3594 199.697 82.6094 199.915 82.9375C200.15 83.25 200.4 83.6484 200.665 84.1328L208.025 97.4453C208.478 98.2578 208.915 99.0547 209.337 99.8359C209.759 100.602 210.165 101.359 210.556 102.109C210.947 102.859 211.329 103.602 211.704 104.336C212.095 105.055 212.478 105.781 212.853 106.516H212.876C212.845 105.281 212.822 104 212.806 102.672C212.806 101.328 212.806 100.039 212.806 98.8047V82.3516C212.806 82.2422 212.837 82.1406 212.9 82.0469C212.962 81.9531 213.064 81.875 213.204 81.8125C213.361 81.7344 213.556 81.6797 213.79 81.6484C214.04 81.6172 214.361 81.6016 214.751 81.6016C215.095 81.6016 215.392 81.6172 215.642 81.6484C215.892 81.6797 216.087 81.7344 216.228 81.8125C216.368 81.875 216.47 81.9531 216.533 82.0469C216.595 82.1406 216.626 82.2422 216.626 82.3516V110.336ZM245.899 107.711C245.899 107.961 245.891 108.18 245.875 108.367C245.86 108.555 245.828 108.719 245.782 108.859C245.75 109 245.703 109.125 245.641 109.234C245.578 109.344 245.469 109.477 245.313 109.633C245.157 109.789 244.828 110.031 244.328 110.359C243.828 110.672 243.203 110.984 242.453 111.297C241.719 111.594 240.867 111.844 239.899 112.047C238.946 112.266 237.899 112.375 236.758 112.375C234.789 112.375 233.008 112.047 231.414 111.391C229.836 110.734 228.485 109.766 227.36 108.484C226.25 107.203 225.391 105.625 224.782 103.75C224.188 101.859 223.891 99.6875 223.891 97.2344C223.891 94.7188 224.211 92.4766 224.852 90.5078C225.508 88.5391 226.422 86.875 227.594 85.5156C228.766 84.1406 230.164 83.0938 231.789 82.375C233.43 81.6562 235.242 81.2969 237.227 81.2969C238.102 81.2969 238.953 81.3828 239.782 81.5547C240.61 81.7109 241.375 81.9141 242.078 82.1641C242.782 82.4141 243.407 82.7031 243.953 83.0312C244.5 83.3594 244.875 83.6328 245.078 83.8516C245.297 84.0547 245.438 84.2109 245.5 84.3203C245.563 84.4297 245.61 84.5625 245.641 84.7188C245.688 84.8594 245.719 85.0312 245.735 85.2344C245.766 85.4375 245.782 85.6797 245.782 85.9609C245.782 86.2734 245.766 86.5391 245.735 86.7578C245.703 86.9766 245.657 87.1641 245.594 87.3203C245.532 87.4609 245.453 87.5703 245.36 87.6484C245.282 87.7109 245.18 87.7422 245.055 87.7422C244.836 87.7422 244.532 87.5938 244.141 87.2969C243.75 86.9844 243.242 86.6484 242.617 86.2891C242.008 85.9141 241.258 85.5781 240.367 85.2812C239.492 84.9688 238.438 84.8125 237.203 84.8125C235.86 84.8125 234.633 85.0859 233.524 85.6328C232.43 86.1641 231.492 86.9531 230.711 88C229.93 89.0469 229.321 90.3281 228.883 91.8438C228.461 93.3438 228.25 95.0625 228.25 97C228.25 98.9219 228.453 100.625 228.86 102.109C229.282 103.578 229.875 104.812 230.641 105.812C231.422 106.797 232.375 107.547 233.5 108.062C234.625 108.562 235.899 108.812 237.321 108.812C238.524 108.812 239.571 108.664 240.461 108.367C241.367 108.07 242.133 107.742 242.758 107.383C243.399 107.008 243.922 106.672 244.328 106.375C244.735 106.078 245.055 105.93 245.289 105.93C245.399 105.93 245.492 105.953 245.571 106C245.649 106.047 245.711 106.141 245.758 106.281C245.805 106.406 245.836 106.586 245.852 106.82C245.883 107.055 245.899 107.352 245.899 107.711ZM269.077 110.336C269.077 110.617 269.062 110.867 269.031 111.086C268.999 111.289 268.945 111.461 268.867 111.602C268.788 111.742 268.695 111.844 268.585 111.906C268.492 111.969 268.382 112 268.257 112H253.702C253.343 112 252.999 111.883 252.671 111.648C252.359 111.398 252.202 110.969 252.202 110.359V83.3125C252.202 82.7031 252.359 82.2812 252.671 82.0469C252.999 81.7969 253.343 81.6719 253.702 81.6719H268.093C268.218 81.6719 268.327 81.7031 268.421 81.7656C268.531 81.8281 268.617 81.9297 268.679 82.0703C268.742 82.2109 268.788 82.3906 268.82 82.6094C268.867 82.8125 268.89 83.0703 268.89 83.3828C268.89 83.6641 268.867 83.9141 268.82 84.1328C268.788 84.3359 268.742 84.5078 268.679 84.6484C268.617 84.7734 268.531 84.8672 268.421 84.9297C268.327 84.9922 268.218 85.0234 268.093 85.0234H256.234V94.5391H266.406C266.531 94.5391 266.64 94.5781 266.734 94.6562C266.843 94.7188 266.929 94.8125 266.992 94.9375C267.07 95.0625 267.124 95.2344 267.156 95.4531C267.187 95.6719 267.202 95.9297 267.202 96.2266C267.202 96.5078 267.187 96.75 267.156 96.9531C267.124 97.1562 267.07 97.3203 266.992 97.4453C266.929 97.5703 266.843 97.6641 266.734 97.7266C266.64 97.7734 266.531 97.7969 266.406 97.7969H256.234V108.648H268.257C268.382 108.648 268.492 108.68 268.585 108.742C268.695 108.805 268.788 108.906 268.867 109.047C268.945 109.172 268.999 109.344 269.031 109.562C269.062 109.766 269.077 110.023 269.077 110.336Z" fill="black"/>
<defs>
<clipPath id="clip0_1008_68">
<rect width="620" height="189" fill="white" transform="translate(0 84)"/>
</clipPath>
</defs>
</svg>
