<svg width="8" height="173" viewBox="0 0 8 173" fill="none" xmlns="http://www.w3.org/2000/svg">
<g clip-path="url(#clip0_368_22920)">
<path d="M7.99779 17.8613L7.99779 11.9082L3.99778 11.9082L3.99778 17.8613L7.99779 17.8613Z" fill="#C54090"/>
<path d="M4 29.7693L4 0L-3.8147e-06 1.74846e-07L-2.51344e-06 29.7693L4 29.7693Z" fill="#F9D2E5"/>
<path d="M4 73.1052L4 36.5875L-3.8147e-06 36.5875L-2.21846e-06 73.1052L4 73.1052Z" fill="#E74310"/>
<path d="M7.99779 50.5792L7.99779 22.9943L3.99778 22.9943L3.99778 50.5792L7.99779 50.5792Z" fill="#004E9D"/>
<path d="M7.99779 86.4989L7.99779 58.9139L3.99778 58.9139L3.99778 86.4989L7.99779 86.4989Z" fill="#C54090"/>
<path d="M4 155.139L4 161.092L8 161.092L8 155.139L4 155.139Z" fill="#F9D2E5"/>
<path d="M-1.30126e-06 143.231L0 173L4 173L4 143.231L-1.30126e-06 143.231Z" fill="#10B8D9"/>
<path d="M-1.59624e-06 99.8948L0 136.412L4 136.412L4 99.8948L-1.59624e-06 99.8948Z" fill="#FFD028"/>
<path d="M4 122.421L4 150.006L8 150.006L8 122.421L4 122.421Z" fill="#E4003D"/>
<path d="M4 86.5011L4 114.086L8 114.086L8 86.5011L4 86.5011Z" fill="#00993E"/>
</g>
<defs>
<clipPath id="clip0_368_22920">
<rect width="173" height="8.00001" fill="white" transform="translate(0 173) rotate(-90)"/>
</clipPath>
</defs>
</svg>
