<svg width="173" height="8" viewBox="0 0 173 8" fill="none" xmlns="http://www.w3.org/2000/svg">
<g clip-path="url(#clip0_368_29417)">
<path d="M155.139 7.9978L161.092 7.9978V3.9978L155.139 3.9978V7.9978Z" fill="#C54090"/>
<path d="M143.231 4L173 4V-3.8147e-06L143.231 -3.8147e-06V4Z" fill="#F9D2E5"/>
<path d="M99.895 4L136.413 4V-3.8147e-06L99.895 -3.8147e-06V4Z" fill="#E74310"/>
<path d="M122.421 7.9978L150.006 7.9978V3.9978L122.421 3.9978V7.9978Z" fill="#004E9D"/>
<path d="M86.501 7.9978L114.086 7.9978V3.9978L86.501 3.9978V7.9978Z" fill="#C54090"/>
<path d="M17.8612 4L11.9082 4V8H17.8612V4Z" fill="#F9D2E5"/>
<path d="M29.7693 0L0 0L0 4L29.7693 4V0Z" fill="#10B8D9"/>
<path d="M73.105 0L36.5874 0V4L73.105 4V0Z" fill="#FFD028"/>
<path d="M50.5794 4L22.9944 4V8L50.5794 8V4Z" fill="#E4003D"/>
<path d="M86.499 4L58.9141 4V8L86.499 8V4Z" fill="#00993E"/>
</g>
<defs>
<clipPath id="clip0_368_29417">
<rect width="173" height="8.00001" fill="white"/>
</clipPath>
</defs>
</svg>
