<svg width="282" height="115" viewBox="0 0 282 115" fill="none" xmlns="http://www.w3.org/2000/svg">
<g clip-path="url(#clip0_368_21974)">
<path d="M25.0287 77.9771L23.4851 79.3277L21.1953 76.8421L0.159459 78.4019L0 76.4173L4.25437 76.1256L10.9325 67.4517L12.661 68.7451L7.10549 75.9101L19.5497 75.0414L16.8644 72.131L18.4079 70.7805L25.0287 77.9708V77.9771ZM21.4377 91.8314H19.2563V90.6393H5.56193V91.9899H3.35502V80.7797H21.4377V91.8314ZM19.2563 88.7625V82.7326H5.56193V88.7625H19.2563Z" fill="white"/>
<path d="M37.6132 83.5316L34.6855 91.7554L32.8741 91.1214L35.8017 82.8976L37.6132 83.5316ZM36.6564 78.5352L35.2468 79.7272L33.0399 77.1086L34.4495 75.9165L36.6564 78.5352ZM37.1858 70.6601L35.7252 71.7951L33.4928 68.9418L34.9279 67.7815L37.1858 70.6601ZM39.5522 78.0914C39.2078 79.1502 38.7294 80.2852 38.1426 81.528L36.8414 80.9193C37.4027 79.7272 37.8237 78.643 38.1681 77.6412L39.5522 78.0914ZM44.1 76.5316L42.8498 77.1403L42.5564 76.5823L41.5167 76.6901V81.1602H39.9732V76.8486L37.4218 77.1149L37.2879 75.6883L38.4041 75.5805L39.6543 73.9129L37.205 71.3449L38.2702 70.3431L38.6401 70.7426L40.4516 67.94L41.7272 68.7833L39.7308 71.8775L40.5281 72.7272L41.8293 71.0342L42.971 71.9029L40.3367 75.3902L41.9058 75.2571L41.6124 74.6738L42.8881 74.0651L44.0872 76.5252L44.1 76.5316ZM56.8631 87.9257C54.6306 90.3605 52.1814 91.8125 51.1736 91.8125H47.4231V90.1195H50.7717C51.4096 90.1195 52.3918 89.5362 53.6994 88.4519H40.324L39.8966 89.6947L38.0852 89.1938L39.7627 84.4383H53.5144V83.3287H39.5267V81.8196H55.3259V85.8903H41.2042L40.8598 86.9492H55.7532L56.8695 87.9257H56.8631ZM44.0426 79.6765L42.7669 80.3106L41.7017 78.2245L42.9774 77.5904L44.0426 79.6765ZM57.1246 75.8721L55.9573 76.6394L55.5874 76.056L54.2033 76.1638V81.1095H52.6597V76.2716L49.8405 76.4555L49.7321 75.0035L50.8993 74.9527L52.2005 73.393L49.9936 71.0152V71.8332H43.5578V70.3812H49.9936V70.8821L50.9503 70.0388L51.1927 70.2797L52.8702 67.9781L54.1204 68.8784L52.2834 71.3893L53.1636 72.2897L55.1345 69.9627L56.2507 70.8884L52.9021 74.8259L54.7391 74.7181L54.4457 74.2426L55.6129 73.4754L57.131 75.8848L57.1246 75.8721ZM49.4387 69.6837H44.0936V68.2317H49.4387V69.6837ZM49.5471 81.0524H44.1191V76.7154H49.5471V81.0524ZM49.2792 73.9129H44.387V72.594H49.2792V73.9129ZM49.3047 75.9736H44.4125V74.5977H49.3047V75.9736ZM48.029 79.6765V78.0914H45.6053V79.6765H48.029ZM52.2834 77.6158C51.99 78.4908 51.6456 79.4419 51.2182 80.5262L49.8596 79.9935C50.2615 78.9664 50.6059 78.0089 50.8993 77.1403L52.2834 77.6158ZM57.0417 79.5751L55.7086 80.1838L54.5669 77.6475L55.8936 77.0642L57.0353 79.5751H57.0417Z" fill="white"/>
<path d="M79.5318 85.5414L76.8975 85.6238C76.3936 86.7842 75.4879 87.9762 74.3143 88.9019L77.3185 90.0623L76.6806 91.5967L72.6367 90.0116C70.8572 90.988 68.7013 91.5713 66.2265 91.7806L66.0415 90.1954C67.7701 90.0623 69.2562 89.7199 70.5638 89.219L67.2917 87.9255L68.8352 85.8077L65.1103 85.9916L65.0593 84.4318L69.8175 84.2479L70.9337 82.872H66.7304V78.1926H71.5205V76.9752H66.7304V74.0649H64.9763V72.5304H66.7304V69.5947H71.4631V67.851H73.3766V69.5947H78.0328V72.5304H79.3659V74.0649H78.0328V76.9752H73.3001V78.1926H78.0328V82.872H73.0896L71.9734 84.2479L79.4743 83.9816L79.5254 85.5414H79.5318ZM71.5269 72.5368V71.1355H68.5227V72.5368H71.5269ZM71.5269 75.4471V74.0712H68.5227V75.4471H71.5269ZM71.5269 81.3693V79.651H68.5227V81.3693H71.5269ZM70.9975 85.8077L69.9323 87.209L72.5092 88.2108C73.4914 87.5514 74.3206 86.6764 74.85 85.6746L70.9911 85.8077H70.9975ZM76.3171 72.5368V71.1355H73.3129V72.5368H76.3171ZM76.3171 75.4471V74.0712H73.3129V75.4471H76.3171ZM76.3171 81.3693V79.651H73.3129V81.3693H76.3171ZM88.7931 91.6791C86.9051 90.4871 85.3361 88.9844 84.0604 87.1583C82.6253 89.1682 80.8457 90.7027 78.7153 91.7552L77.8925 90.0876C79.991 89.0541 81.694 87.4943 83.0016 85.4082C81.7514 83.0812 80.9796 80.5703 80.6862 77.8502C80.4183 78.4082 80.1568 78.9345 79.8634 79.4607L78.2178 78.5604C80.0803 75.1998 81.5664 71.6301 82.7146 67.8257L84.4941 68.352C84.0923 69.7786 83.5118 71.4208 82.7656 73.2406H89.4692V75.092H87.6578C87.6323 78.8711 86.8031 82.3394 85.132 85.4273C86.3311 87.4119 87.9002 88.9717 89.7882 90.1574L88.8059 91.6665L88.7931 91.6791ZM81.9874 75.1047C81.8024 75.5803 81.5856 76.0305 81.3751 76.4806H82.4148C82.4403 78.6745 82.9761 80.9762 84.0349 83.411C85.1766 80.8176 85.7634 78.0404 85.7889 75.1111H81.9874V75.1047Z" fill="white"/>
<path d="M103.859 68.5421C103.246 70.0766 102.424 72.0612 101.359 74.4897H101.971V91.7552H100.032V77.4C99.394 78.8266 98.8327 80.1201 98.3543 81.1029L96.5492 80.2026C98.3862 76.6835 100.217 72.5367 102.003 67.8003L103.865 68.5421H103.859ZM120.934 90.5885H103.782V88.7117H112.827L116.839 76.525L118.701 77.1337L114.9 88.7117H120.934V90.5885ZM120.347 74.6735H104.203V72.7967H111.009V67.9842H113.165V72.7967H120.347V74.6735ZM108.432 87.3104C107.584 83.4236 106.678 80.0123 105.747 77.0766L107.635 76.4679C108.592 79.4797 109.497 82.9481 110.371 86.8856L108.432 87.3104Z" fill="white"/>
<path d="M153.419 91.1974H138.768C136.612 91.1974 134.909 90.5062 133.607 89.1367L130.444 91.6983L129.277 90.2716L132.574 87.6022V80.5451H129.621V78.6936H134.437V87.2852C135.285 88.6865 136.726 89.403 138.774 89.403H153.425V91.2037L153.419 91.1974ZM134.775 74.2235L133.18 75.2253L129.513 69.4363L131.107 68.4345L134.775 74.2235ZM143.341 73.5387H139.616C139.616 74.4644 139.616 75.3648 139.59 76.2905H143.232C143.232 80.0696 143.443 84.2734 141.874 87.8178H139.138V86.1249H140.681C141.242 84.5143 141.504 81.7879 141.504 77.9835H139.482C139.24 81.5025 138.34 84.6982 136.771 87.5515L135.285 86.7336C137.651 82.3205 137.919 78.4337 137.919 73.5387H135.336V71.8458H138.557V68.2506H140.369V71.8458H143.347V73.5387H143.341ZM153.285 72.7461H145.969C145.465 73.6465 144.961 74.4391 144.508 75.0985L143.098 74.1474C144.349 72.2706 145.465 70.2099 146.447 67.9336L148.016 68.593C147.697 69.3602 147.327 70.1782 146.874 71.0532H153.285V72.7461ZM153.176 82.3712H149.266V87.076L148.361 87.9763H145.624V86.258H147.461V82.3712H143.794V80.7036H147.461V78.6176H147.94L150.255 76.8168H144.725V75.1809H152.596L153.1 76.6329L149.273 79.6194V80.7036H153.183V82.3712H153.176Z" fill="white"/>
<path d="M172.777 81.2553L169.237 83.2145V91.6729H167.349V84.2671L162.272 87.0696L161.398 85.4845L167.355 82.2064V75.5677H164.3C163.93 77.0197 163.579 78.1547 163.292 79.0297L161.564 78.4464C162.438 75.8784 163.158 73.0505 163.694 69.9626L165.474 70.2543C165.314 71.18 165.072 72.3403 164.727 73.7733H167.362V67.959H169.25V73.7733H172.413V75.5741H169.25V81.1538L171.91 79.6764L172.783 81.2616L172.777 81.2553ZM185.036 91.6983C182.644 90.5062 180.622 88.8196 178.945 86.6194C177.133 88.8704 174.824 90.557 172.005 91.6666L171.31 89.9483C174.078 88.864 176.26 87.2281 177.88 85.0279C176.362 82.5424 175.437 79.9491 175.086 77.2543L176.923 77.0451C177.191 79.0804 177.88 81.1411 178.996 83.2335C180.354 80.6719 181.043 77.9708 181.043 75.0922H175.513C174.901 76.3603 174.187 77.5777 173.466 78.7697L171.897 77.8186C173.893 74.5659 175.379 71.18 176.362 67.718L178.173 68.1936C177.72 69.8041 177.108 71.497 176.362 73.2407H185.508V75.0922H182.874C182.874 78.7127 181.943 82.0161 180.08 85.0089C181.598 87.2281 183.537 88.8957 185.853 90.0307L185.03 91.6983H185.036Z" fill="white"/>
<path d="M217.553 77.8757H206.914C205.613 78.7507 204.203 79.5941 202.634 80.4691H214.019V91.73H212.049V90.6204H201.333V91.73H199.311V82.2127C197.691 82.98 195.962 83.7472 194.1 84.4573L193.411 82.739C196.843 81.4138 200.166 79.8033 203.355 77.8757H193.864V76.0496H203.387V72.7715H196.792V70.9201H203.387V67.7498H205.409V70.9201H210.518V72.7462C211.978 71.4527 213.254 70.1782 214.294 68.8847L215.837 70.0197C214.402 71.9473 212.246 73.9572 209.51 76.0496H217.566V77.8757H217.553ZM212.049 84.6983V82.3205H201.333V84.6983H212.049ZM212.049 88.8514V86.4166H201.333V88.8514H212.049ZM205.402 72.7779V76.056H206.225C207.794 74.9717 209.229 73.8875 210.505 72.7779H205.396H205.402Z" fill="white"/>
<path d="M234.041 76.316H230.986V91.6476H229.098V76.316H225.851V74.4645H229.098V67.8829H230.986V74.4645H234.041V76.316ZM241.064 82.0035C241.064 84.2481 240.585 89.2192 239.386 91.0453L236.49 91.0706V89.4855H238.27C238.697 88.4266 239.042 86.4737 239.278 83.614H237.364C236.701 87.0253 235.266 89.5869 233.059 91.3623L231.994 90.0117C233.799 88.5597 235.023 86.442 235.636 83.614H232.472V82.0289H235.878C235.961 81.1856 236.012 80.4945 235.987 79.9682L237.741 79.9428C237.741 80.5008 237.69 81.1856 237.607 82.0289L241.064 82.0035ZM248.75 70.6094C248.565 72.4862 247.895 76.9817 246.811 78.383L243.111 78.4084V76.6394H245.586C246.013 75.7643 246.358 74.3377 246.626 72.3277H242.212C241.23 75.7136 238.672 78.1674 235.03 79.1756L234.577 77.4573C237.313 76.7154 239.208 74.9971 240.298 72.3277H235.087V70.6094H240.809C241.051 69.5759 241.153 68.6502 241.127 67.8322L242.99 67.7815C243.015 68.5741 242.907 69.5252 242.697 70.6094H248.762H248.75ZM250.134 81.7436C250.134 84.2037 249.84 89.1177 248.514 91.153L245.509 91.2038V89.5933H247.372C247.876 88.4583 248.227 86.3976 248.38 83.4048H246.064C245.56 86.759 244.361 89.4601 242.473 91.4954L241.198 90.3351C242.875 88.5344 243.934 86.2391 244.387 83.4111H242.071V81.7436H244.572C244.623 80.9763 244.623 80.2916 244.572 79.6575H246.3C246.3 80.5579 246.275 81.2426 246.249 81.7436H250.134Z" fill="white"/>
<path d="M281.279 75.3331C276.916 73.4563 273.115 71.4463 269.843 69.2778C266.596 71.4209 262.82 73.4816 258.515 75.4662L257.743 73.8557C262.208 71.7697 266.067 69.6519 269.288 67.4834H270.538C273.919 69.785 277.72 71.8711 282 73.6972L281.279 75.3394V75.3331ZM279.953 82.1556H259.848V75.3331H279.953V82.1556ZM278.25 91.7553H276.413V91.1466H263.458V91.7046H261.596V83.3794H278.243V91.7617L278.25 91.7553ZM268.784 80.5197V76.9753H261.653V80.5197H268.784ZM276.419 86.4926V85.0152H263.464V86.4926H276.419ZM276.419 89.5044V88.0207H263.464V89.5044H276.419ZM267.138 79.2453L265.914 80.4373L263.649 78.2181L264.874 77.026L267.132 79.2453H267.138ZM275.118 74.065H264.638V72.4227H275.118V74.065ZM278.173 80.5134V76.969H275.086L276.202 78.0532L273.785 80.4817L272.56 79.2643L274.875 76.9626H270.595V80.5071H278.173V80.5134Z" fill="white"/>
<path d="M2.76183 114.841V107.188H0.0446472V105.743H6.99706V107.188H4.27988V114.841H2.76183Z" fill="white"/>
<path d="M14.313 114.841L13.5668 112.8H9.86732L9.12105 114.841H7.57748L11.0154 105.743H12.4824L15.9076 114.841H14.313ZM11.7234 107.683L10.3648 111.411H13.0693L11.7234 107.683Z" fill="white"/>
<path d="M18.2357 114.841V105.743H19.7538V114.841H18.2357Z" fill="white"/>
<path d="M32.2617 105.743H33.7798L30.9414 114.841H29.7359L27.9436 108.691L26.1513 114.841H24.933L22.1201 105.743H23.6765L25.5581 112.128L27.3887 105.743H28.5113L30.3674 112.128L32.249 105.743H32.2617Z" fill="white"/>
<path d="M41.453 114.841L40.7067 112.8H37.0072L36.261 114.841H34.7174L38.1553 105.743H39.6224L43.0475 114.841H41.453ZM38.8633 107.683L37.5047 111.411H40.2092L38.8633 107.683Z" fill="white"/>
<path d="M51.1544 105.743H52.6342V114.841H51.2374L46.8554 108.355V114.841H45.3756V105.743H46.7725L51.1544 112.229V105.743Z" fill="white"/>
<path d="M63.4711 114.841V105.743H66.2456C68.7587 105.743 70.7551 107.734 70.7551 110.295C70.7551 112.857 68.7268 114.841 66.2456 114.841H63.4711ZM64.9891 113.402H66.2456C67.853 113.402 69.2371 112.077 69.2371 110.295C69.2371 108.514 67.853 107.188 66.2456 107.188H64.9891V113.402Z" fill="white"/>
<path d="M73.619 114.841V105.743H75.1371V114.841H73.619Z" fill="white"/>
<path d="M82.5742 110.175H86.5607V114.842H85.6358L85.3488 113.542C84.8258 114.258 83.7797 115 82.4084 115C80.0293 115 78.001 112.946 78.001 110.295C78.001 107.645 80.0293 105.591 82.4084 105.591C84.5388 105.591 86.0823 107.1 86.4204 108.647H84.8641C84.5643 107.867 83.7415 107.036 82.4084 107.036C80.8648 107.036 79.519 108.387 79.519 110.302C79.519 112.217 80.8648 113.561 82.4084 113.561C83.952 113.561 84.8513 112.445 84.998 111.481H82.5806V110.181L82.5742 110.175Z" fill="white"/>
<path d="M89.8328 114.841V105.743H91.3509V114.841H89.8328Z" fill="white"/>
<path d="M96.4918 114.841V107.188H93.7746V105.743H100.727V107.188H98.0099V114.841H96.4918Z" fill="white"/>
<path d="M108.037 114.841L107.29 112.8H103.591L102.845 114.841H101.301L104.739 105.743H106.206L109.631 114.841H108.037ZM105.447 107.683L104.088 111.411H106.793L105.447 107.683Z" fill="white"/>
<path d="M111.966 114.841V105.743H113.484V113.396H117.827V114.835H111.972L111.966 114.841Z" fill="white"/>
<path d="M133.167 105.743H134.647V114.841H133.25L128.868 108.355V114.841H127.389V105.743H128.785L133.167 112.229V105.743Z" fill="white"/>
<path d="M137.517 110.295C137.517 107.645 139.546 105.591 141.925 105.591C144.304 105.591 146.332 107.645 146.332 110.295C146.332 112.946 144.291 115 141.925 115C139.558 115 137.517 112.946 137.517 110.295ZM144.814 110.295C144.814 108.387 143.468 107.03 141.925 107.03C140.381 107.03 139.035 108.38 139.035 110.295C139.035 112.21 140.381 113.554 141.925 113.554C143.468 113.554 144.814 112.204 144.814 110.295Z" fill="white"/>
<path d="M156.946 105.743H158.304V114.841H156.825V108.995L154.146 114.841H153.336L150.682 109.059V114.841H149.203V105.743H150.638L153.789 112.641L156.94 105.743H156.946Z" fill="white"/>
<path d="M167.381 114.841L166.635 112.8H162.935L162.189 114.841H160.645L164.083 105.743H165.55L168.975 114.841H167.381ZM164.791 107.683L163.433 111.411H166.137L164.791 107.683Z" fill="white"/>
<path d="M171.31 114.841V105.743H174.085C176.598 105.743 178.594 107.734 178.594 110.295C178.594 112.857 176.566 114.841 174.085 114.841H171.31ZM172.828 113.402H174.085C175.692 113.402 177.076 112.077 177.076 110.295C177.076 108.514 175.692 107.188 174.085 107.188H172.828V113.402Z" fill="white"/>
<path d="M194.884 114.841L194.138 112.8H190.439L189.692 114.841H188.149L191.587 105.743H193.054L196.479 114.841H194.884ZM192.295 107.683L190.936 111.411H193.641L192.295 107.683Z" fill="white"/>
<path d="M198.156 112.052H199.675C199.764 112.99 200.395 113.637 201.518 113.637C202.64 113.637 203.151 113.104 203.151 112.438C203.151 110.422 198.367 111.373 198.367 108.14C198.367 106.694 199.49 105.591 201.403 105.591C203.317 105.591 204.465 106.852 204.541 108.463H203.023C202.972 107.582 202.373 106.954 201.403 106.954C200.434 106.954 199.885 107.474 199.885 108.165C199.885 110.137 204.669 109.129 204.669 112.4C204.669 113.884 203.546 115 201.505 115C199.464 115 198.239 113.751 198.156 112.052Z" fill="white"/>
<path d="M207.105 112.052H208.623C208.713 112.99 209.344 113.637 210.467 113.637C211.589 113.637 212.1 113.104 212.1 112.438C212.1 110.422 207.316 111.373 207.316 108.14C207.316 106.694 208.438 105.591 210.352 105.591C212.265 105.591 213.413 106.852 213.49 108.463H211.972C211.921 107.582 211.321 106.954 210.352 106.954C209.382 106.954 208.834 107.474 208.834 108.165C208.834 110.137 213.618 109.129 213.618 112.4C213.618 113.884 212.495 115 210.454 115C208.413 115 207.188 113.751 207.105 112.052Z" fill="white"/>
<path d="M215.958 110.295C215.958 107.645 217.987 105.591 220.366 105.591C222.745 105.591 224.773 107.645 224.773 110.295C224.773 112.946 222.732 115 220.366 115C218 115 215.958 112.946 215.958 110.295ZM223.255 110.295C223.255 108.387 221.909 107.03 220.366 107.03C218.822 107.03 217.477 108.38 217.477 110.295C217.477 112.21 218.822 113.554 220.366 113.554C221.909 113.554 223.255 112.204 223.255 110.295Z" fill="white"/>
<path d="M227.057 112.052H228.575C228.664 112.99 229.296 113.637 230.418 113.637C231.541 113.637 232.051 113.104 232.051 112.438C232.051 110.422 227.267 111.373 227.267 108.14C227.267 106.694 228.39 105.591 230.303 105.591C232.217 105.591 233.365 106.852 233.442 108.463H231.923C231.872 107.582 231.267 106.954 230.303 106.954C229.34 106.954 228.785 107.474 228.785 108.165C228.785 110.137 233.569 109.129 233.569 112.4C233.569 113.884 232.447 115 230.405 115C228.364 115 227.14 113.751 227.057 112.052Z" fill="white"/>
<path d="M236.522 114.841V105.743H238.04V114.841H236.522Z" fill="white"/>
<path d="M247.085 114.841L246.339 112.8H242.639L241.893 114.841H240.349L243.787 105.743H245.254L248.679 114.841H247.085ZM244.495 107.683L243.137 111.411H245.841L244.495 107.683Z" fill="white"/>
<path d="M251.983 114.841V107.188H249.266V105.743H256.219V107.188H253.501V114.841H251.983Z" fill="white"/>
<path d="M258.649 114.841V105.743H260.167V114.841H258.649Z" fill="white"/>
<path d="M263.037 110.295C263.037 107.645 265.065 105.591 267.445 105.591C269.824 105.591 271.852 107.645 271.852 110.295C271.852 112.946 269.811 115 267.445 115C265.078 115 263.037 112.946 263.037 110.295ZM270.334 110.295C270.334 108.387 268.988 107.03 267.445 107.03C265.901 107.03 264.555 108.38 264.555 110.295C264.555 112.21 265.901 113.554 267.445 113.554C268.988 113.554 270.334 112.204 270.334 110.295Z" fill="white"/>
<path d="M280.501 105.743H281.981V114.841H280.584L276.202 108.355V114.841H274.722V105.743H276.119L280.501 112.229V105.743Z" fill="white"/>
<path d="M108.84 0H72.3433V4.32431H86.2545V36.0148H72.3433V40.3391H108.84C126.98 40.3391 138.691 32.445 138.691 20.1695C138.691 7.89408 126.98 0 108.84 0ZM108.84 35.5519H91.472V4.78083H108.84C123.97 4.78083 133.301 10.5445 133.301 20.1632C133.301 29.7819 123.97 35.5456 108.84 35.5456V35.5519Z" fill="white"/>
<path d="M215.722 0H180.948V4.32431H196.594V35.2602L158.336 0H137.473V4.32431H151.384V36.0148H137.473V40.3327H172.248V36.0148H156.601V5.0725L194.852 40.3327H201.811V4.32431H215.722V0Z" fill="white"/>
<path d="M271.565 36.0148L250.351 4.32431H266.348V0H223.689V4.32431H239.463L218.242 36.0148H207.807V40.3391H240.037V36.0148H224.384L230.705 26.5102H259.395L265.716 36.0148H250.064V40.3391H282V36.0148H271.565ZM233.716 21.9005L245.018 4.84424L256.321 21.9005H233.716Z" fill="white"/>
<path d="M4.35004 0H0V4.32431V11.4322H4.35004V4.32431H30.5651V36.0148H21.5844V40.3327H30.5651H35.7826H44.7569V36.0148H35.7826V4.32431H61.9976V11.4322H66.3477V4.32431V0H61.9976H4.35004Z" fill="white"/>
</g>
<defs>
<clipPath id="clip0_368_21974">
<rect width="282" height="115" fill="white"/>
</clipPath>
</defs>
</svg>
