<svg width="29" height="28" viewBox="0 0 29 28" fill="none" xmlns="http://www.w3.org/2000/svg">
<path d="M14.2876 5.17381L16.3676 5.67381C15.6676 7.75381 14.4076 9.73381 13.0276 10.9938C12.6876 10.5938 11.8876 9.81381 11.4476 9.45381C12.6876 8.43381 13.7276 6.85381 14.2876 5.17381ZM17.5876 7.73381L19.8076 7.93381C18.9076 11.9338 16.6276 14.1538 13.0076 15.4538C12.7676 14.9938 12.0676 14.1338 11.6476 13.7538C14.9876 12.7938 17.0076 10.9738 17.5876 7.73381ZM14.1076 6.97381H20.8876V8.79381H13.1876L14.1076 6.97381ZM4.90762 5.15381L6.88762 5.65381C6.24762 7.09381 5.12762 8.51381 4.06762 9.43381C3.70762 9.09381 2.86762 8.55381 2.38762 8.29381C3.44762 7.51381 4.38762 6.33381 4.90762 5.15381ZM4.98762 6.35381H12.2476V7.85381H4.24762L4.98762 6.35381ZM14.9076 8.39381C15.9076 11.0738 18.1076 13.0138 21.4276 13.7538C20.9476 14.2138 20.3276 15.0938 20.0276 15.6738C16.4876 14.6138 14.3276 12.2538 13.0876 8.79381L14.9076 8.39381ZM10.5276 19.7938H12.9076V23.9738H10.5276V19.7938ZM10.1476 14.3538L12.1076 15.2938C11.0076 16.1338 9.74762 16.9538 8.76762 17.4938L7.28762 16.6738C8.24762 16.0538 9.44762 15.0738 10.1476 14.3538ZM14.0676 15.1338L16.0276 16.2338C13.8676 17.6338 11.0476 19.1138 8.88762 20.0338L7.46762 19.0338C9.64762 18.0538 12.4076 16.4138 14.0676 15.1338ZM4.76762 17.0538L6.36762 15.8138C7.74762 16.4338 9.56762 17.4538 10.5276 18.2138L8.80762 19.5938C7.96762 18.8538 6.16762 17.7538 4.76762 17.0538ZM14.8476 17.9138L16.4876 16.8538C18.0476 17.6538 20.0276 18.9338 21.0276 19.9138L19.2676 21.0938C18.3676 20.1538 16.4276 18.7938 14.8476 17.9138ZM14.1876 21.6138L15.9076 20.3938C17.4276 20.8938 19.5476 21.7738 20.6876 22.4538L18.8276 23.7938C17.8276 23.1538 15.7476 22.1938 14.1876 21.6138ZM2.98762 18.7738C6.82762 18.7738 13.0676 18.7138 18.8476 18.5938L18.7476 20.2338C13.1276 20.4138 7.06762 20.5738 3.08762 20.6538L2.98762 18.7738ZM7.24762 20.5338L9.36762 21.3738C8.04762 22.3538 5.96762 23.2938 4.30762 23.8538C3.90762 23.4138 3.10762 22.6138 2.58762 22.2338C4.28762 21.8538 6.16762 21.2138 7.24762 20.5338ZM4.18762 8.49381H6.02762C5.74762 10.5538 5.34762 13.1138 5.00762 14.6938L3.16762 14.4938C3.52762 12.9138 3.96762 10.4138 4.18762 8.49381ZM7.02762 8.99381H8.60762C8.48762 10.3738 8.28762 12.0538 8.08762 13.1338L6.48762 13.1138C6.70762 11.9938 6.92762 10.3338 7.02762 8.99381ZM4.82762 8.49381H10.4476V9.71381H4.82762V8.49381ZM2.62762 10.4738H12.5476V11.7338H2.62762V10.4738ZM4.38762 12.5538H12.5876V13.8138H4.38762V12.5538ZM9.84762 8.49381H11.5876C11.5876 8.49381 11.5676 8.95381 11.5476 9.19381C11.3076 13.0338 11.0276 14.5138 10.5476 15.0338C10.2076 15.4138 9.82762 15.5738 9.34762 15.6138C8.94762 15.6538 8.24762 15.6538 7.54762 15.6138C7.52762 15.2138 7.34762 14.5938 7.12762 14.2138C7.74762 14.2738 8.28762 14.2738 8.54762 14.2738C8.78762 14.2738 8.92762 14.2538 9.08762 14.0738C9.40762 13.7138 9.64762 12.3538 9.84762 8.75381V8.49381Z" fill="white"/>
</svg>
