<svg width="29" height="28" viewBox="0 0 29 28" fill="none" xmlns="http://www.w3.org/2000/svg">
<path d="M11.5615 20.0474C11.5615 20.255 11.5508 20.4305 11.5293 20.5737C11.515 20.7098 11.4899 20.8208 11.4541 20.9067C11.4183 20.9927 11.3717 21.0571 11.3145 21.1001C11.2643 21.1359 11.207 21.1538 11.1426 21.1538H4.16016C3.92383 21.1538 3.72331 21.0858 3.55859 20.9497C3.40104 20.8065 3.32227 20.5773 3.32227 20.2622V8.14502C3.32227 7.82992 3.40104 7.60433 3.55859 7.46826C3.72331 7.32503 3.92383 7.25342 4.16016 7.25342H11.0996C11.1641 7.25342 11.2214 7.27132 11.2715 7.30713C11.3216 7.34294 11.3646 7.40739 11.4004 7.50049C11.4362 7.58643 11.4613 7.70101 11.4756 7.84424C11.4971 7.98031 11.5078 8.15576 11.5078 8.37061C11.5078 8.57113 11.4971 8.743 11.4756 8.88623C11.4613 9.0223 11.4362 9.1333 11.4004 9.21924C11.3646 9.30518 11.3216 9.36963 11.2715 9.4126C11.2214 9.4484 11.1641 9.46631 11.0996 9.46631H6.13672V12.8608H10.3369C10.4014 12.8608 10.4587 12.8823 10.5088 12.9253C10.5661 12.9611 10.6126 13.022 10.6484 13.1079C10.6842 13.1867 10.7093 13.2977 10.7236 13.4409C10.7451 13.577 10.7559 13.7453 10.7559 13.9458C10.7559 14.1535 10.7451 14.3254 10.7236 14.4614C10.7093 14.5975 10.6842 14.7085 10.6484 14.7944C10.6126 14.8732 10.5661 14.9305 10.5088 14.9663C10.4587 15.0021 10.4014 15.02 10.3369 15.02H6.13672V18.9409H11.1426C11.207 18.9409 11.2643 18.9624 11.3145 19.0054C11.3717 19.0412 11.4183 19.1021 11.4541 19.188C11.4899 19.2739 11.515 19.3885 11.5293 19.5317C11.5508 19.6678 11.5615 19.8397 11.5615 20.0474ZM25.5264 20.1655C25.5264 20.3302 25.4977 20.4771 25.4404 20.606C25.3831 20.7349 25.3044 20.8423 25.2041 20.9282C25.111 21.0142 24.9964 21.0786 24.8604 21.1216C24.7314 21.1574 24.599 21.1753 24.4629 21.1753H23.2598C23.0091 21.1753 22.7907 21.1502 22.6045 21.1001C22.4255 21.05 22.2572 20.9604 22.0996 20.8315C21.9492 20.6955 21.8024 20.5164 21.6592 20.2944C21.516 20.0653 21.3548 19.7716 21.1758 19.4136L17.7168 12.9146C17.5163 12.5278 17.3122 12.1125 17.1045 11.6685C16.8968 11.2173 16.7106 10.7804 16.5459 10.3579H16.5244C16.5531 10.8735 16.5745 11.3892 16.5889 11.9048C16.6032 12.4132 16.6104 12.9396 16.6104 13.4839V20.7563C16.6104 20.828 16.5889 20.8924 16.5459 20.9497C16.5101 21.007 16.4421 21.0571 16.3418 21.1001C16.2487 21.1359 16.1198 21.1646 15.9551 21.186C15.7904 21.2075 15.5791 21.2183 15.3213 21.2183C15.0706 21.2183 14.863 21.2075 14.6982 21.186C14.5335 21.1646 14.4046 21.1359 14.3115 21.1001C14.2184 21.0571 14.154 21.007 14.1182 20.9497C14.0824 20.8924 14.0645 20.828 14.0645 20.7563V8.26318C14.0645 7.9266 14.1611 7.67594 14.3545 7.51123C14.555 7.33936 14.7985 7.25342 15.085 7.25342H16.5996C16.8717 7.25342 17.1009 7.27848 17.2871 7.32861C17.4733 7.37158 17.638 7.44678 17.7812 7.5542C17.9316 7.66162 18.0713 7.81201 18.2002 8.00537C18.3291 8.19157 18.4616 8.42432 18.5977 8.70361L21.3047 13.7847C21.4622 14.0926 21.6162 14.397 21.7666 14.6978C21.9242 14.9914 22.0745 15.2886 22.2178 15.5894C22.361 15.883 22.5007 16.173 22.6367 16.4595C22.7728 16.7459 22.9053 17.0324 23.0342 17.3188H23.0449C23.0234 16.8175 23.0055 16.2948 22.9912 15.7505C22.984 15.2062 22.9805 14.687 22.9805 14.1929V7.67236C22.9805 7.60075 23.002 7.5363 23.0449 7.479C23.0879 7.42171 23.1595 7.37158 23.2598 7.32861C23.36 7.28564 23.4925 7.257 23.6572 7.24268C23.8219 7.22119 24.0332 7.21045 24.291 7.21045C24.5345 7.21045 24.7386 7.22119 24.9033 7.24268C25.068 7.257 25.1934 7.28564 25.2793 7.32861C25.3724 7.37158 25.4368 7.42171 25.4727 7.479C25.5085 7.5363 25.5264 7.60075 25.5264 7.67236V20.1655Z" fill="white"/>
</svg>
