<svg width="81" height="80" viewBox="0 0 81 80" fill="none" xmlns="http://www.w3.org/2000/svg">
<path d="M78.686 40C78.686 61.274 61.5768 78.5 40.4961 78.5C19.4153 78.5 2.30615 61.274 2.30615 40C2.30615 18.726 19.4153 1.5 40.4961 1.5C61.5768 1.5 78.686 18.726 78.686 40Z" fill="#1E1E1C" stroke="white" stroke-width="3"/>
<path fill-rule="evenodd" clip-rule="evenodd" d="M18.0421 52.2167L14.6978 48.4333V47.7401V47.047L27.5361 32.5235L40.3745 18H40.9923H41.6102L54.4485 32.5235L67.2869 47.047V47.7401V48.4333L63.9425 52.2167L60.5982 56H59.9202H59.2423L50.1172 45.685L40.9923 35.3702L31.8674 45.685L22.7424 56H22.0645H21.3865L18.0421 52.2167Z" fill="white"/>
</svg>
