<svg width="17" height="22" viewBox="0 0 17 22" fill="none" xmlns="http://www.w3.org/2000/svg">
<path fill-rule="evenodd" clip-rule="evenodd" d="M6.01327 0.759923C3.75242 1.31787 1.71458 2.93612 0.677105 4.99785C0.214311 5.91763 0.093762 6.41756 0.0267068 7.69482C-0.0467526 9.09577 0.0054227 9.43015 0.516625 10.8374C0.83137 11.7033 1.40266 12.9521 1.78615 13.6121C3.63017 16.7852 7.45157 21.5 8.17938 21.5C8.88421 21.5 12.7853 16.7189 14.4796 13.7782C14.9173 13.0186 15.5327 11.6897 15.847 10.8252C16.3611 9.41139 16.4093 9.09664 16.3277 7.69031C16.2552 6.43927 16.1247 5.9013 15.6753 4.99785C13.9729 1.57635 9.91604 -0.203108 6.01327 0.759923ZM9.73936 4.57279C12.3364 5.57317 13.1232 8.80898 11.2311 10.7074C10.6363 11.3041 9.05882 11.9426 8.17938 11.9426C7.29994 11.9426 5.72245 11.3041 5.12761 10.7074C4.50151 10.0791 4.08054 9.00752 4.07809 8.03598C4.07149 5.421 7.11252 3.56077 9.73936 4.57279Z" fill="black"/>
</svg>
