<svg width="48" height="48" viewBox="0 0 48 48" fill="none" xmlns="http://www.w3.org/2000/svg">
<path d="M16.8709 47.5587C14.454 47.5587 12.3163 46.108 11.4233 43.8648L9.52008 39.0854C9.45457 39.0854 9.38561 39.0854 9.3201 39.0854C8.39952 39.0647 7.48929 38.9131 6.61008 38.6306C6.03084 38.4445 5.46884 38.2033 4.93787 37.9104C4.4 37.6175 3.89317 37.2695 3.42426 36.8801C2.21406 35.8705 1.26245 34.561 0.679759 33.0897C-0.261507 30.7293 -0.22358 28.1449 0.783195 25.8087C1.78997 23.4758 3.64492 21.6737 6.00671 20.733C6.00671 20.733 11.3302 18.5001 13.8127 17.6283C16.2951 16.7565 22.4116 10.9813 23.5873 6.6637C24.2218 2.58729 26.1732 0.998771 27.7144 0.388862C28.3592 0.133871 29.0488 0.00292969 29.7659 0.00292969C35.417 0.00292969 41.1025 7.92487 44.2262 15.7779C47.9741 25.1953 48.6878 35.9566 42.8023 38.2963C42.1575 38.5513 41.468 38.6822 40.7543 38.6822C39.0717 38.6822 37.2995 37.969 35.4894 36.5665C32.9138 35.071 29.8452 34.3095 26.3594 34.3095C23.8804 34.3095 21.7807 34.6954 20.5084 34.9987L22.3151 39.5368C22.8943 40.9909 22.8702 42.5829 22.253 44.0198C21.6324 45.4567 20.4912 46.5663 19.0362 47.1452C18.3432 47.4208 17.6157 47.5621 16.8709 47.5621V47.5587Z" fill="#004E9D"/>
<path d="M18.1329 44.8713C16.3814 45.5673 14.3954 44.7128 13.699 42.9623L10.2373 34.2616L16.5814 31.7393L20.043 40.4399C20.7395 42.1904 19.8844 44.1752 18.1329 44.8713Z" fill="#FFD028"/>
<path d="M17.8984 33.8484L12.1404 36.1364C8.51327 37.5802 4.39998 35.809 2.95532 32.1806C1.51067 28.5556 3.28287 24.4447 6.91347 23.0009L12.6714 20.7129L17.8984 33.8449V33.8484Z" fill="#E4003D"/>
<path d="M17.8999 33.8507C19.3543 33.2725 19.3644 29.8666 17.9224 26.2433C16.4804 22.62 14.1323 20.1514 12.6779 20.7295C11.2235 21.3077 11.2134 24.7136 12.6554 28.3369C14.0974 31.9603 16.4455 34.4288 17.8999 33.8507Z" fill="#E4003D"/>
<path d="M13.6301 20.9261C12.2889 21.4602 12.2785 24.6028 13.6094 27.9453C14.9403 31.2877 17.1055 33.5654 18.4468 33.0347C18.5054 33.0106 28.7524 29.5303 37.1031 34.675L26.0596 6.92578C23.5254 16.3983 13.6853 20.902 13.6266 20.9261H13.6301Z" fill="white"/>
<path d="M41.9022 36.0231C45.5985 34.5539 45.6225 25.8941 41.9559 16.6811C38.2893 7.46815 32.3205 1.19064 28.6243 2.65993C24.928 4.12922 24.904 12.7889 28.5706 22.0019C32.2372 31.2149 38.206 37.4924 41.9022 36.0231Z" fill="#FFD028"/>
<path d="M39.6304 17.6046C42.5507 24.9407 42.961 31.667 40.5475 32.6249C38.134 33.5829 33.8104 28.4141 30.89 21.078C27.9697 13.7418 27.5594 7.0156 29.9729 6.05766C32.3864 5.09972 36.71 10.2685 39.6304 17.6046Z" fill="white"/>
<path d="M28.9245 7.14355C27.7971 9.51772 28.5073 15.0931 30.8898 21.0784C33.2723 27.0604 36.5857 31.602 39.0371 32.553C40.1646 30.1789 39.4543 24.6035 37.0718 18.6181C34.6894 12.6362 31.376 8.0946 28.9245 7.14355Z" fill="#F6F6F6"/>
<path d="M35.2618 19.3414C34.3343 17.0086 31.7484 15.8336 29.397 16.6227C29.7831 18.0492 30.2831 19.5516 30.8899 21.0781C31.4967 22.6046 32.1656 24.0381 32.8655 25.344C35.117 24.3034 36.1858 21.6742 35.2583 19.3414H35.2618Z" fill="#C54090"/>
</svg>
