<svg width="250" height="73" viewBox="0 0 250 73" fill="none" xmlns="http://www.w3.org/2000/svg">
<g clip-path="url(#clip0_1484_264)">
<path d="M16.55 59.574L43.2518 72.9999L36.209 53.4805L16.55 59.574Z" fill="#8F191E"/>
<path d="M250 17.7783H37.3137L16.55 32.3595V59.4034H250L239.615 38.5926L250 17.7783Z" fill="#E4003D"/>
<path d="M46.3642 0L40.1393 2.60004L40.9467 12.016L46.3642 0Z" fill="#FFD028"/>
<path d="M67.8042 1.23894L44.5477 17.5581L57.6985 0L67.8042 1.23894Z" fill="#FFD028"/>
<path d="M17.322 55.9584C14.8398 55.9584 12.6445 54.4891 11.7274 52.2171L9.77281 47.3765C9.70554 47.3765 9.63472 47.3765 9.56744 47.3765C8.62203 47.3555 7.68724 47.202 6.78431 46.9158C6.18945 46.7273 5.61229 46.4831 5.06699 46.1864C4.51461 45.8898 3.9941 45.5373 3.51255 45.1429C2.2697 44.1203 1.29242 42.7941 0.694008 41.3039C-0.272651 38.9133 -0.233701 36.2958 0.800234 33.9296C1.83417 31.5669 3.73916 29.7416 6.16466 28.7888C6.16466 28.7888 11.6318 26.5273 14.1812 25.6444C16.7306 24.7614 23.0121 18.9122 24.2196 14.5392C24.8711 10.4106 26.8752 8.8017 28.458 8.18397C29.1202 7.92571 29.8283 7.79309 30.5648 7.79309C36.3683 7.79309 42.2072 15.8166 45.4153 23.7702C49.2642 33.3084 49.9972 44.2076 43.9529 46.5773C43.2907 46.8355 42.5826 46.9682 41.8496 46.9682C40.1217 46.9682 38.3016 46.2457 36.4427 44.8253C33.7977 43.3107 30.6463 42.5394 27.0665 42.5394C24.5206 42.5394 22.3642 42.9302 21.0576 43.2374L22.913 47.8337C23.5079 49.3064 23.4831 50.9188 22.8493 52.3741C22.2119 53.8295 21.0399 54.9532 19.5456 55.5396C18.8339 55.8188 18.0868 55.9619 17.322 55.9619V55.9584Z" fill="#C9CACA"/>
<path d="M18.618 53.2369C16.8192 53.9418 14.7797 53.0763 14.0644 51.3034L10.5094 42.4912L17.0246 39.9365L20.5797 48.7487C21.2949 50.5216 20.4168 52.5319 18.618 53.2369Z" fill="#FFD028"/>
<path d="M18.3772 42.0724L12.4639 44.3897C8.73892 45.852 4.51466 44.0582 3.03103 40.3832C1.5474 36.7118 3.36741 32.5482 7.09596 31.0859L13.0092 28.7686L18.3772 42.0689V42.0724Z" fill="#E4003D"/>
<path d="M18.3787 42.0748C19.8723 41.4892 19.8827 38.0396 18.4018 34.3699C16.9208 30.7001 14.5095 28.1999 13.0158 28.7855C11.5221 29.371 11.5118 32.8206 12.9927 36.4904C14.4736 40.1601 16.885 42.6603 18.3787 42.0748Z" fill="#E4003D"/>
<path d="M13.9936 28.9845C12.6162 29.5254 12.6056 32.7083 13.9723 36.0936C15.3391 39.4789 17.5628 41.7858 18.9402 41.2483C19.0004 41.2239 29.5239 37.699 38.0999 42.9095L26.7584 14.8047C24.1559 24.3987 14.0502 28.9601 13.99 28.9845H13.9936Z" fill="white"/>
<path d="M43.0284 44.2751C46.8243 42.7869 46.849 34.0162 43.0835 24.6852C39.3179 15.3541 33.1882 8.9961 29.3922 10.4842C25.5963 11.9723 25.5716 20.743 29.3371 30.0741C33.1026 39.4052 39.2324 45.7632 43.0284 44.2751Z" fill="#FFD028"/>
<path d="M40.6953 25.6203C43.6944 33.0505 44.1158 39.8629 41.6372 40.8331C39.1585 41.8033 34.7183 36.5684 31.7192 29.1382C28.72 21.708 28.2987 14.8956 30.7773 13.9253C33.2559 12.9551 37.6962 18.1901 40.6953 25.6203Z" fill="white"/>
<path d="M29.7009 15.0244C28.543 17.429 29.2724 23.0758 31.7192 29.1379C34.1659 35.1965 37.5687 39.7963 40.0863 40.7596C41.2441 38.355 40.5147 32.7082 38.068 26.6461C35.6212 20.5874 32.2184 15.9876 29.7009 15.0244Z" fill="#F6F6F6"/>
<path d="M36.2091 27.3794C35.2566 25.0167 32.6009 23.8266 30.186 24.6258C30.5826 26.0707 31.096 27.5923 31.7192 29.1384C32.3424 30.6844 33.0294 32.1363 33.7482 33.459C36.0603 32.405 37.158 29.7421 36.2055 27.3794H36.2091Z" fill="#C54090"/>
</g>
<defs>
<clipPath id="clip0_1484_264">
<rect width="250" height="73" fill="white"/>
</clipPath>
</defs>
</svg>
