<svg width="19" height="19" viewBox="0 0 19 19" fill="none" xmlns="http://www.w3.org/2000/svg">
<path fill-rule="evenodd" clip-rule="evenodd" d="M8.81032 0.0102363C6.48024 0.214614 4.39177 1.17247 2.77933 2.77622C1.55458 3.99438 0.673833 5.55626 0.259883 7.24426C0.0558051 8.07627 0.000733302 8.5508 3.87391e-06 9.48394C-0.00121184 11.059 0.28363 12.2993 0.967469 13.6962C2.35448 16.5297 5.02536 18.4619 8.20011 18.9286C8.8457 19.0235 10.1629 19.0239 10.7983 18.9294C11.8478 18.7733 12.7606 18.4897 13.6934 18.0299C15.6202 17.0802 17.0965 15.6052 18.031 13.6962C18.4872 12.7642 18.763 11.8818 18.9259 10.8326C19.0241 10.1997 19.0248 8.85425 18.9272 8.19381C18.4619 5.04531 16.5303 2.38209 13.6934 0.977405C12.7956 0.532845 11.8897 0.249244 10.8485 0.0867058C10.462 0.026397 9.17633 -0.021842 8.81032 0.0102363ZM9.81458 3.53217C10.0144 3.61556 10.1814 3.77701 10.2734 3.97555C10.3439 4.12768 10.3485 4.29091 10.3493 6.64898L10.3502 9.16045L11.5701 10.3753C12.3605 11.1624 12.8167 11.6471 12.866 11.7521C13.1827 12.4273 12.4687 13.1702 11.7774 12.8847C11.5708 12.7994 8.83184 10.0741 8.72599 9.84847C8.65402 9.69505 8.64997 9.53964 8.64912 6.92084C8.64835 4.5108 8.65633 4.13586 8.71116 4.00463C8.89194 3.5721 9.39468 3.35683 9.81458 3.53217Z" fill="black"/>
</svg>
